<svg viewBox="0 0 702 182" xmlns="http://www.w3.org/2000/svg" fill-rule="evenodd" clip-rule="evenodd" stroke-linecap="round" stroke-linejoin="round"><path fill="#fff" fill-rule="nonzero" d="M1 1h700v180H1z"/><path d="M3 1h696c1.097 0 2 .903 2 2v176c0 1.097-.903 2-2 2H3c-1.097 0-2-.903-2-2V3c0-1.097.903-2 2-2z" fill="#fff" fill-rule="nonzero"/><path d="M3 1h696c1.097 0 2 .903 2 2v176c0 1.097-.903 2-2 2H3c-1.097 0-2-.903-2-2V3c0-1.097.903-2 2-2z" fill="none" stroke="#000" stroke-width="2"/><g fill-rule="nonzero"><path d="M28.738 12.547h4.578c.906 0 1.582.038 2.027.113.446.076.844.233 1.196.473.351.239.644.558.879.957.234.398.351.845.351 1.34 0 .536-.144 1.028-.433 1.476-.29.448-.681.784-1.176 1.008.698.203 1.234.55 1.609 1.039.375.49.563 1.065.563 1.727a3.39 3.39 0 01-.364 1.519 3.061 3.061 0 01-.992 1.18c-.419.294-.936.475-1.551.543-.385.042-1.315.068-2.789.078h-3.898V12.547zm2.312 1.906v2.649h1.516c.901 0 1.461-.013 1.68-.039.396-.047.707-.184.933-.411.227-.226.34-.524.34-.894 0-.354-.098-.642-.293-.863-.195-.222-.486-.356-.871-.403-.229-.026-.888-.039-1.977-.039H31.05zm0 4.555v3.062h2.141c.833 0 1.362-.023 1.586-.07a1.43 1.43 0 00.84-.457c.216-.242.324-.566.324-.973 0-.343-.083-.635-.25-.875a1.416 1.416 0 00-.723-.523c-.315-.109-.998-.164-2.05-.164H31.05zM39.761 19.734c0-.729.18-1.435.539-2.117a3.703 3.703 0 011.528-1.562c.659-.36 1.394-.539 2.207-.539 1.255 0 2.284.407 3.086 1.222s1.203 1.845 1.203 3.09c0 1.255-.405 2.296-1.215 3.121-.81.826-1.829 1.239-3.059 1.239-.76 0-1.485-.172-2.175-.516A3.54 3.54 0 0140.3 22.16c-.359-.664-.539-1.472-.539-2.426zm2.25.118c0 .822.196 1.453.586 1.89.391.438.873.656 1.446.656.572 0 1.053-.218 1.441-.656.388-.437.582-1.073.582-1.906 0-.813-.194-1.438-.582-1.875a1.849 1.849 0 00-1.441-.656c-.573 0-1.055.218-1.446.656-.39.437-.586 1.068-.586 1.891zM55.503 24v-1.242a3.202 3.202 0 01-1.191 1.047 3.343 3.343 0 01-1.559.383 3.047 3.047 0 01-1.5-.368 2.16 2.16 0 01-.96-1.031c-.198-.443-.297-1.055-.297-1.836v-5.25h2.195v3.813c0 1.166.04 1.881.121 2.144.081.263.228.472.441.625.214.154.485.231.813.231.375 0 .711-.103 1.008-.309.297-.206.5-.461.609-.766.11-.304.164-1.05.164-2.238v-3.5h2.196V24h-2.04zM67.363 24h-2.195v-4.234c0-.896-.047-1.476-.141-1.739a1.22 1.22 0 00-.457-.613 1.306 1.306 0 00-.762-.219c-.38 0-.721.104-1.023.313a1.572 1.572 0 00-.621.828c-.112.344-.168.979-.168 1.906V24H59.8v-8.297h2.039v1.219c.724-.938 1.636-1.406 2.735-1.406.484 0 .927.087 1.328.261.401.175.704.397.91.668.206.271.349.578.43.922.081.344.121.836.121 1.477V24zM77.199 24H75.16v-1.219c-.339.474-.739.827-1.199 1.059a3.076 3.076 0 01-1.395.348c-.953 0-1.77-.385-2.449-1.153-.68-.768-1.02-1.84-1.02-3.215 0-1.406.331-2.475.992-3.207.662-.731 1.498-1.097 2.508-1.097.927 0 1.729.385 2.406 1.156v-4.125h2.196V24zm-5.86-4.328c0 .885.123 1.526.368 1.922.354.573.849.859 1.484.859.505 0 .935-.215 1.289-.644.354-.43.531-1.072.531-1.926 0-.953-.172-1.64-.515-2.059a1.633 1.633 0 00-1.321-.629c-.52 0-.957.207-1.308.621-.352.414-.528 1.033-.528 1.856zM79.441 24V12.641h2.312v9.429h5.75V24h-8.062zM88.628 19.734c0-.729.18-1.435.54-2.117a3.695 3.695 0 011.527-1.562c.659-.36 1.394-.539 2.207-.539 1.255 0 2.284.407 3.086 1.222s1.203 1.845 1.203 3.09c0 1.255-.405 2.296-1.215 3.121-.81.826-1.829 1.239-3.058 1.239a4.814 4.814 0 01-2.176-.516 3.537 3.537 0 01-1.574-1.512c-.36-.664-.54-1.472-.54-2.426zm2.25.118c0 .822.196 1.453.586 1.89.391.438.873.656 1.446.656s1.053-.218 1.441-.656c.388-.437.582-1.073.582-1.906 0-.813-.194-1.438-.582-1.875a1.847 1.847 0 00-1.441-.656c-.573 0-1.055.218-1.446.656-.39.437-.586 1.068-.586 1.891zM98.707 24.547l2.507.305c.042.291.138.492.289.601.209.156.537.235.985.235.573 0 1.002-.086 1.289-.258.193-.115.338-.3.437-.555.068-.182.102-.518.102-1.008v-1.211c-.656.896-1.484 1.344-2.484 1.344-1.115 0-1.998-.471-2.649-1.414-.51-.745-.765-1.672-.765-2.781 0-1.391.334-2.453 1.003-3.188.67-.734 1.502-1.101 2.497-1.101 1.026 0 1.872.45 2.539 1.351v-1.164h2.054v7.445c0 .98-.08 1.711-.242 2.196-.161.484-.388.864-.68 1.14-.291.276-.681.493-1.168.649-.487.156-1.102.234-1.847.234-1.406 0-2.404-.241-2.992-.722-.589-.482-.883-1.093-.883-1.832 0-.073.002-.162.008-.266zm1.961-4.867c0 .88.17 1.524.511 1.933.341.409.762.614 1.262.614.536 0 .99-.21 1.359-.629.37-.42.555-1.041.555-1.864 0-.859-.177-1.497-.531-1.914a1.69 1.69 0 00-1.344-.625c-.526 0-.96.205-1.301.614-.341.408-.511 1.032-.511 1.871zM108.48 24.547l2.508.305c.042.291.138.492.289.601.208.156.536.235.984.235.573 0 1.003-.086 1.289-.258.193-.115.339-.3.438-.555.068-.182.101-.518.101-1.008v-1.211c-.656.896-1.484 1.344-2.484 1.344-1.115 0-1.997-.471-2.648-1.414-.511-.745-.766-1.672-.766-2.781 0-1.391.335-2.453 1.004-3.188.669-.734 1.501-1.101 2.496-1.101 1.026 0 1.872.45 2.539 1.351v-1.164h2.055v7.445c0 .98-.081 1.711-.242 2.196-.162.484-.388.864-.68 1.14-.292.276-.681.493-1.168.649-.487.156-1.103.234-1.848.234-1.406 0-2.403-.241-2.992-.722-.588-.482-.883-1.093-.883-1.832 0-.073.003-.162.008-.266zm1.961-4.867c0 .88.171 1.524.512 1.933.341.409.761.614 1.261.614.537 0 .99-.21 1.36-.629.37-.42.554-1.041.554-1.864 0-.859-.177-1.497-.531-1.914a1.69 1.69 0 00-1.344-.625 1.62 1.62 0 00-1.3.614c-.341.408-.512 1.032-.512 1.871zM123.261 21.359l2.188.368c-.281.802-.725 1.412-1.332 1.832-.607.419-1.366.629-2.278.629-1.442 0-2.51-.472-3.203-1.415-.547-.755-.82-1.708-.82-2.859 0-1.375.359-2.452 1.078-3.23.719-.779 1.628-1.168 2.727-1.168 1.234 0 2.208.407 2.922 1.222.713.815 1.054 2.064 1.023 3.746h-5.5c.016.651.193 1.158.531 1.52.339.362.761.543 1.266.543.344 0 .633-.094.867-.281.234-.188.412-.49.531-.907zm.125-2.218c-.015-.636-.179-1.119-.492-1.45a1.513 1.513 0 00-1.141-.496c-.479 0-.875.175-1.187.524-.313.349-.466.823-.461 1.422h3.281zM129.457 24h-2.196v-8.297h2.039v1.18c.349-.557.663-.925.942-1.102a1.73 1.73 0 01.949-.265c.5 0 .982.138 1.445.414l-.679 1.914c-.37-.24-.714-.36-1.032-.36a1.22 1.22 0 00-.781.254c-.213.17-.381.476-.504.918-.122.443-.183 1.37-.183 2.782V24z"/></g><path d="M28 40.75h196c1.097 0 2 .903 2 2v116c0 1.097-.903 2-2 2H28c-1.097 0-2-.903-2-2v-116c0-1.097.903-2 2-2z" fill="#ffc0ff" fill-rule="nonzero"/><path d="M28 40.75h196c1.097 0 2 .903 2 2v116c0 1.097-.903 2-2 2H28c-1.097 0-2-.903-2-2v-116c0-1.097.903-2 2-2z" fill="none" stroke="#f0f" stroke-width="2"/><g fill-rule="nonzero"><path d="M45.675 98.532h-.617c-.75 0-1.29-.202-1.621-.606-.331-.403-.496-1.152-.496-2.246v-.75c0-.974-.128-1.652-.383-2.035-.255-.383-.666-.574-1.234-.574v-1.273c.568 0 .979-.192 1.234-.575.255-.383.383-1.061.383-2.035v-.758c0-1.088.165-1.834.496-2.238.331-.404.871-.605 1.621-.605h.617v1.023h-.234c-.484 0-.822.104-1.012.313-.19.208-.285.705-.285 1.492v.5c0 1.078-.125 1.872-.375 2.383-.25.51-.674.888-1.273 1.132.599.25 1.023.631 1.273 1.141s.375 1.305.375 2.383v.5c0 .786.095 1.284.285 1.492.19.208.528.312 1.012.312h.234v1.024zM45.339 104.712l-.281 2.187h-.625l-.289-2.187v-1.875h1.195v1.875zm-2.828 0l-.289 2.187h-.625l-.289-2.187v-1.875h1.203v1.875zM56.066 113.86h-1.219v-1.203c-.875.932-1.797 1.398-2.765 1.398-1.526 0-2.289-.924-2.289-2.773v-5.563h1.218v5.211c0 .693.11 1.21.328 1.551.219.341.589.512 1.11.512.745 0 1.544-.464 2.398-1.391v-5.883h1.219v8.141zM64.832 106.883c-.683-.224-1.326-.335-1.93-.335-.661 0-1.185.11-1.57.332-.386.221-.578.516-.578.886 0 .235.088.439.265.614.177.174.531.337 1.063.488l1.164.336c.536.151.974.332 1.312.543.339.211.593.466.762.765.169.3.254.647.254 1.043 0 .776-.326 1.39-.977 1.84-.651.451-1.479.676-2.484.676-1 0-1.826-.151-2.477-.453l.235-1.055a5.065 5.065 0 002.195.485c.677 0 1.228-.127 1.652-.379.425-.253.637-.588.637-1.004 0-.282-.105-.533-.316-.754-.211-.222-.707-.452-1.489-.692a92.647 92.647 0 01-1.39-.433 2.905 2.905 0 01-.828-.426 1.879 1.879 0 01-.582-.672c-.133-.26-.2-.552-.2-.875 0-.703.308-1.26.922-1.672.615-.411 1.43-.617 2.446-.617.656 0 1.385.112 2.187.336l-.273 1.023zM75.527 109.829h-5.586c0 .922.267 1.682.801 2.281.534.599 1.189.898 1.965.898a7.13 7.13 0 002.289-.398l.211.977c-.719.322-1.558.484-2.516.484-1.208 0-2.182-.388-2.922-1.164-.739-.776-1.109-1.823-1.109-3.141 0-1.291.332-2.321.996-3.09.664-.768 1.522-1.152 2.574-1.152.938 0 1.721.357 2.352 1.07.63.714.945 1.664.945 2.852v.383zm-1.328-.992c0-.636-.198-1.171-.594-1.606-.396-.435-.838-.652-1.328-.652-.63 0-1.152.208-1.566.625-.414.416-.645.961-.692 1.633h4.18zM85.011 105.938l-.492 1.172c-.536-.234-1-.352-1.39-.352-.36 0-.711.103-1.055.309-.344.206-.66.5-.949.883-.289.383-.434.598-.434.644v5.266H79.48v-8.141h1.211v1.649c.651-1.229 1.495-1.844 2.531-1.844.615 0 1.211.138 1.789.414zM93.347 104.712l-.281 2.187h-.625l-.289-2.187v-1.875h1.195v1.875zm-2.828 0l-.289 2.187h-.625l-.289-2.187v-1.875h1.203v1.875zM100.871 105.602c.265 0 .489.09.672.27a.89.89 0 01.273.66c0 .26-.091.48-.273.66a.922.922 0 01-.672.27.895.895 0 01-.66-.27.898.898 0 01-.27-.66c0-.261.09-.481.27-.66a.895.895 0 01.66-.27zm0 6.531a.93.93 0 01.672.266.89.89 0 01.273.664.878.878 0 01-.273.656.93.93 0 01-.672.266.903.903 0 01-.66-.266.883.883 0 01-.27-.656c0-.265.09-.487.27-.664a.903.903 0 01.66-.266zM122.152 104.712l-.281 2.187h-.625l-.289-2.187v-1.875h1.195v1.875zm-2.828 0l-.289 2.187h-.625l-.289-2.187v-1.875h1.203v1.875zM133.293 113.079a4.945 4.945 0 01-2.993.992c-1.432 0-2.518-.486-3.257-1.457-.74-.971-1.11-2.392-1.11-4.262 0-1.807.358-3.213 1.074-4.219.717-1.005 1.814-1.507 3.293-1.507.532 0 1.058.067 1.579.203.52.135.94.315 1.257.539l-.422 1.008a4.803 4.803 0 00-2.414-.625c-1.01 0-1.764.369-2.261 1.109-.498.74-.746 1.904-.746 3.492 0 3.063 1.002 4.594 3.007 4.594.756 0 1.326-.159 1.711-.477v-2.718h-1.984v-1.11h3.266v4.438zM142.48 113.86h-1.219v-1.203c-.875.932-1.797 1.398-2.765 1.398-1.526 0-2.289-.924-2.289-2.773v-5.563h1.218v5.211c0 .693.11 1.21.329 1.551.218.341.588.512 1.109.512.745 0 1.544-.464 2.398-1.391v-5.883h1.219v8.141zM149.472 102.641c.229 0 .425.082.586.246a.81.81 0 01.242.59.824.824 0 01-.828.844.768.768 0 01-.566-.254.822.822 0 010-1.176.775.775 0 01.566-.25zm.594 11.219h-1.219v-7.086h-2.398v-1.055h3.617v8.141zM161.668 113.86h-1.219v-1.172c-.25.401-.608.732-1.074.992a2.97 2.97 0 01-1.473.391c-.932 0-1.669-.415-2.211-1.246-.542-.831-.812-1.884-.812-3.16 0-1.193.282-2.181.847-2.965.565-.784 1.314-1.176 2.246-1.176 1.026 0 1.852.417 2.477 1.25v-3.937h1.219v11.023zm-1.219-2.492v-3.383c-.583-.937-1.287-1.406-2.11-1.406-.671 0-1.203.298-1.593.894-.391.597-.586 1.351-.586 2.262 0 .938.183 1.712.551 2.324.367.612.871.918 1.511.918.308 0 .617-.083.93-.25.312-.166.607-.416.883-.75.276-.333.414-.536.414-.609zM168.144 105.524c1.12 0 2.011.391 2.672 1.172.662.781.992 1.81.992 3.086 0 1.286-.33 2.323-.992 3.109-.661.787-1.552 1.18-2.672 1.18-1.125 0-2.017-.392-2.676-1.176-.658-.784-.988-1.821-.988-3.113 0-1.281.331-2.311.992-3.09.662-.779 1.552-1.168 2.672-1.168zm0 7.484c.74 0 1.323-.312 1.75-.937.427-.625.641-1.383.641-2.273 0-.938-.211-1.709-.633-2.313-.422-.604-1.008-.906-1.758-.906-.755 0-1.341.298-1.758.894-.416.597-.625 1.371-.625 2.325 0 .906.211 1.667.633 2.285.422.617 1.005.925 1.75.925zM179.761 104.712l-.281 2.187h-.625l-.289-2.187v-1.875h1.195v1.875zm-2.828 0l-.289 2.187h-.625l-.289-2.187v-1.875h1.203v1.875zM187.363 114.071a1.041 1.041 0 01-.672-.336.944.944 0 01-.266-.656c0-.266.086-.49.258-.672a.856.856 0 01.649-.274c.291 0 .544.119.757.356.214.237.321.522.321.855 0 1.021-.568 1.818-1.703 2.391l-.297-.562c.635-.313.953-.68.953-1.102zM45.339 122.712l-.281 2.187h-.625l-.289-2.187v-1.875h1.195v1.875zm-2.828 0l-.289 2.187h-.625l-.289-2.187v-1.875h1.203v1.875zM53.457 120.641c.229 0 .424.082.586.246a.813.813 0 01.242.59c0 .24-.08.44-.238.602a.797.797 0 01-.59.242.769.769 0 01-.567-.254.822.822 0 010-1.176.776.776 0 01.567-.25zm.593 11.219h-1.218v-7.086h-2.399v-1.055h3.617v8.141zM60.629 124.774c.27-.375.636-.677 1.097-.906a3.235 3.235 0 011.457-.344c.938 0 1.673.387 2.207 1.16.534.774.801 1.78.801 3.02 0 1.25-.28 2.29-.84 3.121-.56.831-1.314 1.246-2.262 1.246-.505 0-.977-.126-1.417-.379a2.873 2.873 0 01-1.043-1.004v4.391H59.41v-11.36h1.219v1.055zm0 1.211v3.383c.229.458.539.841.929 1.148.391.308.795.461 1.211.461.656 0 1.179-.307 1.567-.922.388-.614.582-1.377.582-2.289 0-.937-.185-1.703-.555-2.297-.37-.593-.885-.89-1.547-.89-.859 0-1.588.469-2.187 1.406zM74.144 122.712l-.281 2.187h-.625l-.289-2.187v-1.875h1.195v1.875zm-2.828 0l-.289 2.187h-.625l-.289-2.187v-1.875h1.203v1.875zM81.668 123.602c.265 0 .489.09.671.27a.887.887 0 01.274.66.89.89 0 01-.274.66.918.918 0 01-.671.27.898.898 0 01-.661-.27.9.9 0 01-.269-.66c0-.261.09-.481.269-.66.18-.18.4-.27.661-.27zm0 6.531c.265 0 .489.089.671.266a.886.886 0 01.274.664.875.875 0 01-.274.656.926.926 0 01-.671.266.907.907 0 01-.661-.266.885.885 0 01-.269-.656c0-.265.09-.487.269-.664.18-.177.4-.266.661-.266zM102.949 122.712l-.281 2.187h-.625l-.289-2.187v-1.875h1.195v1.875zm-2.828 0l-.289 2.187h-.625l-.289-2.187v-1.875h1.203v1.875zM111.644 125.813c.75.219 1.332.591 1.746 1.117.414.526.621 1.141.621 1.844 0 1.01-.334 1.813-1.004 2.406-.669.594-1.493.891-2.472.891-1.026 0-1.869-.3-2.528-.898-.658-.599-.988-1.394-.988-2.383 0-.698.214-1.313.641-1.844.427-.531 1.023-.909 1.789-1.133-.61-.156-1.098-.457-1.465-.902a2.295 2.295 0 01-.551-1.496c0-.709.281-1.351.844-1.926.562-.576 1.305-.863 2.227-.863.911 0 1.665.286 2.261.859.597.573.895 1.216.895 1.93 0 .536-.188 1.03-.563 1.48a2.786 2.786 0 01-1.453.918zm-1.14-.531c.026 0 .151-.031.375-.094.224-.062.415-.139.574-.23.159-.091.306-.207.441-.348.136-.141.245-.306.328-.496.084-.19.125-.402.125-.637 0-.5-.179-.915-.539-1.246a1.855 1.855 0 00-1.304-.496c-.495 0-.92.169-1.274.508-.354.338-.531.75-.531 1.234 0 .307.064.576.191.805.128.229.287.414.477.555.19.14.409.25.656.328.247.078.408.117.481.117zm0 1.094c-1.428.416-2.141 1.2-2.141 2.351 0 .672.216 1.21.648 1.613.433.404.94.606 1.524.606.604 0 1.113-.199 1.527-.598.414-.398.621-.939.621-1.621 0-.515-.143-.978-.429-1.387-.287-.408-.87-.73-1.75-.964zM120.089 130.071c.277 0 .508.094.696.281a.947.947 0 01.281.696c0 .281-.095.522-.285.722a.917.917 0 01-.692.301.894.894 0 01-.679-.301 1.016 1.016 0 01-.281-.722.948.948 0 01.96-.977zM130.847 125.813c.75.219 1.332.591 1.746 1.117.414.526.621 1.141.621 1.844 0 1.01-.334 1.813-1.003 2.406-.67.594-1.494.891-2.473.891-1.026 0-1.869-.3-2.527-.898-.659-.599-.989-1.394-.989-2.383 0-.698.214-1.313.641-1.844.427-.531 1.023-.909 1.789-1.133-.609-.156-1.098-.457-1.465-.902a2.295 2.295 0 01-.551-1.496c0-.709.282-1.351.844-1.926.563-.576 1.305-.863 2.227-.863.911 0 1.665.286 2.261.859.597.573.895 1.216.895 1.93 0 .536-.188 1.03-.563 1.48a2.786 2.786 0 01-1.453.918zm-1.14-.531c.026 0 .151-.031.375-.094.224-.062.415-.139.574-.23.159-.091.306-.207.441-.348.136-.141.245-.306.328-.496.084-.19.125-.402.125-.637 0-.5-.179-.915-.539-1.246a1.855 1.855 0 00-1.304-.496c-.495 0-.92.169-1.274.508-.354.338-.531.75-.531 1.234 0 .307.064.576.191.805.128.229.287.414.477.555.19.14.409.25.656.328.248.078.408.117.481.117zm0 1.094c-1.427.416-2.141 1.2-2.141 2.351 0 .672.216 1.21.648 1.613.433.404.941.606 1.524.606.604 0 1.113-.199 1.527-.598.414-.398.621-.939.621-1.621 0-.515-.143-.978-.429-1.387-.287-.408-.87-.73-1.75-.964zM139.293 130.071c.276 0 .507.094.695.281a.947.947 0 01.281.696c0 .281-.095.522-.285.722a.916.916 0 01-.691.301.895.895 0 01-.68-.301 1.016 1.016 0 01-.281-.722.948.948 0 01.961-.977zM150.05 125.813c.75.219 1.332.591 1.747 1.117.414.526.621 1.141.621 1.844 0 1.01-.335 1.813-1.004 2.406-.67.594-1.494.891-2.473.891-1.026 0-1.868-.3-2.527-.898-.659-.599-.989-1.394-.989-2.383 0-.698.214-1.313.641-1.844.427-.531 1.023-.909 1.789-1.133-.609-.156-1.098-.457-1.465-.902a2.295 2.295 0 01-.551-1.496c0-.709.282-1.351.844-1.926.563-.576 1.305-.863 2.227-.863.911 0 1.665.286 2.262.859.596.573.894 1.216.894 1.93 0 .536-.187 1.03-.562 1.48a2.79 2.79 0 01-1.454.918zm-1.14-.531c.026 0 .151-.031.375-.094.224-.062.415-.139.574-.23.159-.091.306-.207.441-.348a1.69 1.69 0 00.329-.496c.083-.19.125-.402.125-.637 0-.5-.18-.915-.54-1.246a1.855 1.855 0 00-1.304-.496c-.495 0-.919.169-1.274.508-.354.338-.531.75-.531 1.234 0 .307.064.576.192.805.127.229.286.414.476.555.19.14.409.25.656.328.248.078.408.117.481.117zm0 1.094c-1.427.416-2.141 1.2-2.141 2.351 0 .672.216 1.21.649 1.613.432.404.94.606 1.523.606.604 0 1.113-.199 1.527-.598.414-.398.621-.939.621-1.621 0-.515-.143-.978-.429-1.387-.287-.408-.87-.73-1.75-.964zM158.496 130.071c.276 0 .508.094.695.281a.943.943 0 01.281.696c0 .281-.095.522-.285.722a.915.915 0 01-.691.301.896.896 0 01-.68-.301 1.02 1.02 0 01-.281-.722.948.948 0 01.961-.977zM169.254 125.813c.75.219 1.332.591 1.746 1.117.414.526.621 1.141.621 1.844 0 1.01-.335 1.813-1.004 2.406-.669.594-1.494.891-2.473.891-1.026 0-1.868-.3-2.527-.898-.659-.599-.988-1.394-.988-2.383 0-.698.213-1.313.64-1.844.427-.531 1.024-.909 1.789-1.133-.609-.156-1.097-.457-1.465-.902a2.294 2.294 0 01-.55-1.496c0-.709.281-1.351.843-1.926.563-.576 1.305-.863 2.227-.863.911 0 1.665.286 2.262.859.596.573.894 1.216.894 1.93 0 .536-.187 1.03-.562 1.48a2.79 2.79 0 01-1.453.918zm-1.141-.531c.026 0 .151-.031.375-.094.224-.062.415-.139.574-.23a1.98 1.98 0 00.442-.348c.135-.141.244-.306.328-.496.083-.19.125-.402.125-.637 0-.5-.18-.915-.539-1.246a1.859 1.859 0 00-1.305-.496c-.495 0-.919.169-1.274.508-.354.338-.531.75-.531 1.234 0 .307.064.576.192.805.127.229.286.414.476.555.19.14.409.25.656.328.248.078.408.117.481.117zm0 1.094c-1.427.416-2.141 1.2-2.141 2.351 0 .672.216 1.21.649 1.613.432.404.94.606 1.523.606.604 0 1.113-.199 1.528-.598.414-.398.621-.939.621-1.621 0-.515-.144-.978-.43-1.387-.287-.408-.87-.73-1.75-.964zM179.761 122.712l-.281 2.187h-.625l-.289-2.187v-1.875h1.195v1.875zm-2.828 0l-.289 2.187h-.625l-.289-2.187v-1.875h1.203v1.875zM187.363 132.071a1.041 1.041 0 01-.672-.336.944.944 0 01-.266-.656c0-.266.086-.49.258-.672a.856.856 0 01.649-.274c.291 0 .544.119.757.356.214.237.321.522.321.855 0 1.021-.568 1.818-1.703 2.391l-.297-.562c.635-.313.953-.68.953-1.102zM45.293 146.321c-.563 0-.973.191-1.231.574-.258.383-.387 1.061-.387 2.035v.75c0 1.094-.164 1.843-.492 2.246-.328.404-.867.606-1.617.606h-.625v-1.024h.242c.485 0 .822-.104 1.012-.312.19-.208.285-.706.285-1.492v-.5c0-1.078.125-1.873.375-2.383s.675-.891 1.274-1.141c-.599-.244-1.024-.622-1.274-1.132-.25-.511-.375-1.305-.375-2.383v-.5c0-.787-.095-1.284-.285-1.492-.19-.209-.527-.313-1.012-.313h-.242v-1.023h.625c.75 0 1.289.201 1.617.605.328.404.492 1.15.492 2.238v.758c0 .88.115 1.535.344 1.965.229.43.654.645 1.274.645v1.273z"/></g><g fill-rule="nonzero"><path d="M40.736 56.063l2.242.711c-.343 1.25-.915 2.178-1.714 2.785-.8.607-1.814.91-3.043.91-1.521 0-2.771-.519-3.75-1.558-.98-1.039-1.469-2.46-1.469-4.262 0-1.906.492-3.387 1.476-4.441.985-1.055 2.279-1.582 3.883-1.582 1.401 0 2.539.414 3.414 1.242.521.489.912 1.192 1.172 2.109l-2.289.547c-.135-.594-.418-1.062-.848-1.406-.429-.344-.951-.516-1.566-.516-.849 0-1.538.305-2.066.914-.529.61-.793 1.597-.793 2.961 0 1.448.26 2.479.781 3.094.521.614 1.198.922 2.031.922a2.32 2.32 0 001.586-.586c.443-.391.76-1.005.953-1.844zM44.439 56.008c0-.729.18-1.435.539-2.117a3.703 3.703 0 011.528-1.562c.659-.36 1.394-.539 2.207-.539 1.255 0 2.284.407 3.086 1.222s1.203 1.845 1.203 3.09c0 1.255-.405 2.296-1.215 3.121-.81.826-1.829 1.239-3.059 1.239-.76 0-1.485-.172-2.175-.516a3.54 3.54 0 01-1.575-1.512c-.359-.664-.539-1.472-.539-2.426zm2.25.118c0 .822.196 1.453.586 1.89.391.438.873.656 1.446.656.572 0 1.053-.218 1.441-.656.388-.437.582-1.073.582-1.906 0-.813-.194-1.438-.582-1.875a1.849 1.849 0 00-1.441-.656c-.573 0-1.055.218-1.446.656-.39.437-.586 1.068-.586 1.891zM62.267 60.274h-2.195V56.04c0-.896-.047-1.476-.14-1.739a1.222 1.222 0 00-.458-.613 1.3 1.3 0 00-.761-.219c-.38 0-.722.104-1.024.313a1.572 1.572 0 00-.621.828c-.112.344-.168.979-.168 1.906v3.758h-2.195v-8.297h2.039v1.219c.724-.938 1.635-1.406 2.734-1.406.485 0 .927.087 1.329.261.401.175.704.397.91.668.205.271.349.578.429.922.081.344.121.836.121 1.477v5.156zM68.299 51.977v1.75h-1.5v3.344c0 .677.014 1.071.043 1.183a.479.479 0 00.195.278.619.619 0 00.371.109c.203 0 .497-.07.883-.211l.187 1.703c-.51.219-1.088.329-1.734.329-.396 0-.753-.067-1.07-.2-.318-.133-.551-.304-.7-.515-.148-.211-.251-.496-.308-.856-.047-.255-.07-.771-.07-1.547v-3.617h-1.008v-1.75h1.008v-1.648l2.203-1.282v2.93h1.5zM74.627 57.633l2.187.368c-.281.802-.725 1.412-1.332 1.832-.606.419-1.366.629-2.277.629-1.443 0-2.51-.472-3.203-1.415-.547-.755-.82-1.708-.82-2.859 0-1.375.359-2.452 1.078-3.23.718-.779 1.627-1.168 2.726-1.168 1.235 0 2.209.407 2.922 1.222.714.815 1.055 2.064 1.024 3.746h-5.5c.015.651.192 1.158.531 1.52.338.362.76.543 1.265.543.344 0 .633-.094.868-.281.234-.188.411-.49.531-.907zm.125-2.218c-.016-.636-.18-1.119-.492-1.45a1.514 1.514 0 00-1.141-.496c-.479 0-.875.175-1.187.524-.313.349-.467.823-.461 1.422h3.281zM77.666 60.274l2.992-4.273-2.867-4.024h2.68l1.468 2.281 1.547-2.281h2.578l-2.812 3.93 3.07 4.367h-2.695l-1.688-2.57-1.703 2.57h-2.57zM91.424 51.977v1.75h-1.5v3.344c0 .677.014 1.071.043 1.183a.479.479 0 00.195.278.619.619 0 00.371.109c.203 0 .497-.07.883-.211l.187 1.703c-.51.219-1.088.329-1.734.329-.396 0-.753-.067-1.07-.2-.318-.133-.551-.304-.7-.515-.148-.211-.251-.496-.308-.856-.047-.255-.07-.771-.07-1.547v-3.617h-1.008v-1.75h1.008v-1.648l2.203-1.282v2.93h1.5z"/></g><path fill="#c0ffc0" fill-rule="nonzero" d="M251 40.75h200v120H251z"/><path fill="none" stroke="#0f0" stroke-width="2" d="M251 40.75h200v120H251z"/><g fill-rule="nonzero"><path d="M265.925 99.868h4.641v1.188h-4.641zM290.652 104.587a5.578 5.578 0 01-2.336.484c-1.281 0-2.303-.389-3.066-1.168-.763-.779-1.145-1.814-1.145-3.105 0-1.292.384-2.327 1.152-3.106.769-.779 1.778-1.168 3.028-1.168a6.4 6.4 0 012.336.43l-.321 1.008c-.739-.256-1.406-.383-2-.383-.895 0-1.605.289-2.128.867-.524.578-.786 1.362-.786 2.352 0 .906.271 1.667.813 2.285.542.617 1.247.925 2.117.925.688 0 1.396-.132 2.125-.398l.211.977zM300.527 100.829h-5.586c0 .922.267 1.682.801 2.281.534.599 1.189.898 1.965.898a7.13 7.13 0 002.289-.398l.211.977c-.719.322-1.558.484-2.516.484-1.208 0-2.182-.388-2.922-1.164-.739-.776-1.109-1.823-1.109-3.141 0-1.291.332-2.321.996-3.09.664-.768 1.522-1.152 2.574-1.152.938 0 1.721.357 2.352 1.07.63.714.945 1.664.945 2.852v.383zm-1.328-.992c0-.636-.198-1.171-.594-1.606-.396-.435-.838-.652-1.328-.652-.63 0-1.152.208-1.566.625-.414.416-.645.961-.692 1.633h4.18zM309.886 104.86h-1.218v-5.219c0-.724-.116-1.248-.348-1.574-.232-.325-.595-.488-1.09-.488-.745 0-1.544.463-2.398 1.39v5.891h-1.219v-8.141h1.219v1.196c.875-.927 1.797-1.391 2.765-1.391 1.526 0 2.289.922 2.289 2.766v5.57zM318.636 97.883c-.682-.224-1.325-.335-1.929-.335-.662 0-1.185.11-1.571.332-.385.221-.578.516-.578.886 0 .235.089.439.266.614.177.174.531.337 1.062.488l1.164.336c.537.151.974.332 1.313.543.338.211.592.466.762.765.169.3.254.647.254 1.043 0 .776-.326 1.39-.977 1.84-.651.451-1.479.676-2.484.676-1 0-1.826-.151-2.477-.453l.234-1.055a5.072 5.072 0 002.196.485c.677 0 1.228-.127 1.652-.379.425-.253.637-.588.637-1.004 0-.282-.106-.533-.317-.754-.211-.222-.707-.452-1.488-.692a89.044 89.044 0 01-1.39-.433 2.924 2.924 0 01-.829-.426 1.898 1.898 0 01-.582-.672 1.907 1.907 0 01-.199-.875c0-.703.307-1.26.922-1.672.615-.411 1.43-.617 2.445-.617.657 0 1.386.112 2.188.336l-.274 1.023zM325.933 96.524c1.12 0 2.011.391 2.672 1.172.662.781.992 1.81.992 3.086 0 1.286-.33 2.323-.992 3.109-.661.787-1.552 1.18-2.672 1.18-1.125 0-2.017-.392-2.676-1.176-.658-.784-.988-1.821-.988-3.113 0-1.281.331-2.311.992-3.09.662-.779 1.552-1.168 2.672-1.168zm0 7.484c.74 0 1.323-.312 1.75-.937.427-.625.641-1.383.641-2.273 0-.938-.211-1.709-.633-2.313-.422-.604-1.008-.906-1.758-.906-.755 0-1.341.298-1.758.894-.416.597-.625 1.371-.625 2.325 0 .906.211 1.667.633 2.285.422.617 1.005.925 1.75.925zM338.816 96.938l-.492 1.172c-.537-.234-1-.352-1.391-.352-.359 0-.711.103-1.054.309a3.38 3.38 0 00-.95.883c-.289.383-.433.598-.433.644v5.266h-1.211v-8.141h1.211v1.649c.651-1.229 1.495-1.844 2.531-1.844.615 0 1.211.138 1.789.414zM340.34 107.321h9.602v1.023h-9.602zM355.269 93.641c.229 0 .425.082.586.246a.81.81 0 01.242.59.824.824 0 01-.828.844.768.768 0 01-.566-.254.822.822 0 010-1.176.775.775 0 01.566-.25zm.594 11.219h-1.219v-7.086h-2.398v-1.055h3.617v8.141zM362.441 97.774a2.934 2.934 0 011.098-.906 3.232 3.232 0 011.457-.344c.937 0 1.673.387 2.207 1.16.534.774.801 1.78.801 3.02 0 1.25-.28 2.29-.84 3.121-.56.831-1.314 1.246-2.262 1.246-.505 0-.978-.126-1.418-.379a2.88 2.88 0 01-1.043-1.004v4.391h-1.219v-11.36h1.219v1.055zm0 1.211v3.383c.229.458.539.841.93 1.148.39.308.794.461 1.211.461.656 0 1.178-.307 1.566-.922.388-.614.582-1.377.582-2.289 0-.937-.185-1.703-.555-2.297-.369-.593-.885-.89-1.546-.89-.86 0-1.589.469-2.188 1.406zM376.629 106.493l-.477.672c-1.161-.881-2.047-1.904-2.656-3.071a7.861 7.861 0 01-.914-3.695c0-1.307.302-2.54.906-3.699.604-1.159 1.492-2.179 2.664-3.059l.477.672c-.954.854-1.64 1.749-2.059 2.684-.419.935-.629 2.064-.629 3.386 0 1.37.218 2.523.652 3.457.435.935 1.114 1.819 2.036 2.653zM381.34 93.641c1.166.88 2.052 1.9 2.656 3.059a7.89 7.89 0 01.906 3.699 7.893 7.893 0 01-.91 3.695c-.607 1.167-1.491 2.19-2.652 3.071l-.485-.672c.953-.844 1.639-1.741 2.059-2.692.419-.95.629-2.089.629-3.418 0-1.369-.217-2.515-.649-3.437-.432-.922-1.112-1.8-2.039-2.633l.485-.672zM265.925 117.868h4.641v1.188h-4.641zM290.886 122.86h-1.211c-.099-.328-.148-.766-.148-1.312-.693 1.015-1.635 1.523-2.828 1.523-.604 0-1.137-.215-1.598-.645-.461-.429-.691-.983-.691-1.66 0-.401.081-.755.242-1.062.161-.308.398-.567.711-.778a3.841 3.841 0 011.141-.5 8.54 8.54 0 011.593-.253l1.368-.11v-.39c0-1.396-.652-2.094-1.954-2.094-.307 0-.696.066-1.168.199a5.96 5.96 0 00-1.214.473l-.321-.875c1.11-.568 2.141-.852 3.094-.852 1.854 0 2.781.982 2.781 2.945v3.5c0 .709.068 1.339.203 1.891zm-1.421-2.414v-1.477c-1.099.099-1.853.192-2.262.278a2.555 2.555 0 00-1.063.48c-.299.235-.449.552-.449.953 0 .365.128.659.383.883.255.224.581.336.976.336.433 0 .862-.129 1.29-.387a3.782 3.782 0 001.125-1.066zM300.254 122.86h-1.219v-1.172c-.25.401-.608.732-1.074.992a2.973 2.973 0 01-1.473.391c-.932 0-1.669-.415-2.211-1.246-.542-.831-.812-1.884-.812-3.16 0-1.193.282-2.181.847-2.965.565-.784 1.314-1.176 2.246-1.176 1.026 0 1.852.417 2.477 1.25v-3.937h1.219v11.023zm-1.219-2.492v-3.383c-.584-.937-1.287-1.406-2.11-1.406-.671 0-1.203.298-1.593.894-.391.597-.586 1.351-.586 2.262 0 .938.183 1.712.551 2.324.367.612.871.918 1.511.918.308 0 .617-.083.93-.25.312-.166.607-.416.883-.75.276-.333.414-.536.414-.609zM309.855 122.86h-1.219v-1.172c-.25.401-.608.732-1.074.992a2.97 2.97 0 01-1.472.391c-.933 0-1.67-.415-2.211-1.246-.542-.831-.813-1.884-.813-3.16 0-1.193.283-2.181.848-2.965.565-.784 1.314-1.176 2.246-1.176 1.026 0 1.851.417 2.476 1.25v-3.937h1.219v11.023zm-1.219-2.492v-3.383c-.583-.937-1.286-1.406-2.109-1.406-.672 0-1.203.298-1.594.894-.39.597-.586 1.351-.586 2.262 0 .938.184 1.712.551 2.324.367.612.871.918 1.512.918.307 0 .617-.083.93-.25.312-.166.606-.416.882-.75.276-.333.414-.536.414-.609zM311.535 125.321h9.602v1.023h-9.602zM329.168 122.493c-.818.375-1.623.562-2.414.562-1.454 0-2.18-.768-2.18-2.304v-4.977h-1.563v-1.055h1.563v-2.226h1.187v2.226h2.766v1.055h-2.766v4.656c0 .495.11.879.329 1.153.218.273.515.41.89.41.667 0 1.326-.149 1.977-.445l.211.945zM336.066 111.641c.229 0 .425.082.586.246a.813.813 0 01.242.59.824.824 0 01-.828.844.768.768 0 01-.566-.254.822.822 0 010-1.176.775.775 0 01.566-.25zm.594 11.219h-1.219v-7.086h-2.398v-1.055h3.617v8.141zM348.933 122.86h-1.218v-5.344c0-1.291-.24-1.937-.719-1.937-.245 0-.515.222-.809.668-.294.445-.441.691-.441.738v5.875h-1.211v-5.344c0-1.291-.242-1.937-.727-1.937-.239 0-.506.222-.801.668-.294.445-.441.691-.441.738v5.875h-1.219v-8.141h1.172v1.227c.229-.432.501-.777.817-1.035.315-.258.629-.387.941-.387.328 0 .622.129.883.387.26.258.44.603.539 1.035.229-.432.502-.777.82-1.035.318-.258.63-.387.938-.387.984 0 1.476.88 1.476 2.641v5.695zM358.136 118.829h-5.586c0 .922.267 1.682.801 2.281.534.599 1.189.898 1.965.898a7.12 7.12 0 002.289-.398l.211.977c-.719.322-1.557.484-2.516.484-1.208 0-2.182-.388-2.921-1.164-.74-.776-1.11-1.823-1.11-3.141 0-1.291.332-2.321.996-3.09.664-.768 1.522-1.152 2.575-1.152.937 0 1.721.357 2.351 1.07.63.714.945 1.664.945 2.852v.383zm-1.328-.992c0-.636-.198-1.171-.593-1.606-.396-.435-.839-.652-1.329-.652-.63 0-1.152.208-1.566.625-.414.416-.645.961-.691 1.633h4.179zM366.644 115.883c-.682-.224-1.325-.335-1.929-.335-.662 0-1.185.11-1.571.332-.385.221-.578.516-.578.886 0 .235.089.439.266.614.177.174.531.337 1.062.488l1.164.336c.537.151.974.332 1.313.543.338.211.592.466.761.765.17.3.254.647.254 1.043 0 .776-.325 1.39-.976 1.84-.651.451-1.479.676-2.485.676-1 0-1.825-.151-2.476-.453l.234-1.055a5.07 5.07 0 002.196.485c.677 0 1.227-.127 1.652-.379.424-.253.637-.588.637-1.004 0-.282-.106-.533-.317-.754-.211-.222-.707-.452-1.488-.692a93.67 93.67 0 01-1.391-.433 2.905 2.905 0 01-.828-.426 1.898 1.898 0 01-.582-.672 1.894 1.894 0 01-.199-.875c0-.703.307-1.26.922-1.672.614-.411 1.43-.617 2.445-.617.656 0 1.386.112 2.188.336l-.274 1.023zM377.175 122.493c-.817.375-1.622.562-2.414.562-1.453 0-2.179-.768-2.179-2.304v-4.977h-1.563v-1.055h1.563v-2.226h1.187v2.226h2.766v1.055h-2.766v4.656c0 .495.11.879.328 1.153.219.273.516.41.891.41a4.74 4.74 0 001.977-.445l.21.945zM386.902 122.86h-1.211c-.099-.328-.148-.766-.148-1.312-.693 1.015-1.636 1.523-2.828 1.523-.605 0-1.137-.215-1.598-.645-.461-.429-.692-.983-.692-1.66 0-.401.081-.755.243-1.062.161-.308.398-.567.711-.778a3.835 3.835 0 011.14-.5 8.552 8.552 0 011.594-.253l1.367-.11v-.39c0-1.396-.651-2.094-1.953-2.094-.307 0-.697.066-1.168.199s-.876.29-1.215.473l-.32-.875c1.109-.568 2.141-.852 3.094-.852 1.854 0 2.781.982 2.781 2.945v3.5c0 .709.068 1.339.203 1.891zm-1.422-2.414v-1.477c-1.099.099-1.853.192-2.262.278a2.55 2.55 0 00-1.062.48c-.3.235-.449.552-.449.953 0 .365.127.659.383.883.255.224.58.336.976.336.432 0 .862-.129 1.289-.387a3.782 3.782 0 001.125-1.066zM396.941 122.86h-1.219v-5.344c0-1.291-.239-1.937-.718-1.937-.245 0-.515.222-.809.668-.294.445-.441.691-.441.738v5.875h-1.211v-5.344c0-1.291-.243-1.937-.727-1.937-.24 0-.506.222-.801.668-.294.445-.441.691-.441.738v5.875h-1.219v-8.141h1.172v1.227a3.33 3.33 0 01.816-1.035c.316-.258.629-.387.942-.387.328 0 .622.129.883.387.26.258.44.603.539 1.035.229-.432.502-.777.82-1.035.318-.258.63-.387.938-.387.984 0 1.476.88 1.476 2.641v5.695zM400.847 115.774a2.934 2.934 0 011.098-.906 3.235 3.235 0 011.457-.344c.938 0 1.673.387 2.207 1.16.534.774.801 1.78.801 3.02 0 1.25-.28 2.29-.84 3.121-.56.831-1.314 1.246-2.262 1.246-.505 0-.978-.126-1.418-.379a2.889 2.889 0 01-1.043-1.004v4.391h-1.218v-11.36h1.218v1.055zm0 1.211v3.383c.229.458.539.841.93 1.148.391.308.794.461 1.211.461.656 0 1.178-.307 1.566-.922.388-.614.582-1.377.582-2.289 0-.937-.185-1.703-.554-2.297-.37-.593-.886-.89-1.547-.89-.86 0-1.589.469-2.188 1.406zM415.035 124.493l-.477.672c-1.161-.881-2.047-1.904-2.656-3.071a7.873 7.873 0 01-.914-3.695c0-1.307.302-2.54.906-3.699.604-1.159 1.492-2.179 2.664-3.059l.477.672c-.953.854-1.64 1.749-2.059 2.684-.419.935-.629 2.064-.629 3.386 0 1.37.218 2.523.653 3.457.435.935 1.113 1.819 2.035 2.653zM419.746 111.641c1.166.88 2.052 1.9 2.656 3.059a7.89 7.89 0 01.906 3.699 7.893 7.893 0 01-.91 3.695c-.607 1.167-1.491 2.19-2.652 3.071l-.485-.672c.954-.844 1.64-1.741 2.059-2.692.419-.95.629-2.089.629-3.418 0-1.369-.216-2.515-.649-3.437-.432-.922-1.112-1.8-2.039-2.633l.485-.672zM265.925 135.868h4.641v1.188h-4.641zM290.761 129.962l-.32.992c-.578-.167-1.096-.25-1.555-.25-.437 0-.738.123-.902.371-.164.247-.246.746-.246 1.496v.148h2.734v1.055h-2.734v7.086h-1.219v-7.086h-2.047v-1.055h2.047v-.273c0-1.037.177-1.763.531-2.18.355-.416.967-.625 1.836-.625.563 0 1.188.107 1.875.321zM297.129 132.524c1.119 0 2.01.391 2.671 1.172.662.781.993 1.81.993 3.086 0 1.286-.331 2.323-.993 3.109-.661.787-1.552 1.18-2.671 1.18-1.125 0-2.017-.392-2.676-1.176-.659-.784-.988-1.821-.988-3.113 0-1.281.33-2.311.992-3.09.661-.779 1.552-1.168 2.672-1.168zm0 7.484c.739 0 1.322-.312 1.75-.937.427-.625.64-1.383.64-2.273 0-.938-.211-1.709-.633-2.313-.421-.604-1.007-.906-1.757-.906-.756 0-1.342.298-1.758.894-.417.597-.625 1.371-.625 2.325 0 .906.211 1.667.633 2.285.421.617 1.005.925 1.75.925zM310.011 132.938l-.492 1.172c-.536-.234-1-.352-1.39-.352-.36 0-.711.103-1.055.309-.344.206-.66.5-.949.883-.289.383-.434.598-.434.644v5.266h-1.211v-8.141h1.211v1.649c.651-1.229 1.495-1.844 2.531-1.844.615 0 1.211.138 1.789.414zM320.129 140.86h-1.219v-5.344c0-1.291-.24-1.937-.719-1.937-.245 0-.514.222-.809.668-.294.445-.441.691-.441.738v5.875h-1.211v-5.344c0-1.291-.242-1.937-.726-1.937-.24 0-.507.222-.801.668-.294.445-.442.691-.442.738v5.875h-1.218v-8.141h1.172v1.227a3.33 3.33 0 01.816-1.035c.315-.258.629-.387.941-.387.328 0 .623.129.883.387.261.258.44.603.539 1.035.229-.432.503-.777.821-1.035.317-.258.63-.387.937-.387.984 0 1.477.88 1.477 2.641v5.695zM329.293 140.86h-1.211c-.099-.328-.149-.766-.149-1.312-.692 1.015-1.635 1.523-2.828 1.523-.604 0-1.137-.215-1.598-.645-.46-.429-.691-.983-.691-1.66 0-.401.081-.755.242-1.062.162-.308.399-.567.711-.778a3.852 3.852 0 011.141-.5 8.552 8.552 0 011.594-.253l1.367-.11v-.39c0-1.396-.651-2.094-1.953-2.094-.308 0-.697.066-1.168.199-.472.133-.877.29-1.215.473l-.32-.875c1.109-.568 2.14-.852 3.093-.852 1.854 0 2.782.982 2.782 2.945v3.5c0 .709.067 1.339.203 1.891zm-1.422-2.414v-1.477c-1.099.099-1.853.192-2.262.278a2.545 2.545 0 00-1.062.48c-.3.235-.45.552-.45.953 0 .365.128.659.383.883.255.224.581.336.977.336.432 0 .862-.129 1.289-.387a3.782 3.782 0 001.125-1.066zM338.769 140.493c-.818.375-1.622.562-2.414.562-1.453 0-2.18-.768-2.18-2.304v-4.977h-1.562v-1.055h1.562v-2.226h1.188v2.226h2.766v1.055h-2.766v4.656c0 .495.109.879.328 1.153.219.273.516.41.891.41.666 0 1.325-.149 1.976-.445l.211.945zM340.34 143.321h9.602v1.023h-9.602zM357.972 140.493c-.817.375-1.622.562-2.414.562-1.453 0-2.179-.768-2.179-2.304v-4.977h-1.563v-1.055h1.563v-2.226h1.187v2.226h2.766v1.055h-2.766v4.656c0 .495.109.879.328 1.153.219.273.516.41.891.41.666 0 1.325-.149 1.976-.445l.211.945zM364.34 132.524c1.119 0 2.01.391 2.671 1.172.662.781.993 1.81.993 3.086 0 1.286-.331 2.323-.993 3.109-.661.787-1.552 1.18-2.671 1.18-1.125 0-2.017-.392-2.676-1.176-.659-.784-.989-1.821-.989-3.113 0-1.281.331-2.311.993-3.09.661-.779 1.552-1.168 2.672-1.168zm0 7.484c.739 0 1.322-.312 1.75-.937.427-.625.64-1.383.64-2.273 0-.938-.211-1.709-.633-2.313-.422-.604-1.007-.906-1.757-.906-.756 0-1.342.298-1.758.894-.417.597-.625 1.371-.625 2.325 0 .906.211 1.667.633 2.285.421.617 1.005.925 1.75.925zM369.144 143.321h9.602v1.023h-9.602zM384.074 129.641c.229 0 .424.082.586.246a.813.813 0 01.242.59.824.824 0 01-.828.844.77.77 0 01-.567-.254.822.822 0 010-1.176.777.777 0 01.567-.25zm.594 11.633c0 1.021-.176 1.744-.528 2.168-.351.425-.965.637-1.84.637-.562 0-1.187-.107-1.875-.321l.321-.992c.578.167 1.096.25 1.554.25.438 0 .739-.123.903-.371.164-.247.246-.746.246-1.496v-7.375h-2.399v-1.055h3.618v8.555zM395.449 133.883c-.682-.224-1.326-.335-1.93-.335-.661 0-1.185.11-1.57.332-.386.221-.578.516-.578.886 0 .235.088.439.265.614.177.174.532.337 1.063.488l1.164.336c.536.151.974.332 1.312.543.339.211.593.466.762.765.169.3.254.647.254 1.043 0 .776-.325 1.39-.976 1.84-.652.451-1.48.676-2.485.676-1 0-1.825-.151-2.476-.453l.234-1.055a5.065 5.065 0 002.195.485c.677 0 1.228-.127 1.653-.379.424-.253.636-.588.636-1.004 0-.282-.105-.533-.316-.754-.211-.222-.707-.452-1.488-.692a89.996 89.996 0 01-1.391-.433 2.905 2.905 0 01-.828-.426 1.898 1.898 0 01-.582-.672 1.894 1.894 0 01-.199-.875c0-.703.307-1.26.922-1.672.614-.411 1.429-.617 2.445-.617.656 0 1.385.112 2.187.336l-.273 1.023zM402.746 132.524c1.12 0 2.01.391 2.672 1.172.661.781.992 1.81.992 3.086 0 1.286-.331 2.323-.992 3.109-.662.787-1.552 1.18-2.672 1.18-1.125 0-2.017-.392-2.676-1.176-.659-.784-.988-1.821-.988-3.113 0-1.281.33-2.311.992-3.09.661-.779 1.552-1.168 2.672-1.168zm0 7.484c.739 0 1.323-.312 1.75-.937.427-.625.64-1.383.64-2.273 0-.938-.211-1.709-.632-2.313-.422-.604-1.008-.906-1.758-.906-.755 0-1.341.298-1.758.894-.417.597-.625 1.371-.625 2.325 0 .906.211 1.667.633 2.285.422.617 1.005.925 1.75.925zM415.504 140.86h-1.219v-5.219c0-.724-.116-1.248-.348-1.574-.232-.325-.595-.488-1.09-.488-.744 0-1.544.463-2.398 1.39v5.891h-1.219v-8.141h1.219v1.196c.875-.927 1.797-1.391 2.766-1.391 1.526 0 2.289.922 2.289 2.766v5.57zM424.636 142.493l-.476.672c-1.162-.881-2.047-1.904-2.656-3.071a7.861 7.861 0 01-.914-3.695c0-1.307.302-2.54.906-3.699.604-1.159 1.492-2.179 2.664-3.059l.476.672c-.953.854-1.639 1.749-2.058 2.684-.419.935-.629 2.064-.629 3.386 0 1.37.217 2.523.652 3.457.435.935 1.114 1.819 2.035 2.653zM429.347 129.641c1.167.88 2.052 1.9 2.657 3.059a7.89 7.89 0 01.906 3.699 7.905 7.905 0 01-.91 3.695c-.607 1.167-1.491 2.19-2.653 3.071l-.484-.672c.953-.844 1.639-1.741 2.059-2.692.419-.95.628-2.089.628-3.418 0-1.369-.216-2.515-.648-3.437-.432-.922-1.112-1.8-2.039-2.633l.484-.672z"/></g><g fill-rule="nonzero"><path d="M257.604 60.274V48.821h3.711c1.406 0 2.323.057 2.75.172.656.172 1.206.545 1.648 1.121.443.575.665 1.319.665 2.23 0 .703-.128 1.295-.383 1.774-.256.479-.58.855-.973 1.129a3.367 3.367 0 01-1.199.543c-.552.109-1.352.164-2.399.164h-1.507v4.32h-2.313zm2.313-9.516v3.25h1.265c.912 0 1.521-.06 1.828-.179.308-.12.548-.308.723-.563.174-.255.262-.552.262-.89 0-.417-.123-.761-.367-1.032a1.595 1.595 0 00-.93-.507c-.276-.053-.831-.079-1.664-.079h-1.117zM270.362 60.274h-2.195v-8.297h2.039v1.18c.349-.557.662-.925.941-1.102.279-.177.595-.265.949-.265.5 0 .982.138 1.446.414l-.68 1.914c-.37-.24-.714-.36-1.031-.36-.308 0-.568.085-.782.254-.213.17-.381.476-.504.918-.122.443-.183 1.37-.183 2.782v2.562zM273.979 56.008c0-.729.18-1.435.539-2.117a3.706 3.706 0 011.527-1.562c.659-.36 1.395-.539 2.208-.539 1.255 0 2.283.407 3.085 1.222.803.815 1.204 1.845 1.204 3.09 0 1.255-.405 2.296-1.215 3.121-.81.826-1.83 1.239-3.059 1.239-.76 0-1.486-.172-2.176-.516a3.543 3.543 0 01-1.574-1.512c-.359-.664-.539-1.472-.539-2.426zm2.25.118c0 .822.195 1.453.586 1.89a1.86 1.86 0 001.445.656 1.85 1.85 0 001.442-.656c.388-.437.582-1.073.582-1.906 0-.813-.194-1.438-.582-1.875a1.85 1.85 0 00-1.442-.656 1.86 1.86 0 00-1.445.656c-.391.437-.586 1.068-.586 1.891zM291.495 54.43l-2.164.391c-.073-.432-.239-.758-.496-.977-.258-.218-.593-.328-1.004-.328-.547 0-.983.189-1.309.567-.325.377-.488 1.009-.488 1.894 0 .985.165 1.68.496 2.086.331.406.775.609 1.332.609.417 0 .758-.118 1.023-.355.266-.237.453-.645.563-1.223l2.156.368c-.224.989-.654 1.736-1.289 2.242-.635.505-1.487.758-2.555.758-1.213 0-2.181-.383-2.902-1.149-.721-.766-1.082-1.825-1.082-3.18 0-1.369.362-2.436 1.086-3.199.724-.763 1.703-1.144 2.937-1.144 1.011 0 1.814.217 2.411.652.596.435 1.024 1.098 1.285 1.988zM297.963 57.633l2.188.368c-.281.802-.725 1.412-1.332 1.832-.607.419-1.366.629-2.277.629-1.443 0-2.511-.472-3.204-1.415-.546-.755-.82-1.708-.82-2.859 0-1.375.36-2.452 1.078-3.23.719-.779 1.628-1.168 2.727-1.168 1.234 0 2.208.407 2.922 1.222.713.815 1.054 2.064 1.023 3.746h-5.5c.016.651.193 1.158.531 1.52.339.362.761.543 1.266.543.344 0 .633-.094.867-.281.235-.188.412-.49.531-.907zm.125-2.218c-.015-.636-.179-1.119-.492-1.45a1.51 1.51 0 00-1.14-.496c-.48 0-.875.175-1.188.524-.312.349-.466.823-.461 1.422h3.281zM301.284 57.907l2.203-.336c.094.427.284.751.57.973.287.221.688.332 1.203.332.568 0 .995-.105 1.282-.313a.7.7 0 00.289-.586.572.572 0 00-.157-.414c-.109-.104-.354-.2-.734-.289-1.771-.391-2.893-.747-3.367-1.07-.656-.448-.985-1.071-.985-1.867 0-.719.284-1.323.852-1.813.568-.49 1.448-.734 2.641-.734 1.135 0 1.979.185 2.531.554.552.37.932.917 1.141 1.641l-2.071.383a1.271 1.271 0 00-.504-.742c-.247-.172-.6-.258-1.058-.258-.578 0-.992.08-1.242.242a.52.52 0 00-.25.445c0 .157.072.289.218.399.198.146.882.351 2.051.617s1.986.591 2.449.976c.459.391.688.935.688 1.633 0 .761-.318 1.414-.953 1.961-.636.547-1.576.821-2.821.821-1.13 0-2.024-.23-2.683-.688a3.166 3.166 0 01-1.293-1.867zM310.182 57.907l2.203-.336c.094.427.284.751.571.973.286.221.687.332 1.203.332.567 0 .995-.105 1.281-.313a.697.697 0 00.289-.586.576.576 0 00-.156-.414c-.11-.104-.354-.2-.735-.289-1.77-.391-2.893-.747-3.367-1.07-.656-.448-.984-1.071-.984-1.867 0-.719.284-1.323.851-1.813.568-.49 1.448-.734 2.641-.734 1.135 0 1.979.185 2.531.554.552.37.933.917 1.141 1.641l-2.07.383a1.28 1.28 0 00-.504-.742c-.248-.172-.601-.258-1.059-.258-.578 0-.992.08-1.242.242a.52.52 0 00-.25.445c0 .157.073.289.219.399.198.146.881.351 2.05.617 1.17.266 1.986.591 2.45.976.458.391.687.935.687 1.633 0 .761-.318 1.414-.953 1.961-.635.547-1.575.821-2.82.821-1.13 0-2.025-.23-2.684-.688a3.166 3.166 0 01-1.293-1.867zM319.346 56.008c0-.729.18-1.435.539-2.117a3.703 3.703 0 011.528-1.562c.659-.36 1.394-.539 2.207-.539 1.255 0 2.284.407 3.086 1.222s1.203 1.845 1.203 3.09c0 1.255-.405 2.296-1.215 3.121-.81.826-1.83 1.239-3.059 1.239-.76 0-1.485-.172-2.175-.516a3.54 3.54 0 01-1.575-1.512c-.359-.664-.539-1.472-.539-2.426zm2.25.118c0 .822.196 1.453.586 1.89.391.438.873.656 1.446.656.572 0 1.053-.218 1.441-.656.388-.437.582-1.073.582-1.906 0-.813-.194-1.438-.582-1.875a1.849 1.849 0 00-1.441-.656c-.573 0-1.055.218-1.446.656-.39.437-.586 1.068-.586 1.891zM331.729 60.274h-2.195v-8.297h2.039v1.18c.349-.557.663-.925.941-1.102.279-.177.595-.265.949-.265.5 0 .982.138 1.446.414l-.68 1.914c-.37-.24-.713-.36-1.031-.36-.307 0-.568.085-.781.254-.214.17-.382.476-.504.918-.123.443-.184 1.37-.184 2.782v2.562zM335.081 57.907l2.203-.336c.094.427.284.751.57.973.287.221.688.332 1.203.332.568 0 .995-.105 1.281-.313a.698.698 0 00.29-.586.576.576 0 00-.157-.414c-.109-.104-.354-.2-.734-.289-1.771-.391-2.893-.747-3.367-1.07-.657-.448-.985-1.071-.985-1.867 0-.719.284-1.323.852-1.813.568-.49 1.448-.734 2.641-.734 1.135 0 1.979.185 2.531.554.552.37.932.917 1.14 1.641l-2.07.383a1.271 1.271 0 00-.504-.742c-.247-.172-.6-.258-1.058-.258-.579 0-.993.08-1.243.242a.522.522 0 00-.25.445c0 .157.073.289.219.399.198.146.882.351 2.051.617s1.986.591 2.449.976c.458.391.688.935.688 1.633 0 .761-.318 1.414-.953 1.961-.636.547-1.576.821-2.821.821-1.13 0-2.025-.23-2.683-.688a3.166 3.166 0 01-1.293-1.867z"/></g><g><path fill="#ffffc0" fill-rule="nonzero" d="M476 40.75h200v120H476z"/><path fill="none" stroke="#fffc00" stroke-width="2" d="M476 40.75h200v120H476z"/><g fill-rule="nonzero"><path d="M495.886 122.86h-3.328v-9.969h-2.125v-1.054h3.344v9.968h2.109v1.055zM502.925 114.524c1.12 0 2.011.391 2.672 1.172.662.781.993 1.81.993 3.086 0 1.286-.331 2.323-.993 3.109-.661.787-1.552 1.18-2.672 1.18-1.125 0-2.016-.392-2.675-1.176-.659-.784-.989-1.821-.989-3.113 0-1.281.331-2.311.993-3.09.661-.779 1.552-1.168 2.671-1.168zm0 7.484c.74 0 1.323-.312 1.75-.937.428-.625.641-1.383.641-2.273 0-.938-.211-1.709-.633-2.313-.422-.604-1.008-.906-1.758-.906-.755 0-1.341.298-1.757.894-.417.597-.625 1.371-.625 2.325 0 .906.211 1.667.632 2.285.422.617 1.006.925 1.75.925zM511.668 119.79c-.761.369-1.141.695-1.141.976 0 .151.087.279.262.383.174.104.412.156.715.156l2.742-.078c.651 0 1.157.159 1.519.477.362.317.543.768.543 1.351 0 .922-.411 1.657-1.234 2.203-.823.547-1.784.821-2.883.821-.901 0-1.638-.189-2.211-.567-.573-.377-.859-.866-.859-1.464 0-.652.442-1.201 1.328-1.649-.734-.344-1.102-.766-1.102-1.266 0-.572.474-1.106 1.422-1.601a2.78 2.78 0 01-1.008-1.031 2.717 2.717 0 01-.351-1.336c0-.766.26-1.395.781-1.887s1.172-.738 1.953-.738c.563 0 1.071.117 1.524.351l2.414-.367v1.188h-1.555c.234.411.352.895.352 1.453 0 .739-.258 1.364-.774 1.875-.515.51-1.169.765-1.961.765a7.22 7.22 0 01-.476-.015zm.476-.93c.448 0 .814-.155 1.098-.465.284-.31.426-.715.426-1.215 0-.526-.138-.937-.414-1.234-.276-.297-.646-.445-1.11-.445-.432 0-.795.155-1.09.464-.294.31-.441.715-.441 1.215 0 .49.147.892.441 1.207.295.315.658.473 1.09.473zm.047 6.273c.802 0 1.486-.178 2.051-.535.565-.356.848-.798.848-1.324 0-.542-.402-.812-1.204-.812-.265 0-.724.015-1.375.046-.411.021-.734.032-.968.032-.115 0-.293.093-.536.281a2.483 2.483 0 00-.554.566c-.128.19-.192.387-.192.59 0 .318.177.59.532.817.354.226.82.339 1.398.339zM521.269 119.79c-.76.369-1.14.695-1.14.976 0 .151.087.279.261.383.175.104.413.156.715.156l2.742-.078c.651 0 1.158.159 1.52.477.362.317.543.768.543 1.351 0 .922-.412 1.657-1.235 2.203-.822.547-1.783.821-2.882.821-.901 0-1.638-.189-2.211-.567-.573-.377-.86-.866-.86-1.464 0-.652.443-1.201 1.328-1.649-.734-.344-1.101-.766-1.101-1.266 0-.572.474-1.106 1.422-1.601a2.766 2.766 0 01-1.36-2.367c0-.766.261-1.395.782-1.887.52-.492 1.172-.738 1.953-.738.562 0 1.07.117 1.523.351l2.414-.367v1.188h-1.554c.234.411.351.895.351 1.453a2.54 2.54 0 01-.773 1.875c-.516.51-1.17.765-1.961.765a7.23 7.23 0 01-.477-.015zm.477-.93c.448 0 .814-.155 1.097-.465.284-.31.426-.715.426-1.215 0-.526-.138-.937-.414-1.234-.276-.297-.646-.445-1.109-.445-.433 0-.796.155-1.09.464-.294.31-.441.715-.441 1.215 0 .49.147.892.441 1.207.294.315.657.473 1.09.473zm.047 6.273c.802 0 1.485-.178 2.05-.535.566-.356.848-.798.848-1.324 0-.542-.401-.812-1.203-.812a33.3 33.3 0 00-1.375.046c-.412.021-.734.032-.969.032-.114 0-.293.093-.535.281a2.51 2.51 0 00-.555.566 1.05 1.05 0 00-.191.59c0 .318.177.59.531.817.354.226.821.339 1.399.339zM532.261 111.641a.79.79 0 01.586.246.81.81 0 01.243.59.825.825 0 01-.829.844.768.768 0 01-.566-.254.822.822 0 010-1.176.775.775 0 01.566-.25zm.594 11.219h-1.219v-7.086h-2.398v-1.055h3.617v8.141zM544.488 122.86h-1.219v-5.219c0-.724-.116-1.248-.347-1.574-.232-.325-.596-.488-1.09-.488-.745 0-1.545.463-2.399 1.39v5.891h-1.218v-8.141h1.218v1.196c.875-.927 1.797-1.391 2.766-1.391 1.526 0 2.289.922 2.289 2.766v5.57zM550.074 119.79c-.761.369-1.141.695-1.141.976 0 .151.087.279.262.383.174.104.413.156.715.156l2.742-.078c.651 0 1.158.159 1.52.477.362.317.543.768.543 1.351 0 .922-.412 1.657-1.235 2.203-.823.547-1.784.821-2.883.821-.901 0-1.638-.189-2.211-.567-.573-.377-.859-.866-.859-1.464 0-.652.443-1.201 1.328-1.649-.734-.344-1.101-.766-1.101-1.266 0-.572.474-1.106 1.421-1.601a2.77 2.77 0 01-1.359-2.367c0-.766.26-1.395.781-1.887s1.172-.738 1.953-.738c.563 0 1.071.117 1.524.351l2.414-.367v1.188h-1.555c.235.411.352.895.352 1.453 0 .739-.258 1.364-.774 1.875-.515.51-1.169.765-1.961.765a7.22 7.22 0 01-.476-.015zm.476-.93c.448 0 .814-.155 1.098-.465.284-.31.426-.715.426-1.215 0-.526-.138-.937-.414-1.234-.276-.297-.646-.445-1.11-.445-.432 0-.795.155-1.089.464-.295.31-.442.715-.442 1.215 0 .49.147.892.442 1.207a1.43 1.43 0 001.089.473zm.047 6.273c.802 0 1.486-.178 2.051-.535.565-.356.848-.798.848-1.324 0-.542-.401-.812-1.203-.812a33.3 33.3 0 00-1.375.046c-.412.021-.735.032-.969.032-.115 0-.293.093-.535.281a2.51 2.51 0 00-.555.566c-.128.19-.191.387-.191.59 0 .318.177.59.531.817.354.226.82.339 1.398.339zM560.488 121.071c.276 0 .508.094.695.281a.944.944 0 01.282.696c0 .281-.096.522-.286.722a.915.915 0 01-.691.301.896.896 0 01-.68-.301 1.02 1.02 0 01-.281-.722.948.948 0 01.961-.977zM573.34 122.86h-6v-11.023h1.281v9.906h4.719v1.117zM579.738 114.524c1.12 0 2.01.391 2.672 1.172.661.781.992 1.81.992 3.086 0 1.286-.331 2.323-.992 3.109-.662.787-1.552 1.18-2.672 1.18-1.125 0-2.017-.392-2.676-1.176-.659-.784-.988-1.821-.988-3.113 0-1.281.331-2.311.992-3.09.662-.779 1.552-1.168 2.672-1.168zm0 7.484c.74 0 1.323-.312 1.75-.937.427-.625.641-1.383.641-2.273 0-.938-.211-1.709-.633-2.313-.422-.604-1.008-.906-1.758-.906-.755 0-1.341.298-1.758.894-.417.597-.625 1.371-.625 2.325 0 .906.211 1.667.633 2.285.422.617 1.005.925 1.75.925zM588.48 119.79c-.76.369-1.14.695-1.14.976 0 .151.087.279.261.383.175.104.413.156.715.156l2.742-.078c.651 0 1.158.159 1.52.477.362.317.543.768.543 1.351 0 .922-.412 1.657-1.235 2.203-.823.547-1.783.821-2.882.821-.901 0-1.638-.189-2.211-.567-.573-.377-.86-.866-.86-1.464 0-.652.443-1.201 1.328-1.649-.734-.344-1.101-.766-1.101-1.266 0-.572.474-1.106 1.422-1.601a2.766 2.766 0 01-1.36-2.367c0-.766.261-1.395.782-1.887.52-.492 1.171-.738 1.953-.738.562 0 1.07.117 1.523.351l2.414-.367v1.188h-1.554c.234.411.351.895.351 1.453a2.54 2.54 0 01-.773 1.875c-.516.51-1.17.765-1.961.765a7.23 7.23 0 01-.477-.015zm.477-.93c.448 0 .813-.155 1.097-.465.284-.31.426-.715.426-1.215 0-.526-.138-.937-.414-1.234-.276-.297-.646-.445-1.109-.445-.433 0-.796.155-1.09.464-.294.31-.442.715-.442 1.215 0 .49.148.892.442 1.207.294.315.657.473 1.09.473zm.047 6.273c.802 0 1.485-.178 2.05-.535.565-.356.848-.798.848-1.324 0-.542-.401-.812-1.203-.812a33.3 33.3 0 00-1.375.046c-.412.021-.734.032-.969.032-.114 0-.293.093-.535.281a2.51 2.51 0 00-.555.566 1.05 1.05 0 00-.191.59c0 .318.177.59.531.817.354.226.82.339 1.399.339zM598.082 119.79c-.761.369-1.141.695-1.141.976 0 .151.087.279.262.383.174.104.413.156.715.156l2.742-.078c.651 0 1.157.159 1.519.477.362.317.543.768.543 1.351 0 .922-.411 1.657-1.234 2.203-.823.547-1.784.821-2.883.821-.901 0-1.638-.189-2.211-.567-.573-.377-.859-.866-.859-1.464 0-.652.443-1.201 1.328-1.649-.734-.344-1.102-.766-1.102-1.266 0-.572.474-1.106 1.422-1.601a2.78 2.78 0 01-1.008-1.031 2.717 2.717 0 01-.351-1.336c0-.766.26-1.395.781-1.887s1.172-.738 1.953-.738c.563 0 1.071.117 1.524.351l2.414-.367v1.188h-1.555c.234.411.352.895.352 1.453 0 .739-.258 1.364-.774 1.875-.515.51-1.169.765-1.961.765a7.22 7.22 0 01-.476-.015zm.476-.93c.448 0 .814-.155 1.098-.465.284-.31.426-.715.426-1.215 0-.526-.138-.937-.414-1.234-.276-.297-.646-.445-1.11-.445-.432 0-.795.155-1.09.464-.294.31-.441.715-.441 1.215 0 .49.147.892.441 1.207.295.315.658.473 1.09.473zm.047 6.273c.802 0 1.486-.178 2.051-.535.565-.356.848-.798.848-1.324 0-.542-.401-.812-1.204-.812-.265 0-.724.015-1.375.046-.411.021-.734.032-.968.032-.115 0-.293.093-.535.281a2.469 2.469 0 00-.555.566c-.128.19-.192.387-.192.59 0 .318.178.59.532.817.354.226.82.339 1.398.339zM611.941 118.829h-5.586c0 .922.267 1.682.801 2.281.534.599 1.189.898 1.965.898a7.13 7.13 0 002.289-.398l.211.977c-.719.322-1.558.484-2.516.484-1.208 0-2.182-.388-2.922-1.164-.739-.776-1.109-1.823-1.109-3.141 0-1.291.332-2.321.996-3.09.664-.768 1.522-1.152 2.574-1.152.938 0 1.722.357 2.352 1.07.63.714.945 1.664.945 2.852v.383zm-1.328-.992c0-.636-.198-1.171-.594-1.606-.396-.435-.838-.652-1.328-.652-.63 0-1.152.208-1.566.625-.414.416-.645.961-.692 1.633h4.18zM621.425 114.938l-.492 1.172c-.536-.234-1-.352-1.39-.352-.36 0-.711.103-1.055.309-.344.206-.66.5-.949.883-.289.383-.434.598-.434.644v5.266h-1.211v-8.141h1.211v1.649c.651-1.229 1.495-1.844 2.531-1.844.615 0 1.211.138 1.789.414z"/></g><g fill-rule="nonzero"><path d="M485 60.274l-2.734-11.453h2.367l1.726 7.867 2.094-7.867h2.75l2.008 8 1.758-8h2.328l-2.781 11.453h-2.453l-2.282-8.562-2.273 8.562H485zM500.274 60.274h-2.196v-8.297h2.039v1.18c.349-.557.663-.925.942-1.102a1.73 1.73 0 01.949-.265c.5 0 .982.138 1.445.414l-.679 1.914c-.37-.24-.714-.36-1.032-.36a1.22 1.22 0 00-.781.254c-.214.17-.382.476-.504.918-.122.443-.183 1.37-.183 2.782v2.562zM506.039 54.508l-1.992-.359c.224-.802.609-1.396 1.156-1.781.547-.386 1.36-.578 2.438-.578.979 0 1.708.116 2.187.347.479.232.817.526 1.012.883.195.357.293 1.012.293 1.965l-.024 2.562c0 .73.036 1.267.106 1.614.07.346.202.717.394 1.113h-2.171a7.722 7.722 0 01-.211-.648 4.536 4.536 0 00-.078-.258 3.966 3.966 0 01-1.204.82 3.448 3.448 0 01-1.367.274c-.854 0-1.527-.232-2.019-.696-.493-.463-.739-1.049-.739-1.758 0-.468.112-.886.336-1.254.224-.367.538-.648.942-.843.403-.196.985-.366 1.746-.512 1.026-.193 1.737-.372 2.133-.539v-.219c0-.422-.105-.722-.313-.902-.208-.18-.601-.27-1.18-.27-.39 0-.695.077-.914.231-.218.153-.395.423-.531.808zm2.938 1.782c-.282.093-.727.205-1.336.336-.61.13-1.008.257-1.196.382-.286.204-.429.461-.429.774 0 .307.114.573.343.797.23.224.521.336.875.336.396 0 .774-.131 1.133-.391.266-.198.44-.44.524-.727.057-.187.086-.544.086-1.07v-.437zM513.234 51.977h2.047v1.219a3.07 3.07 0 011.078-1.016c.454-.26.956-.39 1.508-.39.964 0 1.782.377 2.453 1.132.672.756 1.008 1.808 1.008 3.157 0 1.385-.338 2.462-1.015 3.23-.678.768-1.498 1.153-2.461 1.153-.459 0-.874-.092-1.246-.274-.373-.182-.765-.495-1.176-.937v4.179h-2.196V51.977zm2.172 4.008c0 .932.185 1.621.555 2.066.37.446.82.668 1.352.668.51 0 .934-.204 1.273-.613.339-.409.508-1.079.508-2.012 0-.869-.175-1.515-.524-1.937-.349-.422-.781-.633-1.296-.633-.537 0-.982.207-1.336.621-.355.414-.532 1.027-.532 1.84zM523.008 51.977h2.047v1.219a3.061 3.061 0 011.078-1.016c.453-.26.956-.39 1.508-.39.963 0 1.781.377 2.453 1.132.672.756 1.008 1.808 1.008 3.157 0 1.385-.339 2.462-1.016 3.23-.677.768-1.497 1.153-2.461 1.153a2.8 2.8 0 01-1.246-.274c-.372-.182-.764-.495-1.176-.937v4.179h-2.195V51.977zm2.172 4.008c0 .932.185 1.621.554 2.066.37.446.821.668 1.352.668.51 0 .935-.204 1.273-.613.339-.409.508-1.079.508-2.012 0-.869-.174-1.515-.523-1.937-.349-.422-.781-.633-1.297-.633-.537 0-.982.207-1.336.621-.354.414-.531 1.027-.531 1.84zM537.649 57.633l2.187.368c-.281.802-.725 1.412-1.332 1.832-.607.419-1.366.629-2.277.629-1.443 0-2.511-.472-3.203-1.415-.547-.755-.821-1.708-.821-2.859 0-1.375.36-2.452 1.078-3.23.719-.779 1.628-1.168 2.727-1.168 1.234 0 2.208.407 2.922 1.222.713.815 1.054 2.064 1.023 3.746h-5.5c.016.651.193 1.158.531 1.52.339.362.761.543 1.266.543.344 0 .633-.094.867-.281.235-.188.412-.49.532-.907zm.125-2.218c-.016-.636-.18-1.119-.493-1.45a1.51 1.51 0 00-1.14-.496c-.479 0-.875.175-1.188.524-.312.349-.466.823-.461 1.422h3.282zM549.352 60.274h-2.039v-1.219c-.339.474-.739.827-1.2 1.059a3.072 3.072 0 01-1.394.348c-.953 0-1.77-.385-2.449-1.153-.68-.768-1.02-1.84-1.02-3.215 0-1.406.331-2.475.992-3.207.662-.731 1.498-1.097 2.508-1.097.927 0 1.729.385 2.406 1.156v-4.125h2.196v11.453zm-5.86-4.328c0 .885.123 1.526.367 1.922.355.573.849.859 1.485.859.505 0 .935-.215 1.289-.644.354-.43.531-1.072.531-1.926 0-.953-.172-1.64-.515-2.059a1.633 1.633 0 00-1.321-.629c-.521 0-.957.207-1.308.621-.352.414-.528 1.033-.528 1.856zM556.039 60.274V48.915h2.313v9.429h5.75v1.93h-8.063zM565.227 56.008c0-.729.179-1.435.539-2.117a3.695 3.695 0 011.527-1.562c.659-.36 1.395-.539 2.207-.539 1.255 0 2.284.407 3.086 1.222s1.203 1.845 1.203 3.09c0 1.255-.405 2.296-1.215 3.121-.81.826-1.829 1.239-3.058 1.239a4.814 4.814 0 01-2.176-.516 3.537 3.537 0 01-1.574-1.512c-.36-.664-.539-1.472-.539-2.426zm2.25.118c0 .822.195 1.453.586 1.89.39.438.872.656 1.445.656.573 0 1.053-.218 1.441-.656.388-.437.582-1.073.582-1.906 0-.813-.194-1.438-.582-1.875a1.847 1.847 0 00-1.441-.656c-.573 0-1.055.218-1.445.656-.391.437-.586 1.068-.586 1.891zM575.305 60.821l2.508.305c.041.291.138.492.289.601.208.156.536.235.984.235.573 0 1.003-.086 1.289-.258.193-.115.339-.3.438-.555.067-.182.101-.518.101-1.008V58.93c-.656.896-1.484 1.344-2.484 1.344-1.115 0-1.998-.471-2.649-1.414-.51-.745-.765-1.672-.765-2.781 0-1.391.334-2.453 1.004-3.188.669-.734 1.501-1.101 2.496-1.101 1.026 0 1.872.45 2.539 1.351v-1.164h2.054v7.445c0 .98-.08 1.711-.242 2.196-.161.484-.388.864-.679 1.14-.292.276-.681.493-1.168.649-.487.156-1.103.234-1.848.234-1.406 0-2.404-.241-2.992-.722-.589-.482-.883-1.093-.883-1.832 0-.073.003-.162.008-.266zm1.961-4.867c0 .88.17 1.524.511 1.933.342.409.762.614 1.262.614.537 0 .99-.21 1.36-.629.369-.42.554-1.041.554-1.864 0-.859-.177-1.497-.531-1.914a1.69 1.69 0 00-1.344-.625c-.526 0-.959.205-1.301.614-.341.408-.511 1.032-.511 1.871zM585.078 60.821l2.508.305c.042.291.138.492.289.601.208.156.537.235.984.235.573 0 1.003-.086 1.29-.258.192-.115.338-.3.437-.555.068-.182.102-.518.102-1.008V58.93c-.657.896-1.485 1.344-2.485 1.344-1.114 0-1.997-.471-2.648-1.414-.511-.745-.766-1.672-.766-2.781 0-1.391.335-2.453 1.004-3.188.669-.734 1.501-1.101 2.496-1.101 1.026 0 1.873.45 2.539 1.351v-1.164h2.055v7.445c0 .98-.081 1.711-.242 2.196-.162.484-.388.864-.68 1.14-.292.276-.681.493-1.168.649-.487.156-1.103.234-1.848.234-1.406 0-2.403-.241-2.992-.722-.588-.482-.883-1.093-.883-1.832 0-.073.003-.162.008-.266zm1.961-4.867c0 .88.171 1.524.512 1.933.341.409.762.614 1.262.614.536 0 .989-.21 1.359-.629.37-.42.555-1.041.555-1.864 0-.859-.177-1.497-.532-1.914a1.69 1.69 0 00-1.343-.625c-.526 0-.96.205-1.301.614-.341.408-.512 1.032-.512 1.871zM599.859 57.633l2.188.368c-.281.802-.725 1.412-1.332 1.832-.607.419-1.366.629-2.277.629-1.443 0-2.511-.472-3.204-1.415-.546-.755-.82-1.708-.82-2.859 0-1.375.36-2.452 1.078-3.23.719-.779 1.628-1.168 2.727-1.168 1.234 0 2.208.407 2.922 1.222.713.815 1.054 2.064 1.023 3.746h-5.5c.016.651.193 1.158.531 1.52.339.362.761.543 1.266.543.344 0 .633-.094.867-.281.235-.188.412-.49.531-.907zm.125-2.218c-.015-.636-.179-1.119-.492-1.45a1.51 1.51 0 00-1.14-.496c-.48 0-.875.175-1.188.524-.312.349-.466.823-.461 1.422h3.281zM606.055 60.274h-2.196v-8.297h2.04v1.18c.348-.557.662-.925.941-1.102.279-.177.595-.265.949-.265.5 0 .982.138 1.445.414l-.679 1.914c-.37-.24-.714-.36-1.031-.36-.308 0-.568.085-.782.254-.213.17-.381.476-.504.918-.122.443-.183 1.37-.183 2.782v2.562z"/></g></g></svg>
