<?xml version="1.0" encoding="UTF-8" standalone="no"?>
<!DOCTYPE svg PUBLIC "-//W3C//DTD SVG 1.1//EN" "http://www.w3.org/Graphics/SVG/1.1/DTD/svg11.dtd">
<svg width="100%" height="100%" viewBox="0 0 1200 300" version="1.1" xmlns="http://www.w3.org/2000/svg" xmlns:xlink="http://www.w3.org/1999/xlink" xml:space="preserve" xmlns:serif="http://www.serif.com/" style="fill-rule:evenodd;clip-rule:evenodd;stroke-linejoin:round;stroke-miterlimit:2;">
    <g transform="matrix(1,0,0,1,-56.4366,-109.101)">
        <g transform="matrix(1,0,0,1,-150.713,14.5087)">
            <g transform="matrix(141.667,0,0,141.667,608.477,270.007)">
                <path d="M0.302,0.009C0.483,0.009 0.537,-0.027 0.537,-0.149C0.537,-0.245 0.493,-0.285 0.345,-0.318C0.226,-0.345 0.191,-0.358 0.191,-0.38C0.191,-0.42 0.216,-0.432 0.299,-0.432C0.378,-0.432 0.402,-0.419 0.405,-0.373L0.525,-0.373C0.524,-0.498 0.473,-0.535 0.3,-0.535C0.123,-0.535 0.07,-0.5 0.07,-0.381C0.07,-0.289 0.117,-0.254 0.274,-0.225C0.382,-0.205 0.414,-0.188 0.414,-0.148C0.414,-0.105 0.388,-0.093 0.302,-0.094C0.214,-0.095 0.187,-0.113 0.186,-0.172L0.063,-0.172C0.059,-0.032 0.114,0.009 0.302,0.009Z" style="fill:rgb(183,68,32);fill-rule:nonzero;"/>
            </g>
            <g transform="matrix(141.667,0,0,141.667,693.477,270.007)">
                <path d="M0.365,0.011C0.402,0.011 0.46,0.006 0.524,-0.002L0.524,-0.107C0.469,-0.099 0.432,-0.095 0.399,-0.095C0.322,-0.095 0.313,-0.113 0.313,-0.171L0.313,-0.419L0.508,-0.419L0.508,-0.522L0.313,-0.522L0.313,-0.677L0.197,-0.628L0.197,-0.522L0.088,-0.522L0.064,-0.419L0.193,-0.419L0.193,-0.167C0.193,-0.048 0.218,0.011 0.365,0.011Z" style="fill:rgb(183,68,32);fill-rule:nonzero;"/>
            </g>
            <g transform="matrix(141.667,0,0,141.667,778.477,270.007)">
                <path d="M0.132,-0L0.252,-0L0.252,-0.257C0.252,-0.32 0.307,-0.395 0.348,-0.401C0.385,-0.406 0.443,-0.408 0.499,-0.405L0.499,-0.525C0.469,-0.526 0.414,-0.527 0.401,-0.527C0.315,-0.527 0.315,-0.527 0.248,-0.415L0.237,-0.415L0.242,-0.522L0.132,-0.522L0.132,-0Z" style="fill:rgb(183,68,32);fill-rule:nonzero;"/>
            </g>
            <g transform="matrix(141.667,0,0,141.667,863.477,270.007)">
                <path d="M0.242,0.009C0.331,0.009 0.367,-0.01 0.402,-0.073L0.41,-0.073L0.41,-0L0.532,-0L0.532,-0.522L0.41,-0.522L0.41,-0.252C0.41,-0.131 0.38,-0.095 0.277,-0.095C0.208,-0.095 0.188,-0.117 0.188,-0.19L0.188,-0.522L0.066,-0.522L0.066,-0.192C0.066,-0.037 0.106,0.009 0.242,0.009Z" style="fill:rgb(183,68,32);fill-rule:nonzero;"/>
            </g>
            <g transform="matrix(141.667,0,0,141.667,948.477,270.007)">
                <path d="M0.318,0.009C0.485,0.009 0.535,-0.032 0.539,-0.169L0.419,-0.169C0.407,-0.113 0.385,-0.096 0.323,-0.096C0.219,-0.096 0.188,-0.133 0.188,-0.259C0.188,-0.391 0.219,-0.43 0.322,-0.43C0.386,-0.43 0.408,-0.411 0.418,-0.346L0.539,-0.346C0.536,-0.492 0.485,-0.535 0.316,-0.535C0.123,-0.535 0.066,-0.472 0.066,-0.26C0.066,-0.052 0.124,0.009 0.318,0.009Z" style="fill:rgb(183,68,32);fill-rule:nonzero;"/>
            </g>
            <g transform="matrix(141.667,0,0,141.667,1033.48,270.007)">
                <path d="M0.365,0.011C0.402,0.011 0.46,0.006 0.524,-0.002L0.524,-0.107C0.469,-0.099 0.432,-0.095 0.399,-0.095C0.322,-0.095 0.313,-0.113 0.313,-0.171L0.313,-0.419L0.508,-0.419L0.508,-0.522L0.313,-0.522L0.313,-0.677L0.197,-0.628L0.197,-0.522L0.088,-0.522L0.064,-0.419L0.193,-0.419L0.193,-0.167C0.193,-0.048 0.218,0.011 0.365,0.011Z" style="fill:rgb(183,68,32);fill-rule:nonzero;"/>
            </g>
            <g transform="matrix(141.667,0,0,141.667,1118.48,270.007)">
                <path d="M0.067,-0L0.541,-0L0.541,-0.104L0.37,-0.104L0.37,-0.728L0.077,-0.728L0.077,-0.624L0.25,-0.624L0.25,-0.104L0.067,-0.104L0.067,-0Z" style="fill:rgb(183,68,32);fill-rule:nonzero;"/>
            </g>
            <g transform="matrix(141.667,0,0,141.667,1203.48,270.007)">
                <path d="M0.3,0.009C0.491,0.009 0.548,-0.053 0.548,-0.262C0.548,-0.473 0.491,-0.535 0.3,-0.535C0.109,-0.535 0.052,-0.473 0.052,-0.262C0.052,-0.053 0.109,0.009 0.3,0.009ZM0.174,-0.262C0.174,-0.393 0.203,-0.432 0.3,-0.432C0.397,-0.432 0.426,-0.393 0.426,-0.262C0.426,-0.133 0.397,-0.095 0.3,-0.095C0.203,-0.095 0.174,-0.133 0.174,-0.262Z" style="fill:rgb(183,68,32);fill-rule:nonzero;"/>
            </g>
            <g transform="matrix(141.667,0,0,141.667,1288.48,270.007)">
                <path d="M0.302,0.22C0.484,0.22 0.538,0.173 0.538,0.015L0.538,-0.522L0.421,-0.522L0.421,-0.46L0.413,-0.46C0.387,-0.516 0.357,-0.533 0.281,-0.533C0.104,-0.533 0.051,-0.471 0.051,-0.261C0.051,-0.057 0.106,0.003 0.266,0.003C0.357,0.003 0.385,-0.014 0.411,-0.071L0.419,-0.071L0.418,0.005C0.417,0.094 0.391,0.12 0.303,0.12C0.215,0.12 0.196,0.103 0.193,0.044L0.07,0.044C0.073,0.18 0.126,0.22 0.302,0.22ZM0.173,-0.261C0.173,-0.391 0.201,-0.43 0.296,-0.43C0.39,-0.43 0.418,-0.391 0.418,-0.261C0.418,-0.137 0.39,-0.1 0.296,-0.1C0.201,-0.1 0.173,-0.137 0.173,-0.261Z" style="fill:rgb(183,68,32);fill-rule:nonzero;"/>
            </g>
        </g>
        <g id="Logo" transform="matrix(1,0,0,1,-16,0)">
            <g transform="matrix(0.269371,0,0,0.269371,-252.922,53.79)">
                <g id="filled-triangles" serif:id="filled triangles">
                    <g>
                        <g>
                            <g transform="matrix(1,0,0,1,86.4919,0)">
                                <g>
                                    <path d="M1390.56,297.95L1428.95,335.606L1374.37,423.147L1388.78,311.242L1390.56,297.95Z" style="fill:rgb(96,26,23);stroke:black;stroke-width:3.71px;"/>
                                    <path d="M2238.42,335.796L2275.98,297.865L2293.08,423.959L2273.01,392.237L2238.42,335.796Z" style="fill:rgb(96,26,23);stroke:black;stroke-width:3.71px;"/>
                                    <path d="M1416.7,290.712L1464.23,278.843L1429.61,334.87L1391.59,297.077L1416.7,290.712Z" style="fill:rgb(63,25,23);stroke:black;stroke-width:3.71px;"/>
                                    <path d="M2203.81,279.319L2275.76,297.425L2238.22,335.475L2203.81,279.319Z" style="fill:rgb(63,25,23);stroke:black;stroke-width:3.71px;"/>
                                    <path d="M1528.39,560.273L1518.06,504.419L1603.42,523.771L1606.57,565.309L1606.9,571.143L1607.02,571.183L1607.03,571.327L1606.7,571.211L1606.69,571.576L1528.39,560.273Z" style="fill:rgb(28,13,12);stroke:black;stroke-width:3.71px;"/>
                                    <path d="M2060.24,571.21L2062.74,524.27L2064.06,523.966L2064.03,524.091L2095.55,516.724L2148.67,504.509L2139.26,559.917L2060.69,571.25L2060.69,571.052L2060.24,571.21Z" style="fill:rgb(28,13,12);stroke:black;stroke-width:3.71px;"/>
                                    <path d="M1539.19,958.115L1605.92,759.285L1610.85,766.562L1726.26,939.305L1618.25,987.907L1514.69,1034.3L1514,1033.94L1539.19,958.115Z" style="fill:rgb(60,44,39);stroke:black;stroke-width:3.71px;"/>
                                    <path d="M2153.09,1034.03L1940,937.991L2061.51,760.139L2153.34,1033.9L2153.09,1034.03Z" style="fill:rgb(60,44,39);stroke:black;stroke-width:3.71px;"/>
                                    <path d="M1513.43,1034.85L1338.04,941.924L1605.15,759.486L1539.19,958.115L1513.43,1034.85Z" style="fill:rgb(67,34,24);stroke:black;stroke-width:3.71px;"/>
                                    <path d="M2060.86,758.08L2060.79,757.869L2329.59,941.704L2153.6,1034.06L2060.96,758.373L2061.05,758.234L2060.86,758.08Z" style="fill:rgb(67,34,24);stroke:black;stroke-width:3.71px;"/>
                                    <path d="M2370.83,707.008L2330.24,941.484L2061.37,757.723L2370.83,707.008Z" style="fill:rgb(112,57,54);stroke:black;stroke-width:3.71px;"/>
                                    <path d="M1605.64,758.868L1336.98,941.587L1295.4,704.914L1295.52,704.935L1295.47,705.07L1295.65,704.957L1296.95,705.183L1296.24,705.629L1457.77,733.067L1605.79,758.732L1605.63,758.857L1605.64,758.868Z" style="fill:rgb(112,57,54);stroke:black;stroke-width:3.71px;"/>
                                    <path d="M1974.59,690.107L1975.62,689.487L2060.86,758.08L2060.96,758.373L1939.77,938.277L1883.99,904.716L1836.97,875.999L1836.96,875.852L1837.43,876.068L1836.56,852.064L1834.81,775.383L1976.48,690.64L1974.59,690.107Z" style="fill:rgb(77,72,71);stroke:black;stroke-width:3.71px;"/>
                                    <path d="M1605.92,759.285L1605.64,758.868L1605.83,758.739L1605.79,758.732L1690.5,689.778L1768.27,736.07L1831.66,774.534L1829.48,872.258L1829.31,875.939L1825.52,878.282L1825.52,878.165L1818.88,882.388L1727.49,938.873L1610.85,766.562L1605.95,759.221L1605.92,759.285Z" style="fill:rgb(77,72,71);stroke:black;stroke-width:3.71px;"/>
                                    <path d="M2370.87,705.181L2371.62,705.649L2060.65,757.807L2060.89,571.453L2139.66,560.455L2275.55,645.422L2348.59,691.213L2370.88,705.209L2370.87,705.181Z" style="fill:rgb(160,112,110);stroke:black;stroke-width:3.71px;"/>
                                    <path d="M1296.95,705.183L1528.51,561.089L1606.69,571.906L1606.58,610.531L1605.87,758.223L1457.77,733.067L1296.95,705.183Z" style="fill:rgb(160,112,110);stroke:black;stroke-width:3.71px;"/>
                                    <path d="M1974.59,690.107L1834.38,774.722L1834.4,775.626L1833.93,775.911L1833.82,775.844L1833.76,774.283L1833.7,775.771L1831.66,774.534L1831.68,773.806L1768.27,736.07L1692.2,689.907L1833.03,650.914L1833.74,651.165L1833.74,650.79L1879.26,663.182L1974.59,690.107Z" style="fill:rgb(33,30,29);stroke:black;stroke-width:3.71px;"/>
                                    <path d="M2059.72,571.392L2060.24,571.21L2060.23,571.316L2060.69,571.25L2060.49,757.283L1975.71,689.431L1833.74,650.79L1833.74,650.495L2059.7,571.782L2059.72,571.392Z" style="fill:rgb(145,41,36);"/>
                                    <path d="M2059.72,571.392L2060.24,571.21L2060.23,571.316L2060.69,571.25L2060.49,757.283L1975.71,689.431L1879.26,663.182L1834.44,650.521L1833.74,650.717L1833.74,650.495L2059.7,571.782L2059.72,571.392Z" style="fill:rgb(90,18,15);"/>
                                    <path d="M2059.72,571.392L2060.24,571.21L2060.23,571.316L2060.69,571.25L2060.49,757.283L1975.71,689.431L1879.26,663.182L1834.44,650.521L1833.74,650.717L1833.74,650.495L2059.7,571.782L2059.72,571.392Z" style="fill:rgb(71,39,38);"/>
                                    <path d="M2059.72,571.392L2060.24,571.21L2060.23,571.316L2060.69,571.25L2060.49,757.283L1975.71,689.431L1833.74,650.79L1833.74,650.495L2059.7,571.782L2059.72,571.392Z" style="fill:none;stroke:black;stroke-width:3.71px;"/>
                                    <path d="M1831.43,650.35L1690.12,689.625L1606.13,758.284L1606.58,610.531L1606.76,571.915L1606.69,571.906L1606.69,571.576L1607.05,571.627L1607.03,571.327L1665.31,591.746L1831.43,650.35Z" style="fill:rgb(145,41,36);"/>
                                    <path d="M1606.69,571.906L1606.69,571.576L1607.05,571.627L1607.03,571.327L1665.31,591.746L1831.43,650.35L1690.12,689.625L1606.13,758.284L1606.58,610.531L1606.76,571.915L1606.69,571.906Z" style="fill:rgb(90,18,15);"/>
                                    <path d="M1606.69,571.906L1606.69,571.576L1607.05,571.627L1607.03,571.327L1665.31,591.746L1831.43,650.35L1690.12,689.625L1606.13,758.284L1606.58,610.531L1606.76,571.915L1606.69,571.906Z" style="fill:rgb(71,39,38);"/>
                                    <path d="M1831.43,650.35L1690.12,689.625L1606.13,758.284L1606.58,610.531L1606.76,571.915L1606.69,571.906L1606.69,571.576L1607.05,571.627L1607.03,571.327L1665.31,591.746L1831.43,650.35Z" style="fill:none;stroke:black;stroke-width:3.71px;"/>
                                    <path d="M1833.88,571.67L2113.7,300.822L2062.03,524.763L2059.72,571.392L1833.88,650.122L1833.88,571.67Z" style="fill:rgb(168,97,74);stroke:black;stroke-width:3.71px;"/>
                                    <path d="M1833.74,650.79L1833.74,651.165L1831.43,650.35L1832.06,650.173L1665.31,591.746L1607.02,571.183L1606.57,565.309L1604.28,525.054L1556.75,317.051L1552.75,299.479L1601.48,346.899L1833.32,572.847L1832.96,650.444L1832.74,650.52L1832.96,650.579L1832.96,650.766L1833.26,650.661L1833.74,650.79Z" style="fill:rgb(129,69,66);"/>
                                    <path d="M1833.03,650.914L1831.43,650.35L1832.06,650.173L1665.31,591.746L1607.02,571.183L1606.57,565.309L1604.28,525.054L1556.75,317.051L1552.75,299.479L1601.48,346.899L1833.32,572.847L1832.96,650.444L1832.74,650.52L1832.96,650.579L1832.96,650.766L1833.26,650.661L1833.6,650.754L1833.03,650.914Z" style="fill:rgb(168,97,74);"/>
                                    <path d="M1833.74,650.79L1833.74,651.165L1831.43,650.35L1832.06,650.173L1665.31,591.746L1607.02,571.183L1606.57,565.309L1604.28,525.054L1556.75,317.051L1552.75,299.479L1601.48,346.899L1833.32,572.847L1832.96,650.444L1832.74,650.52L1832.96,650.579L1832.96,650.766L1833.26,650.661L1833.74,650.79Z" style="fill:none;stroke:black;stroke-width:3.71px;"/>
                                    <path d="M1833.88,402.061L1834.12,249.786L2115.12,298.123L1833.88,571.51L1833.88,402.061Z" style="fill:rgb(183,68,32);stroke:black;stroke-width:3.71px;"/>
                                    <path d="M1552.55,299.22L1552.14,298.817L1833.89,250.326L1833.64,555.379L1833.62,571.769L1833.63,571.757L1833.63,571.916L1833.32,572.218L1833.32,572.526L1601.48,346.899L1552.73,299.392L1552.66,299.097L1552.55,299.22Z" style="fill:rgb(183,68,32);stroke:black;stroke-width:3.71px;"/>
                                    <path d="M2334.06,605.46L2370.87,705.181L2348.59,691.213L2140.33,560.449L2149.35,504.291L2209.47,501.859L2293.97,498.892L2334.06,605.46Z" style="fill:rgb(168,97,74);stroke:black;stroke-width:3.71px;"/>
                                    <path d="M1295.52,704.935L1373.64,498.952L1518,504.404L1527.98,560.17L1295.65,704.957L1295.52,704.935Z" style="fill:rgb(168,97,74);stroke:black;stroke-width:3.71px;"/>
                                    <path d="M2064.06,523.966L2115.92,300.202L2173.32,363.458L2248.18,446.541L2256.08,455.317L2256.09,455.311L2294.91,498.402L2209.47,501.859L2149.4,503.968L2149.35,504.291L2148.63,504.321L2095.55,516.724L2064.06,523.966Z" style="fill:rgb(146,48,18);stroke:black;stroke-width:3.71px;"/>
                                    <path d="M1518.16,504.38L1373.27,497.924L1552.55,299.22L1552.73,299.392L1552.75,299.479L1552.73,299.457L1556.75,317.051L1603.49,522.528L1518.16,504.38Z" style="fill:rgb(146,48,18);stroke:black;stroke-width:3.71px;"/>
                                    <path d="M1829.96,875.697L1830.65,845.346L1833.76,774.283L1837.43,876.068L1833.41,874.186L1829.96,875.697Z" style="fill:rgb(17,11,10);"/>
                                    <path d="M1841.54,879.182L1841.81,879.344L1891.57,910.571L1876.28,1000.48L1866.7,997.608L1840.61,989.178L1841.54,879.182Z" style="fill:rgb(217,199,198);stroke:black;stroke-width:3.71px;"/>
                                    <path d="M1775.15,910.421L1825.54,879.936L1826.48,989.844L1791.37,999.953L1775.15,910.421Z" style="fill:rgb(217,199,198);stroke:black;stroke-width:3.71px;"/>
                                    <path d="M2062.22,993.813L2151.79,1034.41L1979.88,1009.78L1832.73,1051.88L1687.32,1009.88L1515.01,1034.76L1727.57,939.204L1775.15,910.421L1791.37,999.953L1826.48,989.844L1825.54,879.936L1834.14,874.731L1841.54,879.182L1840.61,989.178L1840.75,989.224L1840.74,989.822L1866.7,997.608L1876.25,1000.69L1876.28,1000.48L1891.57,910.571L1841.81,879.344L1883.99,904.716L1939.53,938.64L1939.54,938.614L2062.22,993.813Z" style="fill:rgb(55,25,23);stroke:black;stroke-width:3.71px;"/>
                                    <path d="M2186.76,378.275L2153.35,341.143L2203.53,278.859L2203.81,279.319L2203.55,279.254L2237.55,336.158L2238.04,335.656L2238.24,335.976L2237.73,336.49L2263.81,377.694L2292.35,424.27L2256.41,455.032L2186.76,378.275Z" style="fill:rgb(113,55,53);stroke:black;stroke-width:3.71px;"/>
                                    <path d="M1512.97,338.834L1410.65,454.487L1376.34,425.602L1464.78,280.291L1492.92,314.089L1512.97,338.834Z" style="fill:rgb(113,55,53);stroke:black;stroke-width:3.71px;"/>
                                    <path d="M2113.48,298.112L1833.79,249.737" style="fill:none;fill-rule:nonzero;stroke:black;stroke-width:15.38px;stroke-linecap:round;stroke-miterlimit:1.5;"/>
                                    <path d="M1833.42,650.681L1833.42,251" style="fill:none;fill-rule:nonzero;stroke:black;stroke-width:15.38px;stroke-linecap:round;stroke-miterlimit:1.5;"/>
                                    <path d="M1833.88,650.664L1833.88,250.982" style="fill:none;fill-rule:nonzero;stroke:black;stroke-width:15.38px;stroke-linecap:round;stroke-miterlimit:1.5;"/>
                                    <path d="M1553.82,298.13L1833.51,249.754M1832.31,570.768L1553.33,300.414" style="fill:rgb(230,26,26);fill-rule:nonzero;stroke:black;stroke-width:15.38px;stroke-linecap:round;stroke-miterlimit:1.5;"/>
                                    <path d="M1834.99,570.751L2113.97,300.397" style="fill:none;fill-rule:nonzero;stroke:black;stroke-width:15.38px;stroke-linecap:round;stroke-miterlimit:1.5;"/>
                                    <path d="M1552.39,299.108L1373.07,496.734M1553.39,301.618L1604.09,524.8" style="fill:rgb(230,26,26);fill-rule:nonzero;stroke:black;stroke-width:15.38px;stroke-linecap:round;stroke-miterlimit:1.5;"/>
                                    <path d="M2114.91,299.09L2294.23,496.717M2113.91,301.601L2063.21,524.783M2148.49,504.367L2064.59,523.782M2293.55,499.02L2149.21,504.233" style="fill:rgb(230,26,26);fill-rule:nonzero;stroke:black;stroke-width:15.38px;stroke-linecap:round;stroke-miterlimit:1.5;"/>
                                    <path d="M1518.82,504.384L1602.71,523.799M1604.21,524.913L1607.23,570.803M1605.51,571.303L1528.1,560.196" style="fill:rgb(230,26,26);fill-rule:nonzero;stroke:black;stroke-width:15.38px;stroke-linecap:round;stroke-miterlimit:1.5;"/>
                                    <path d="M2148.96,505.017L2139.31,558.773M2063.09,524.896L2060.07,570.785M2061.79,571.285L2139.2,560.179" style="fill:rgb(230,26,26);fill-rule:nonzero;stroke:black;stroke-width:15.38px;stroke-linecap:round;stroke-miterlimit:1.5;"/>
                                    <path d="M2139.4,560.292L2369.94,704.443" style="fill:none;fill-rule:nonzero;stroke:black;stroke-width:15.38px;stroke-linecap:round;stroke-miterlimit:1.5;"/>
                                    <path d="M1373.76,499.037L1518.09,504.25M1518.34,505.034L1527.99,558.79M1527.9,560.31L1297.36,704.46M1373.64,498.081L1296.16,704.06" style="fill:rgb(230,26,26);fill-rule:nonzero;stroke:black;stroke-width:15.38px;stroke-linecap:round;stroke-miterlimit:1.5;"/>
                                    <path d="M2293.66,498.064L2371.14,704.043" style="fill:none;fill-rule:nonzero;stroke:black;stroke-width:15.38px;stroke-linecap:round;stroke-miterlimit:1.5;"/>
                                    <path d="M1608.44,571.508L1832.5,650.415" style="fill:none;fill-rule:nonzero;stroke:black;stroke-width:15.38px;stroke-linecap:round;stroke-miterlimit:1.5;"/>
                                    <path d="M2058.86,571.49L1834.8,650.397" style="fill:none;fill-rule:nonzero;stroke:black;stroke-width:15.38px;stroke-linecap:round;stroke-miterlimit:1.5;"/>
                                    <path d="M2060.46,571.958L2060.46,756.46" style="fill:none;fill-rule:nonzero;stroke:black;stroke-width:15.38px;stroke-linecap:round;stroke-miterlimit:1.5;"/>
                                    <path d="M1606.84,571.976L1606.84,756.477M1296.78,706.105L1605.56,757.786" style="fill:rgb(230,26,26);fill-rule:nonzero;stroke:black;stroke-width:15.38px;stroke-linecap:round;stroke-miterlimit:1.5;"/>
                                    <path d="M2370.52,706.088L2061.74,757.769" style="fill:none;fill-rule:nonzero;stroke:black;stroke-width:15.38px;stroke-linecap:round;stroke-miterlimit:1.5;"/>
                                    <path d="M1692.16,690.201L1832.5,773.556M1975.14,690.184L1834.47,773.734M1833.37,650.773L1691.31,688.881M1833.93,650.756L1975.99,688.863" style="fill:rgb(230,26,26);fill-rule:nonzero;stroke:black;stroke-width:15.38px;stroke-linecap:round;stroke-miterlimit:1.5;"/>
                                    <path d="M1606.92,757.401L1691.01,689.127" style="fill:none;fill-rule:nonzero;stroke:black;stroke-width:15.38px;stroke-linecap:round;stroke-miterlimit:1.5;"/>
                                    <path d="M2060.38,757.383L1976.29,689.109" style="fill:none;fill-rule:nonzero;stroke:black;stroke-width:15.38px;stroke-linecap:round;stroke-miterlimit:1.5;"/>
                                    <path d="M1296.15,705.503L1337.2,941.08" style="fill:none;fill-rule:nonzero;stroke:black;stroke-width:15.38px;stroke-linecap:round;stroke-miterlimit:1.5;"/>
                                    <path d="M2371.15,705.486L2330.1,941.063" style="fill:none;fill-rule:nonzero;stroke:black;stroke-width:15.38px;stroke-linecap:round;stroke-miterlimit:1.5;"/>
                                    <path d="M2062.45,758.995L2328.93,940.747" style="fill:none;fill-rule:nonzero;stroke:black;stroke-width:15.38px;stroke-linecap:round;stroke-miterlimit:1.5;"/>
                                    <path d="M2329.1,941.927L2151.85,1034.68" style="fill:none;fill-rule:nonzero;stroke:black;stroke-width:15.38px;stroke-linecap:round;stroke-miterlimit:1.5;"/>
                                    <path d="M1604.85,759.013L1338.37,940.764M1338.2,941.944L1515.45,1034.7M1605.53,761.846L1513.14,1033.03" style="fill:rgb(230,26,26);fill-rule:nonzero;stroke:black;stroke-width:15.38px;stroke-linecap:round;stroke-miterlimit:1.5;"/>
                                    <path d="M2061.77,761.829L2154.16,1033.01" style="fill:none;fill-rule:nonzero;stroke:black;stroke-width:15.38px;stroke-linecap:round;stroke-miterlimit:1.5;"/>
                                    <path d="M1516.57,1033.66L1728.03,938.512" style="fill:none;fill-rule:nonzero;stroke:black;stroke-width:15.38px;stroke-linecap:round;stroke-miterlimit:1.5;"/>
                                    <path d="M2150.73,1033.64L1939.28,938.495" style="fill:none;fill-rule:nonzero;stroke:black;stroke-width:15.38px;stroke-linecap:round;stroke-miterlimit:1.5;"/>
                                    <path d="M1606.12,760.19L1726.88,937.702" style="fill:none;fill-rule:nonzero;stroke:black;stroke-width:15.38px;stroke-linecap:round;stroke-miterlimit:1.5;"/>
                                    <path d="M2061.18,760.172L1940.42,937.685" style="fill:none;fill-rule:nonzero;stroke:black;stroke-width:15.38px;stroke-linecap:round;stroke-miterlimit:1.5;"/>
                                    <path d="M1727.61,938.819L1833.09,874.546" style="fill:none;fill-rule:nonzero;stroke:black;stroke-width:15.38px;stroke-linecap:round;stroke-miterlimit:1.5;"/>
                                    <path d="M1939.69,938.802L1833.86,874.316" style="fill:none;fill-rule:nonzero;stroke:black;stroke-width:15.38px;stroke-linecap:round;stroke-miterlimit:1.5;"/>
                                    <path d="M1516.39,1034.88L1687.64,1009.51" style="fill:none;fill-rule:nonzero;stroke:black;stroke-width:15.38px;stroke-linecap:round;stroke-miterlimit:1.5;"/>
                                    <path d="M2150.91,1034.87L1979.66,1009.49" style="fill:none;fill-rule:nonzero;stroke:black;stroke-width:15.38px;stroke-linecap:round;stroke-miterlimit:1.5;"/>
                                    <path d="M1688.12,1009.51L1833.76,1051.83" style="fill:none;fill-rule:nonzero;stroke:black;stroke-width:15.38px;stroke-linecap:round;stroke-miterlimit:1.5;"/>
                                    <path d="M1979.18,1009.49L1833.87,1051.72" style="fill:none;fill-rule:nonzero;stroke:black;stroke-width:15.38px;stroke-linecap:round;stroke-miterlimit:1.5;"/>
                                    <path d="M1825.5,880.814L1826.56,989.839" style="fill:none;fill-rule:nonzero;stroke:black;stroke-width:15.38px;stroke-linecap:round;stroke-miterlimit:1.5;"/>
                                    <path d="M1841.81,880.797L1840.74,989.822" style="fill:none;fill-rule:nonzero;stroke:black;stroke-width:15.38px;stroke-linecap:round;stroke-miterlimit:1.5;"/>
                                    <path d="M1826.56,989.839L1791.02,1000.5" style="fill:none;fill-rule:nonzero;stroke:black;stroke-width:15.38px;stroke-linecap:round;stroke-miterlimit:1.5;"/>
                                    <path d="M1840.74,989.822L1876.28,1000.48" style="fill:none;fill-rule:nonzero;stroke:black;stroke-width:15.38px;stroke-linecap:round;stroke-miterlimit:1.5;"/>
                                    <path d="M1775.21,911.691L1791.02,1000.5" style="fill:none;fill-rule:nonzero;stroke:black;stroke-width:15.38px;stroke-linecap:round;stroke-miterlimit:1.5;"/>
                                    <path d="M1892.09,911.674L1876.28,1000.48" style="fill:none;fill-rule:nonzero;stroke:black;stroke-width:15.38px;stroke-linecap:round;stroke-miterlimit:1.5;"/>
                                    <path d="M1832.29,773.808L1829.95,875.925" style="fill:none;fill-rule:nonzero;stroke:black;stroke-width:15.38px;stroke-linecap:round;stroke-miterlimit:1.5;"/>
                                    <path d="M1834.78,773.93L1837.11,875.901" style="fill:none;fill-rule:nonzero;stroke:black;stroke-width:15.38px;stroke-linecap:round;stroke-miterlimit:1.5;"/>
                                    <path d="M2152.91,340.571L2203.14,278.581" style="fill:none;fill-rule:nonzero;stroke:black;stroke-width:15.38px;stroke-linecap:round;stroke-miterlimit:1.5;"/>
                                    <path d="M1514.39,340.589L1464.16,278.598M1463.72,279.43L1374.75,424.623M1374.63,424.732L1409.86,454.205M1463.24,278.916L1391.05,297.214M1390.62,297.488L1373.69,423.622M1391.36,298.266L1427.62,334.523" style="fill:rgb(230,26,26);fill-rule:nonzero;stroke:black;stroke-width:15.38px;stroke-linecap:round;stroke-miterlimit:1.5;"/>
                                    <path d="M2203.58,279.413L2292.55,424.606M2292.67,424.714L2257.44,454.188M2204.06,278.898L2276.25,297.197M2276.68,297.47L2293.61,423.605M2275.94,298.249L2239.68,334.505" style="fill:rgb(230,26,26);fill-rule:nonzero;stroke:black;stroke-width:15.38px;stroke-linecap:round;stroke-miterlimit:1.5;"/>
                                    <g transform="matrix(-0.762562,-0.414565,0.594138,-1.09287,2109.6,1234.16)">
                                        <path d="M1190.49,290.501L1243.1,385.162L1183.41,373.289L1190.49,290.501Z" style="fill:none;stroke:black;stroke-width:16.02px;stroke-linecap:round;stroke-miterlimit:1.5;"/>
                                    </g>
                                    <path d="M1527.98,560.17L1295.47,705.07L1373.64,498.952L1518,504.404L1527.98,560.17Z" style="fill:none;stroke:black;stroke-width:17.18px;stroke-linecap:round;stroke-miterlimit:1.5;"/>
                                    <path d="M1464.23,278.843L1429.61,334.87L1391.52,297.002L1464.23,278.843Z" style="fill:none;stroke:black;stroke-width:17.18px;stroke-linecap:round;stroke-miterlimit:1.5;"/>
                                    <path d="M1607.05,571.627L1528.39,560.273L1518.06,504.419L1603.42,523.771L1607.05,571.627Z" style="fill:none;stroke:black;stroke-width:17.18px;stroke-linecap:round;stroke-miterlimit:1.5;"/>
                                    <path d="M1603.49,522.528L1518.16,504.38L1373.27,497.924L1552.66,299.097L1603.49,522.528Z" style="fill:none;stroke:black;stroke-width:17.18px;stroke-linecap:round;stroke-miterlimit:1.5;"/>
                                    <path d="M1513.25,338.515L1410.65,454.487L1376.34,425.602L1464.78,280.291L1513.25,338.515Z" style="fill:none;stroke:black;stroke-width:17.18px;stroke-linecap:round;stroke-miterlimit:1.5;"/>
                                    <path d="M1605.87,758.223L1296.24,705.629L1528.51,561.089L1606.76,571.915L1605.87,758.223Z" style="fill:none;stroke:black;stroke-width:17.18px;stroke-linecap:round;stroke-miterlimit:1.5;"/>
                                    <path d="M1690.12,689.625L1606.13,758.284L1606.7,571.211L1832.06,650.173L1690.12,689.625Z" style="fill:none;stroke:black;stroke-width:17.18px;stroke-linecap:round;stroke-miterlimit:1.5;"/>
                                    <path d="M1690.5,689.778L1831.68,773.806L1829.39,875.89L1727.49,938.873L1605.63,758.857L1690.5,689.778Z" style="fill:none;stroke:black;stroke-width:17.18px;stroke-linecap:round;stroke-miterlimit:1.5;"/>
                                    <path d="M1295.4,704.914L1605.83,758.739L1336.98,941.587L1295.4,704.914Z" style="fill:none;stroke:black;stroke-width:17.18px;stroke-linecap:round;stroke-miterlimit:1.5;"/>
                                    <path d="M1605.95,759.221L1726.37,939.468L1513.42,1034.87L1605.95,759.221Z" style="fill:none;stroke:black;stroke-width:17.18px;stroke-linecap:round;stroke-miterlimit:1.5;"/>
                                    <path d="M1605.15,759.486L1513.66,1034.97L1338.04,941.924L1605.15,759.486Z" style="fill:none;stroke:black;stroke-width:17.18px;stroke-linecap:round;stroke-miterlimit:1.5;"/>
                                    <path d="M1833.76,774.283L1829.31,875.981L1833.41,874.186L1837.43,876.068L1833.76,774.283Z" style="fill:none;stroke:black;stroke-width:17.18px;stroke-linecap:round;stroke-miterlimit:1.5;"/>
                                    <path d="M1975.62,689.487L2061.05,758.234L1939.53,938.64L1836.97,875.999L1834.38,774.722L1975.62,689.487Z" style="fill:none;stroke:black;stroke-width:17.18px;stroke-linecap:round;stroke-miterlimit:1.5;"/>
                                    <path d="M1826.48,989.844L1791.37,999.953L1775.11,910.211L1825.52,878.165L1826.48,989.844Z" style="fill:none;stroke:black;stroke-width:17.18px;stroke-linecap:round;stroke-miterlimit:1.5;"/>
                                    <g transform="matrix(1,0,0,2.62376,0,-1884.46)">
                                        <path d="M1834.14,1051.62L1940.1,1075.91L2151.79,1112.47L1979.88,1103.09L1832.73,1119.13L1687.32,1103.12L1515.01,1112.61L1727.57,1076.19L1834.14,1051.62Z" style="fill:none;stroke:black;stroke-width:8.65px;stroke-linecap:round;stroke-miterlimit:1.5;"/>
                                    </g>
                                    <path d="M1876.25,1000.69L1840.61,989.178L1841.54,879.176L1891.57,910.571L1876.25,1000.69Z" style="fill:none;stroke:black;stroke-width:17.18px;stroke-linecap:round;stroke-miterlimit:1.5;"/>
                                    <path d="M1833.58,572.783L1833.74,651.165L1606.9,571.143L1604.28,525.054L1552.73,299.457L1833.58,572.783Z" style="fill:none;stroke:black;stroke-width:17.18px;stroke-linecap:round;stroke-miterlimit:1.5;"/>
                                    <path d="M2113.7,300.822L2062.03,524.763L2059.7,571.782L1832.96,650.766L1833.32,572.218L2113.7,300.822Z" style="fill:none;stroke:black;stroke-width:17.18px;stroke-linecap:round;stroke-miterlimit:1.5;"/>
                                    <path d="M2060.49,757.283L1975.71,689.431L1832.74,650.52L2060.69,571.052L2060.49,757.283Z" style="fill:none;stroke:black;stroke-width:17.18px;stroke-linecap:round;stroke-miterlimit:1.5;"/>
                                    <path d="M1833.89,250.326L1833.63,573.152L1552.14,298.817L1833.89,250.326Z" style="fill:none;stroke:black;stroke-width:17.18px;stroke-linecap:round;stroke-miterlimit:1.5;"/>
                                    <path d="M1834.12,249.786L2115.12,298.123L1833.62,571.769L1834.12,249.786Z" style="fill:none;stroke:black;stroke-width:17.18px;stroke-linecap:round;stroke-miterlimit:1.5;"/>
                                    <path d="M2203.55,279.254L2275.76,297.425L2237.55,336.158L2203.55,279.254Z" style="fill:none;stroke:black;stroke-width:17.18px;stroke-linecap:round;stroke-miterlimit:1.5;"/>
                                    <path d="M2275.98,297.865L2293.08,423.959L2237.73,336.49L2275.98,297.865Z" style="fill:none;stroke:black;stroke-width:17.18px;stroke-linecap:round;stroke-miterlimit:1.5;"/>
                                    <path d="M2256.08,455.317L2153.35,341.143L2203.53,278.859L2292.54,424.106L2256.08,455.317Z" style="fill:none;stroke:black;stroke-width:17.18px;stroke-linecap:round;stroke-miterlimit:1.5;"/>
                                    <g transform="matrix(0.969673,0,0,15.6105,67.1635,-3318.21)">
                                        <path d="M2146.56,244.87L2059.32,246.137L2112.92,231.772L2297.43,244.491L2146.56,244.87Z" style="fill:none;stroke:black;stroke-width:1.55px;stroke-linecap:round;stroke-miterlimit:1.5;"/>
                                    </g>
                                    <path d="M2139.26,559.917L2060.23,571.316L2062.74,524.27L2148.67,504.509L2139.26,559.917Z" style="fill:none;stroke:black;stroke-width:17.18px;stroke-linecap:round;stroke-miterlimit:1.5;"/>
                                    <path d="M2370.88,705.209L2140.33,560.449L2149.4,503.968L2294.71,498.866L2370.88,705.209Z" style="fill:none;stroke:black;stroke-width:17.18px;stroke-linecap:round;stroke-miterlimit:1.5;"/>
                                    <path d="M2371.62,705.649L2060.65,757.807L2060.89,571.453L2139.95,560.415L2371.62,705.649Z" style="fill:none;stroke:black;stroke-width:17.18px;stroke-linecap:round;stroke-miterlimit:1.5;"/>
                                    <path d="M2061.51,760.139L2153.44,1034.19L1940,937.991L2061.51,760.139Z" style="fill:none;stroke:black;stroke-width:17.18px;stroke-linecap:round;stroke-miterlimit:1.5;"/>
                                    <path d="M2060.79,757.869L2329.59,941.704L2153.6,1034.06L2060.79,757.869Z" style="fill:none;stroke:black;stroke-width:17.18px;stroke-linecap:round;stroke-miterlimit:1.5;"/>
                                    <path d="M2370.83,707.008L2330.24,941.484L2061.37,757.723L2370.83,707.008Z" style="fill:none;stroke:black;stroke-width:17.18px;stroke-linecap:round;stroke-miterlimit:1.5;"/>
                                    <path d="M1976.48,690.64L1834.44,650.521L1692.2,689.907L1833.93,775.911L1976.48,690.64Z" style="fill:none;stroke:black;stroke-width:17.18px;stroke-linecap:round;stroke-miterlimit:1.5;"/>
                                </g>
                            </g>
                            <g transform="matrix(0.989141,-0.146969,0.146969,0.989141,-8.0926,155.085)">
                                <path d="M1648.74,1257.64L1756.93,1244.33L1645.11,1286.62L1645.03,1286.56L1644.19,1286.57L1643.55,1285.72L1643.64,1285.72L1625.22,1260.69L1648.74,1257.64Z" style="fill:rgb(185,160,152);"/>
                                <path d="M1624.65,1259.98L1626.07,1248.4L1628.37,1231.69L1628.78,1231.73L1628.72,1231.95L1704.24,1237.8L1764.49,1242.64L1648.74,1257.64L1625.12,1260.55L1624.69,1259.97L1624.65,1259.98Z" style="fill:rgb(185,160,152);"/>
                                <path d="M1636.34,1202.95L1762.61,1242.31L1704.24,1237.8L1628.78,1231.73L1628.95,1231.04L1629.02,1231.05L1636.34,1202.95Z" style="fill:rgb(185,160,152);"/>
                                <path d="M1636.64,1201.37L1647.39,1180.36L1763.46,1242.03L1636.38,1202.79L1636.75,1201.39L1636.64,1201.37Z" style="fill:rgb(185,160,152);"/>
                                <path d="M1622.05,1260.19L1624.65,1259.98L1624.58,1260.62L1624.43,1260.63L1643.55,1285.72L1253.64,1289.61L1620.1,1260.34L1623.73,1260.44L1622.05,1260.19Z" style="fill:rgb(79,48,39);"/>
                                <path d="M1392.03,1253.82L1221.27,1248.94L1225.46,1199.17L1615.97,1259.25L1392.03,1253.82Z" style="fill:rgb(79,48,39);"/>
                                <path d="M1235.38,1290L1221.26,1249.68L1392.03,1253.82L1613.91,1260.16L1368.55,1280.03L1240.12,1289.96L1235.38,1290Z" style="fill:rgb(58,19,7);"/>
                                <path d="M1506.91,1221.26L1225.63,1198.7L1241.12,1152.75L1405.43,1172.89L1636.64,1201.37L1635.98,1202.67L1636.38,1202.79L1636.34,1202.95L1635.99,1202.84L1628.95,1231.04L1628.46,1231L1628.5,1230.71L1506.91,1221.26Z" style="fill:rgb(58,19,7);"/>
                                <path d="M1626.07,1248.4L1624.54,1259.57L1234.86,1200.11L1506.91,1221.26L1628.46,1231L1628.37,1231.69L1628.12,1231.67L1626.07,1248.4Z" style="fill:rgb(61,45,40);"/>
                                <path d="M1645.11,1286.62L1645.3,1286.77L1644.6,1287.03L1653.4,1293.03L1661.53,1299.31L1272.18,1320.87L1235.71,1290.3L1240.12,1289.96L1644.19,1286.57L1644.43,1286.88L1645.11,1286.62Z" style="fill:rgb(35,21,16);"/>
                                <path d="M1241.12,1152.75L1240.73,1152.7L1268.78,1134.49L1647.23,1180.16L1636.55,1201.21L1405.43,1172.89L1241.16,1152.65L1241.12,1152.75Z" style="fill:rgb(35,21,16);"/>
                                <g transform="matrix(0.995089,0.0989859,-0.0989859,0.995089,126.524,-160.261)">
                                    <path d="M1646.1,1183.49L1767.7,1233.38L1636.95,1206.82L1646.1,1183.49Z" style="fill:none;stroke:black;stroke-width:17.18px;stroke-linecap:round;stroke-miterlimit:1.5;"/>
                                </g>
                                <path d="M1756.93,1244.33L1644.43,1286.88L1624.43,1260.63L1756.93,1244.33Z" style="fill:none;stroke:black;stroke-width:17.18px;stroke-linecap:round;stroke-miterlimit:1.5;"/>
                                <path d="M1635.99,1202.84L1762.61,1242.31L1628.72,1231.95L1635.99,1202.84Z" style="fill:none;stroke:black;stroke-width:17.18px;stroke-linecap:round;stroke-miterlimit:1.5;"/>
                                <path d="M1764.49,1242.64L1624.56,1260.78L1628.12,1231.67L1764.49,1242.64Z" style="fill:none;stroke:black;stroke-width:17.18px;stroke-linecap:round;stroke-miterlimit:1.5;"/>
                                <path d="M1763.44,1243.3L1661.67,1298.66L1644.6,1287.03L1763.44,1243.3Z" style="fill:rgb(185,160,152);stroke:black;stroke-width:17.18px;stroke-linecap:round;stroke-miterlimit:1.5;"/>
                                <path d="M1636.55,1201.21L1240.73,1152.7L1268.78,1134.49L1647.23,1180.16L1636.55,1201.21Z" style="fill:none;stroke:black;stroke-width:17.18px;stroke-linecap:round;stroke-miterlimit:1.5;"/>
                                <path d="M1629.02,1231.05L1225.63,1198.7L1241.16,1152.65L1636.75,1201.39L1629.02,1231.05Z" style="fill:none;stroke:black;stroke-width:17.18px;stroke-linecap:round;stroke-miterlimit:1.5;"/>
                                <path d="M1628.5,1230.71L1624.54,1259.57L1234.86,1200.11L1628.5,1230.71Z" style="fill:none;stroke:black;stroke-width:17.18px;stroke-linecap:round;stroke-miterlimit:1.5;"/>
                                <g transform="matrix(0.993759,0,0,1.01498,8.17143,-18.015)">
                                    <path d="M1224.94,1199.22L1625.7,1259.59L1220.71,1248.25L1224.94,1199.22Z" style="fill:none;stroke:black;stroke-width:17.1px;stroke-linecap:round;stroke-miterlimit:1.5;"/>
                                </g>
                                <path d="M1623.07,1259.42L1368.55,1280.03L1235.49,1290.32L1221.26,1249.68L1623.07,1259.42Z" style="fill:none;stroke:black;stroke-width:17.18px;stroke-linecap:round;stroke-miterlimit:1.5;"/>
                                <path d="M1624.69,1259.97L1643.64,1285.72L1253.64,1289.61L1624.69,1259.97Z" style="fill:none;stroke:black;stroke-width:17.18px;stroke-linecap:round;stroke-miterlimit:1.5;"/>
                                <path d="M1661.53,1299.31L1272.18,1320.87L1235.36,1290L1645.03,1286.56L1661.53,1299.31Z" style="fill:none;stroke:black;stroke-width:17.18px;stroke-linecap:round;stroke-miterlimit:1.5;"/>
                            </g>
                            <g transform="matrix(0.989256,0.146192,-0.146192,0.989256,358.853,-363.298)">
                                <g transform="matrix(-1,0,0,1,3533.5,0.360722)">
                                    <path d="M1648.74,1257.64L1756.93,1244.33L1645.11,1286.62L1645.03,1286.56L1644.19,1286.57L1643.55,1285.72L1643.64,1285.72L1625.22,1260.69L1648.74,1257.64Z" style="fill:rgb(185,160,152);"/>
                                </g>
                                <g transform="matrix(-1,0,0,1,3533.5,0.360722)">
                                    <path d="M1624.65,1259.98L1626.07,1248.4L1628.37,1231.69L1628.78,1231.73L1628.72,1231.95L1704.24,1237.8L1764.49,1242.64L1648.74,1257.64L1625.12,1260.55L1624.69,1259.97L1624.65,1259.98Z" style="fill:rgb(185,160,152);"/>
                                </g>
                                <g transform="matrix(-1,0,0,1,3533.5,0.360722)">
                                    <path d="M1636.34,1202.95L1762.61,1242.31L1704.24,1237.8L1628.78,1231.73L1628.95,1231.04L1629.02,1231.05L1636.34,1202.95Z" style="fill:rgb(185,160,152);"/>
                                </g>
                                <g transform="matrix(-1,0,0,1,3533.5,0.360722)">
                                    <path d="M1636.64,1201.37L1647.39,1180.36L1763.46,1242.03L1636.38,1202.79L1636.75,1201.39L1636.64,1201.37Z" style="fill:rgb(185,160,152);"/>
                                </g>
                                <g transform="matrix(-1,0,0,1,3533.5,0.360722)">
                                    <path d="M1622.05,1260.19L1624.65,1259.98L1624.58,1260.62L1624.43,1260.63L1643.55,1285.72L1253.64,1289.61L1620.1,1260.34L1623.73,1260.44L1622.05,1260.19Z" style="fill:rgb(79,48,39);"/>
                                </g>
                                <g transform="matrix(-1,0,0,1,3533.5,0.360722)">
                                    <path d="M1392.03,1253.82L1221.27,1248.94L1225.46,1199.17L1615.97,1259.25L1392.03,1253.82Z" style="fill:rgb(79,48,39);"/>
                                </g>
                                <g transform="matrix(-1,0,0,1,3533.5,0.360722)">
                                    <path d="M1235.38,1290L1221.26,1249.68L1392.03,1253.82L1613.91,1260.16L1368.55,1280.03L1240.12,1289.96L1235.38,1290Z" style="fill:rgb(58,19,7);"/>
                                </g>
                                <g transform="matrix(-1,0,0,1,3533.5,0.360722)">
                                    <path d="M1506.91,1221.26L1225.63,1198.7L1241.12,1152.75L1405.43,1172.89L1636.64,1201.37L1635.98,1202.67L1636.38,1202.79L1636.34,1202.95L1635.99,1202.84L1628.95,1231.04L1628.46,1231L1628.5,1230.71L1506.91,1221.26Z" style="fill:rgb(58,19,7);"/>
                                </g>
                                <g transform="matrix(-1,0,0,1,3533.5,0.360722)">
                                    <path d="M1626.07,1248.4L1624.54,1259.57L1234.86,1200.11L1506.91,1221.26L1628.46,1231L1628.37,1231.69L1628.12,1231.67L1626.07,1248.4Z" style="fill:rgb(61,45,40);"/>
                                </g>
                                <g transform="matrix(-1,0,0,1,3533.5,0.360722)">
                                    <path d="M1645.11,1286.62L1645.3,1286.77L1644.6,1287.03L1653.4,1293.03L1661.53,1299.31L1272.18,1320.87L1235.71,1290.3L1240.12,1289.96L1644.19,1286.57L1644.43,1286.88L1645.11,1286.62Z" style="fill:rgb(35,21,16);"/>
                                </g>
                                <g transform="matrix(-1,0,0,1,3533.5,0.360722)">
                                    <path d="M1241.12,1152.75L1240.73,1152.7L1268.78,1134.49L1647.23,1180.16L1636.55,1201.21L1405.43,1172.89L1241.16,1152.65L1241.12,1152.75Z" style="fill:rgb(35,21,16);"/>
                                </g>
                                <g transform="matrix(-0.995089,0.0989859,0.0989859,0.995089,3406.98,-159.9)">
                                    <path d="M1646.1,1183.49L1767.7,1233.38L1636.95,1206.82L1646.1,1183.49Z" style="fill:none;stroke:black;stroke-width:17.18px;stroke-linecap:round;stroke-miterlimit:1.5;"/>
                                </g>
                                <g transform="matrix(-1,0,0,1,3533.5,0.360722)">
                                    <path d="M1756.93,1244.33L1644.43,1286.88L1624.43,1260.63L1756.93,1244.33Z" style="fill:none;stroke:black;stroke-width:17.18px;stroke-linecap:round;stroke-miterlimit:1.5;"/>
                                </g>
                                <g transform="matrix(-1,0,0,1,3533.5,0.360722)">
                                    <path d="M1635.99,1202.84L1762.61,1242.31L1628.72,1231.95L1635.99,1202.84Z" style="fill:none;stroke:black;stroke-width:17.18px;stroke-linecap:round;stroke-miterlimit:1.5;"/>
                                </g>
                                <g transform="matrix(-1,0,0,1,3533.5,0.360722)">
                                    <path d="M1764.49,1242.64L1624.56,1260.78L1628.12,1231.67L1764.49,1242.64Z" style="fill:none;stroke:black;stroke-width:17.18px;stroke-linecap:round;stroke-miterlimit:1.5;"/>
                                </g>
                                <g transform="matrix(-1,0,0,1,3533.5,0.360722)">
                                    <path d="M1763.44,1243.3L1661.67,1298.66L1644.6,1287.03L1763.44,1243.3Z" style="fill:rgb(185,160,152);stroke:black;stroke-width:17.18px;stroke-linecap:round;stroke-miterlimit:1.5;"/>
                                </g>
                                <g transform="matrix(-1,0,0,1,3533.5,0.360722)">
                                    <path d="M1636.55,1201.21L1240.73,1152.7L1268.78,1134.49L1647.23,1180.16L1636.55,1201.21Z" style="fill:none;stroke:black;stroke-width:17.18px;stroke-linecap:round;stroke-miterlimit:1.5;"/>
                                </g>
                                <g transform="matrix(-1,0,0,1,3533.5,0.360722)">
                                    <path d="M1629.02,1231.05L1225.63,1198.7L1241.16,1152.65L1636.75,1201.39L1629.02,1231.05Z" style="fill:none;stroke:black;stroke-width:17.18px;stroke-linecap:round;stroke-miterlimit:1.5;"/>
                                </g>
                                <g transform="matrix(-1,0,0,1,3533.5,0.360722)">
                                    <path d="M1628.5,1230.71L1624.54,1259.57L1234.86,1200.11L1628.5,1230.71Z" style="fill:none;stroke:black;stroke-width:17.18px;stroke-linecap:round;stroke-miterlimit:1.5;"/>
                                </g>
                                <g transform="matrix(-0.993759,0,0,1.01498,3525.33,-17.6543)">
                                    <path d="M1224.94,1199.22L1625.7,1259.59L1220.71,1248.25L1224.94,1199.22Z" style="fill:none;stroke:black;stroke-width:17.1px;stroke-linecap:round;stroke-miterlimit:1.5;"/>
                                </g>
                                <g transform="matrix(-1,0,0,1,3533.5,0.360722)">
                                    <path d="M1623.07,1259.42L1368.55,1280.03L1235.49,1290.32L1221.26,1249.68L1623.07,1259.42Z" style="fill:none;stroke:black;stroke-width:17.18px;stroke-linecap:round;stroke-miterlimit:1.5;"/>
                                </g>
                                <g transform="matrix(-1,0,0,1,3533.5,0.360722)">
                                    <path d="M1624.69,1259.97L1643.64,1285.72L1253.64,1289.61L1624.69,1259.97Z" style="fill:none;stroke:black;stroke-width:17.18px;stroke-linecap:round;stroke-miterlimit:1.5;"/>
                                </g>
                                <g transform="matrix(-1,0,0,1,3533.5,0.360722)">
                                    <path d="M1661.53,1299.31L1272.18,1320.87L1235.36,1290L1645.03,1286.56L1661.53,1299.31Z" style="fill:none;stroke:black;stroke-width:17.18px;stroke-linecap:round;stroke-miterlimit:1.5;"/>
                                </g>
                            </g>
                        </g>
                    </g>
                </g>
            </g>
            <g id="log">
            </g>
        </g>
    </g>
</svg>
