<svg xmlns="http://www.w3.org/2000/svg" xml:space="preserve" style="fill-rule:evenodd;clip-rule:evenodd;stroke-linejoin:round;stroke-miterlimit:2" viewBox="0 0 1500 1320"><path d="m1390.56 297.95 38.39 37.656-54.58 87.541 14.41-111.905 1.78-13.292Zm847.86 37.846 37.56-37.931 17.1 126.094-20.07-31.722-34.59-56.441Z" style="fill:#601a17;stroke:#000;stroke-width:.86px" transform="translate(-1385.285 -225.934) scale(1.16236)"/><path d="m1416.7 290.712 47.53-11.869-34.62 56.027-38.02-37.793 25.11-6.365Zm787.11-11.393 71.95 18.106-37.54 38.05-34.41-56.156Z" style="fill:#3f1917;stroke:#000;stroke-width:.86px" transform="translate(-1385.285 -225.934) scale(1.16236)"/><path d="m1528.39 560.273-10.33-55.854 85.36 19.352 3.15 41.538.33 5.834.12.04.01.144-.33-.116-.01.365-78.3-11.303Zm531.85 10.937 2.5-46.94 1.32-.304-.03.125 31.52-7.367 53.12-12.215-9.41 55.408-78.57 11.333v-.198l-.45.158Z" style="fill:#1c0d0c;stroke:#000;stroke-width:.86px" transform="translate(-1385.285 -225.934) scale(1.16236)"/><path d="m1539.19 958.115 66.73-198.83 4.93 7.277 115.41 172.743-108.01 48.602-103.56 46.393-.69-.36 25.19-75.825Zm613.9 75.915L1940 937.991l121.51-177.852 91.83 273.761-.25.13Z" style="fill:#3c2c27;stroke:#000;stroke-width:.86px" transform="translate(-1385.285 -225.934) scale(1.16236)"/><path d="m1513.43 1034.85-175.39-92.926 267.11-182.438-65.96 198.629-25.76 76.735Zm547.43-276.77-.07-.211 268.8 183.835-175.99 92.356-92.64-275.687.09-.139-.19-.154Z" style="fill:#432218;stroke:#000;stroke-width:.86px" transform="translate(-1385.285 -225.934) scale(1.16236)"/><path d="m2370.83 707.008-40.59 234.476-268.87-183.761 309.46-50.715Zm-765.19 51.86-268.66 182.719-41.58-236.673.12.021-.05.135.18-.113 1.3.226-.71.446 161.53 27.438 148.02 25.665-.16.125.01.011Z" style="fill:#703936;stroke:#000;stroke-width:.86px" transform="translate(-1385.285 -225.934) scale(1.16236)"/><path d="m1974.59 690.107 1.03-.62 85.24 68.593.1.293-121.19 179.904-55.78-33.561-47.02-28.717-.01-.147.47.216-.87-24.004-1.75-76.681 141.67-84.743-1.89-.533Zm-368.67 69.178-.28-.417.19-.129-.04-.007 84.71-68.954 77.77 46.292 63.39 38.464-2.18 97.724-.17 3.681-3.79 2.343v-.117l-6.64 4.223-91.39 56.485-116.64-172.311-4.9-7.341-.03.064Z" style="fill:#4d4847;stroke:#000;stroke-width:.86px" transform="translate(-1385.285 -225.934) scale(1.16236)"/><path d="m2370.87 705.181.75.468-310.97 52.158.24-186.354 78.77-10.998 135.89 84.967 73.04 45.791 22.29 13.996-.01-.028Zm-1073.92.002 231.56-144.094 78.18 10.817-.11 38.625-.71 147.692-148.1-25.156-160.82-27.884Z" style="fill:#a0706e;stroke:#000;stroke-width:.86px" transform="translate(-1385.285 -225.934) scale(1.16236)"/><path d="m1974.59 690.107-140.21 84.615.02.904-.47.285-.11-.067-.06-1.561-.06 1.488-2.04-1.237.02-.728-63.41-37.736-76.07-46.163 140.83-38.993.71.251v-.375l45.52 12.392 95.33 26.925Z" style="fill:#211e1d;stroke:#000;stroke-width:.86px" transform="translate(-1385.285 -225.934) scale(1.16236)"/><path d="m2059.72 571.392.52-.182-.01.106.46-.066-.2 186.033-84.78-67.852-141.97-38.641v-.295l225.96-78.713.02-.39Z" style="fill:#912924" transform="translate(-1385.285 -225.934) scale(1.16236)"/><path d="m2059.72 571.392.52-.182-.01.106.46-.066-.2 186.033-84.78-67.852-96.45-26.249-44.82-12.661-.7.196v-.222l225.96-78.713.02-.39Z" style="fill:#5a120f" transform="translate(-1385.285 -225.934) scale(1.16236)"/><path d="m2059.72 571.392.52-.182-.01.106.46-.066-.2 186.033-84.78-67.852-96.45-26.249-44.82-12.661-.7.196v-.222l225.96-78.713.02-.39Z" style="fill:#472726" transform="translate(-1385.285 -225.934) scale(1.16236)"/><path d="m2059.72 571.392.52-.182-.01.106.46-.066-.2 186.033-84.78-67.852-141.97-38.641v-.295l225.96-78.713.02-.39Z" style="fill:none;stroke:#000;stroke-width:.86px" transform="translate(-1385.285 -225.934) scale(1.16236)"/><path d="m1831.43 650.35-141.31 39.275-83.99 68.659.45-147.753.18-38.616-.07-.009v-.33l.36.051-.02-.3 58.28 20.419 166.12 58.604Z" style="fill:#912924" transform="translate(-1385.285 -225.934) scale(1.16236)"/><path d="M1606.69 571.906v-.33l.36.051-.02-.3 58.28 20.419 166.12 58.604-141.31 39.275-83.99 68.659.45-147.753.18-38.616-.07-.009Z" style="fill:#5a120f" transform="translate(-1385.285 -225.934) scale(1.16236)"/><path d="M1606.69 571.906v-.33l.36.051-.02-.3 58.28 20.419 166.12 58.604-141.31 39.275-83.99 68.659.45-147.753.18-38.616-.07-.009Z" style="fill:#472726" transform="translate(-1385.285 -225.934) scale(1.16236)"/><path d="m1831.43 650.35-141.31 39.275-83.99 68.659.45-147.753.18-38.616-.07-.009v-.33l.36.051-.02-.3 58.28 20.419 166.12 58.604Z" style="fill:none;stroke:#000;stroke-width:.86px" transform="translate(-1385.285 -225.934) scale(1.16236)"/><path d="m1833.88 571.67 279.82-270.848-51.67 223.941-2.31 46.629-225.84 78.73V571.67Z" style="fill:#a8614a;stroke:#000;stroke-width:.86px" transform="translate(-1385.285 -225.934) scale(1.16236)"/><path d="M1833.74 650.79v.375l-2.31-.815.63-.177-166.75-58.427-58.29-20.563-.45-5.874-2.29-40.255-47.53-208.003-4-17.572 48.73 47.42 231.84 225.948-.36 77.597-.22.076.22.059v.187l.3-.105.48.129Z" style="fill:#814542" transform="translate(-1385.285 -225.934) scale(1.16236)"/><path d="m1833.03 650.914-1.6-.564.63-.177-166.75-58.427-58.29-20.563-.45-5.874-2.29-40.255-47.53-208.003-4-17.572 48.73 47.42 231.84 225.948-.36 77.597-.22.076.22.059v.187l.3-.105.34.093-.57.16Z" style="fill:#a8614a" transform="translate(-1385.285 -225.934) scale(1.16236)"/><path d="M1833.74 650.79v.375l-2.31-.815.63-.177-166.75-58.427-58.29-20.563-.45-5.874-2.29-40.255-47.53-208.003-4-17.572 48.73 47.42 231.84 225.948-.36 77.597-.22.076.22.059v.187l.3-.105.48.129Z" style="fill:none;stroke:#000;stroke-width:.86px" transform="translate(-1385.285 -225.934) scale(1.16236)"/><path d="m1833.88 402.061.24-152.275 281 48.337-281.24 273.387V402.061ZM1552.55 299.22l-.41-.403 281.75-48.491-.25 305.053-.02 16.39.01-.012v.159l-.31.302v.308l-231.84-225.627-48.75-47.507-.07-.295-.11.123Z" style="fill:#b74420;stroke:#000;stroke-width:.86px" transform="translate(-1385.285 -225.934) scale(1.16236)"/><path d="m2334.06 605.46 36.81 99.721-22.28-13.968-208.26-130.764 9.02-56.158 60.12-2.432 84.5-2.967 40.09 106.568Zm-1038.54 99.475 78.12-205.983 144.36 5.452 9.98 55.766-232.33 144.787-.13-.022Z" style="fill:#a8614a;stroke:#000;stroke-width:.86px" transform="translate(-1385.285 -225.934) scale(1.16236)"/><path d="m2064.06 523.966 51.86-223.764 57.4 63.256 74.86 83.083 7.9 8.776.01-.006 38.82 43.091-85.44 3.457-60.07 2.109-.05.323-.72.03-53.08 12.403-31.49 7.242Zm-545.9-19.586-144.89-6.456 179.28-198.704.18.172.02.087-.02-.022 4.02 17.594 46.74 205.477-85.33-18.148Z" style="fill:#923012;stroke:#000;stroke-width:.86px" transform="translate(-1385.285 -225.934) scale(1.16236)"/><path d="m1829.96 875.697.69-30.351 3.11-71.063 3.67 101.785-4.02-1.882-3.45 1.511Z" style="fill:#110b0a" transform="translate(-1385.285 -225.934) scale(1.16236)"/><path d="m1841.54 879.182.27.162 49.76 31.227-15.29 89.909-9.58-2.872-26.09-8.43.93-109.996Zm-66.39 31.239 50.39-30.485.94 109.908-35.11 10.109-16.22-89.532Z" style="fill:#d9c7c6;stroke:#000;stroke-width:.86px" transform="translate(-1385.285 -225.934) scale(1.16236)"/><path d="m2062.22 993.813 89.57 40.597-171.91-24.63-147.15 42.1-145.41-42-172.31 24.88 212.56-95.556 47.58-28.783 16.22 89.532 35.11-10.109-.94-109.908 8.6-5.205 7.4 4.451-.93 109.996.14.046-.01.598 25.96 7.786 9.55 3.082.03-.21 15.29-89.909-49.76-31.227 42.18 25.372 55.54 33.924.01-.026 122.68 55.199Z" style="fill:#371917;stroke:#000;stroke-width:.86px" transform="translate(-1385.285 -225.934) scale(1.16236)"/><path d="m2186.76 378.275-33.41-37.132 50.18-62.284.28.46-.26-.065 34 56.904.49-.502.2.32-.51.514 26.08 41.204 28.54 46.576-35.94 30.762-69.65-76.757Zm-673.79-39.441-102.32 115.653-34.31-28.885 88.44-145.311 28.14 33.798 20.05 24.745Z" style="fill:#713735;stroke:#000;stroke-width:.86px" transform="translate(-1385.285 -225.934) scale(1.16236)"/><path d="m2113.48 298.112-279.69-48.375m-.37 400.944V251m.46 399.664V250.982" style="fill:none;fill-rule:nonzero;stroke:#000;stroke-width:3.56px;stroke-linecap:round;stroke-miterlimit:1.5" transform="translate(-1385.285 -225.934) scale(1.16236)"/><path d="m1553.82 298.13 279.69-48.376m-1.2 321.014-278.98-270.354" style="fill:#e61a1a;fill-rule:nonzero;stroke:#000;stroke-width:3.56px;stroke-linecap:round;stroke-miterlimit:1.5" transform="translate(-1385.285 -225.934) scale(1.16236)"/><path d="m1834.99 570.751 278.98-270.354" style="fill:none;fill-rule:nonzero;stroke:#000;stroke-width:3.56px;stroke-linecap:round;stroke-miterlimit:1.5" transform="translate(-1385.285 -225.934) scale(1.16236)"/><path d="m1552.39 299.108-179.32 197.626m180.32-195.116 50.7 223.182m510.82-225.71 179.32 197.627m-180.32-195.116-50.7 223.182m85.28-20.416-83.9 19.415m228.96-24.762-144.34 5.213m-630.39.151 83.89 19.415m1.5 1.114 3.02 45.89m-1.72.5-77.41-11.107m620.86-55.179-9.65 53.756m-76.22-33.877-3.02 45.889m1.72.5 77.41-11.106" style="fill:#e61a1a;fill-rule:nonzero;stroke:#000;stroke-width:3.56px;stroke-linecap:round;stroke-miterlimit:1.5" transform="translate(-1385.285 -225.934) scale(1.16236)"/><path d="m2139.4 560.292 230.54 144.151" style="fill:none;fill-rule:nonzero;stroke:#000;stroke-width:3.56px;stroke-linecap:round;stroke-miterlimit:1.5" transform="translate(-1385.285 -225.934) scale(1.16236)"/><path d="m1373.76 499.037 144.33 5.213m.25.784 9.65 53.756m-.09 1.52-230.54 144.15m76.28-206.379-77.48 205.979" style="fill:#e61a1a;fill-rule:nonzero;stroke:#000;stroke-width:3.56px;stroke-linecap:round;stroke-miterlimit:1.5" transform="translate(-1385.285 -225.934) scale(1.16236)"/><path d="m2293.66 498.064 77.48 205.979m-762.7-132.535 224.06 78.907m226.36-78.925-224.06 78.907m225.66-78.439V756.46" style="fill:none;fill-rule:nonzero;stroke:#000;stroke-width:3.56px;stroke-linecap:round;stroke-miterlimit:1.5" transform="translate(-1385.285 -225.934) scale(1.16236)"/><path d="M1606.84 571.976v184.501m-310.06-50.372 308.78 51.681" style="fill:#e61a1a;fill-rule:nonzero;stroke:#000;stroke-width:3.56px;stroke-linecap:round;stroke-miterlimit:1.5" transform="translate(-1385.285 -225.934) scale(1.16236)"/><path d="m2370.52 706.088-308.78 51.681" style="fill:none;fill-rule:nonzero;stroke:#000;stroke-width:3.56px;stroke-linecap:round;stroke-miterlimit:1.5" transform="translate(-1385.285 -225.934) scale(1.16236)"/><path d="m1692.16 690.201 140.34 83.355m142.64-83.372-140.67 83.55m-1.1-122.961-142.06 38.108m142.62-38.125 142.06 38.107" style="fill:#e61a1a;fill-rule:nonzero;stroke:#000;stroke-width:3.56px;stroke-linecap:round;stroke-miterlimit:1.5" transform="translate(-1385.285 -225.934) scale(1.16236)"/><path d="m1606.92 757.401 84.09-68.274m369.37 68.256-84.09-68.274m-680.14 16.394 41.05 235.577m1033.95-235.594-41.05 235.577m-267.65-182.068 266.48 181.752m.17 1.18-177.25 92.753" style="fill:none;fill-rule:nonzero;stroke:#000;stroke-width:3.56px;stroke-linecap:round;stroke-miterlimit:1.5" transform="translate(-1385.285 -225.934) scale(1.16236)"/><path d="m1604.85 759.013-266.48 181.751m-.17 1.18 177.25 92.756m90.08-272.854-92.39 271.184" style="fill:#e61a1a;fill-rule:nonzero;stroke:#000;stroke-width:3.56px;stroke-linecap:round;stroke-miterlimit:1.5" transform="translate(-1385.285 -225.934) scale(1.16236)"/><path d="m2061.77 761.829 92.39 271.181m-637.59.65 211.46-95.148m422.7 95.128-211.45-95.145M1606.12 760.19l120.76 177.512m334.3-177.53-120.76 177.513m-212.81 1.134 105.48-64.273m106.6 64.256-105.83-64.486m-317.47 160.564 171.25-25.37m463.27 25.36-171.25-25.38m-291.54.02 145.64 42.32m145.42-42.34-145.31 42.23m-8.37-170.906 1.06 109.025m15.25-109.042-1.07 109.025m-14.18.017-35.54 10.661m49.72-10.678 35.54 10.658m-101.07-88.789 15.81 88.809m101.07-88.826-15.81 88.806m-43.99-226.672-2.34 102.117m4.83-101.995 2.33 101.971m315.8-535.33 50.23-61.99" style="fill:none;fill-rule:nonzero;stroke:#000;stroke-width:3.56px;stroke-linecap:round;stroke-miterlimit:1.5" transform="translate(-1385.285 -225.934) scale(1.16236)"/><path d="m1514.39 340.589-50.23-61.991m-.44.832-88.97 145.193m-.12.109 35.23 29.473m53.38-175.289-72.19 18.298m-.43.274-16.93 126.134m17.67-125.356 36.26 36.257m775.96-55.11 88.97 145.193m.12.108-35.23 29.474m-53.38-175.29 72.19 18.299m.43.273 16.93 126.135m-17.67-125.356-36.26 36.256" style="fill:#e61a1a;fill-rule:nonzero;stroke:#000;stroke-width:3.56px;stroke-linecap:round;stroke-miterlimit:1.5" transform="translate(-1385.285 -225.934) scale(1.16236)"/><path d="m1190.49 290.501 52.61 94.661-59.69-11.873 7.08-82.788Z" style="fill:none;stroke:#000;stroke-width:3.71px;stroke-linecap:round;stroke-miterlimit:1.5" transform="matrix(-.88637 -.48187 .6906 -1.2703 1066.83 1208.604)"/><path d="m1527.98 560.17-232.51 144.9 78.17-206.118 144.36 5.452 9.98 55.766Zm-63.75-281.327-34.62 56.027-38.09-37.868 72.71-18.159Zm142.82 292.784-78.66-11.354-10.33-55.854 85.36 19.352 3.63 47.856Z" style="fill:none;stroke:#000;stroke-width:3.98px;stroke-linecap:round;stroke-miterlimit:1.5" transform="translate(-1385.285 -225.934) scale(1.16236)"/><path d="m1603.49 522.528-85.33-18.148-144.89-6.456 179.39-198.827 50.83 223.431Zm-90.24-184.013-102.6 115.972-34.31-28.885 88.44-145.311 48.47 58.224Zm92.62 419.708-309.63-52.594 232.27-144.54 78.25 10.826-.89 186.308Z" style="fill:none;stroke:#000;stroke-width:3.98px;stroke-linecap:round;stroke-miterlimit:1.5" transform="translate(-1385.285 -225.934) scale(1.16236)"/><path d="m1690.12 689.625-83.99 68.659.57-187.073 225.36 78.962-141.94 39.452Z" style="fill:none;stroke:#000;stroke-width:3.98px;stroke-linecap:round;stroke-miterlimit:1.5" transform="translate(-1385.285 -225.934) scale(1.16236)"/><path d="m1690.5 689.778 141.18 84.028-2.29 102.084-101.9 62.983-121.86-180.016 84.87-69.079Z" style="fill:none;stroke:#000;stroke-width:3.98px;stroke-linecap:round;stroke-miterlimit:1.5" transform="translate(-1385.285 -225.934) scale(1.16236)"/><path d="m1295.4 704.914 310.43 53.825-268.85 182.848-41.58-236.673Zm310.55 54.307 120.42 180.247-212.95 95.402 92.53-275.649Z" style="fill:none;stroke:#000;stroke-width:3.98px;stroke-linecap:round;stroke-miterlimit:1.5" transform="translate(-1385.285 -225.934) scale(1.16236)"/><path d="m1605.15 759.486-91.49 275.484-175.62-93.046 267.11-182.438Zm228.61 14.797-4.45 101.698 4.1-1.795 4.02 1.882-3.67-101.785Zm141.86-84.796 85.43 68.747-121.52 180.406-102.56-62.641-2.59-101.277 141.24-85.235Zm-149.14 300.357-35.11 10.109-16.26-89.742 50.41-32.046.96 111.679Z" style="fill:none;stroke:#000;stroke-width:3.98px;stroke-linecap:round;stroke-miterlimit:1.5" transform="translate(-1385.285 -225.934) scale(1.16236)"/><path d="m1834.14 1051.62 105.96 24.29 211.69 36.56-171.91-9.38-147.15 16.04-145.41-16.01-172.31 9.49 212.56-36.42 106.57-24.57Z" style="fill:none;stroke:#000;stroke-width:2.01px;stroke-linecap:round;stroke-miterlimit:1.5" transform="matrix(1.16236 0 0 3.04975 -1385.285 -2416.355)"/><path d="m1876.25 1000.69-35.64-11.512.93-110.002 50.03 31.395-15.32 90.119Zm-42.67-427.907.16 78.382-226.84-80.022-2.62-46.089-51.55-225.597 280.85 273.326Z" style="fill:none;stroke:#000;stroke-width:3.98px;stroke-linecap:round;stroke-miterlimit:1.5" transform="translate(-1385.285 -225.934) scale(1.16236)"/><path d="m2113.7 300.822-51.67 223.941-2.33 47.019-226.74 78.984.36-78.548 280.38-271.396Z" style="fill:none;stroke:#000;stroke-width:3.98px;stroke-linecap:round;stroke-miterlimit:1.5" transform="translate(-1385.285 -225.934) scale(1.16236)"/><path d="m2060.49 757.283-84.78-67.852-142.97-38.911 227.95-79.468-.2 186.231Zm-226.6-506.957-.26 322.826-281.49-274.335 281.75-48.491Z" style="fill:none;stroke:#000;stroke-width:3.98px;stroke-linecap:round;stroke-miterlimit:1.5" transform="translate(-1385.285 -225.934) scale(1.16236)"/><path d="m1834.12 249.786 281 48.337-281.5 273.646.5-321.983Zm369.43 29.468 72.21 18.171-38.21 38.733-34-56.904Zm72.43 18.611 17.1 126.094-55.35-87.469 38.25-38.625Z" style="fill:none;stroke:#000;stroke-width:3.98px;stroke-linecap:round;stroke-miterlimit:1.5" transform="translate(-1385.285 -225.934) scale(1.16236)"/><path d="m2256.08 455.317-102.73-114.174 50.18-62.284 89.01 145.247-36.46 31.211Z" style="fill:none;stroke:#000;stroke-width:3.98px;stroke-linecap:round;stroke-miterlimit:1.5" transform="translate(-1385.285 -225.934) scale(1.16236)"/><path d="m2146.56 244.87-87.24 1.267 53.6-14.365 184.51 12.719-150.87.379Z" style="fill:none;stroke:#000;stroke-width:.36px;stroke-linecap:round;stroke-miterlimit:1.5" transform="matrix(1.1271 0 0 18.14502 -1307.217 -4082.889)"/><path d="m2139.26 559.917-79.03 11.399 2.51-47.046 85.93-19.761-9.41 55.408Zm231.62 145.292-230.55-144.76 9.07-56.481 145.31-5.102 76.17 206.343Z" style="fill:none;stroke:#000;stroke-width:3.98px;stroke-linecap:round;stroke-miterlimit:1.5" transform="translate(-1385.285 -225.934) scale(1.16236)"/><path d="m2371.62 705.649-310.97 52.158.24-186.354 79.06-11.038 231.67 145.234Zm-310.11 54.49 91.93 274.051L1940 937.991l121.51-177.852Zm-.72-2.27 268.8 183.835-175.99 92.356-92.81-276.191Zm310.04-50.861-40.59 234.476-268.87-183.761 309.46-50.715Zm-394.35-16.368-142.04-40.119-142.24 39.386 141.73 86.004 142.55-85.271Z" style="fill:none;stroke:#000;stroke-width:3.98px;stroke-linecap:round;stroke-miterlimit:1.5" transform="translate(-1385.285 -225.934) scale(1.16236)"/><path d="m1648.74 1257.64 108.19-13.31-111.82 42.29-.08-.06-.84.01-.64-.85h.09l-18.42-25.03 23.52-3.05Zm-24.09 2.34 1.42-11.58 2.3-16.71.41.04-.06.22 75.52 5.85 60.25 4.84-115.75 15-23.62 2.91-.43-.58-.04.01Z" style="fill:#b9a098" transform="rotate(-8.451 -1056.675 10095.68) scale(1.16236)"/><path d="m1636.34 1202.95 126.27 39.36-58.37-4.51-75.46-6.07.17-.69.07.01 7.32-28.1Zm.3-1.58 10.75-21.01 116.07 61.67-127.08-39.24.37-1.4-.11-.02Z" style="fill:#b9a098" transform="rotate(-8.451 -1056.675 10095.68) scale(1.16236)"/><path d="m1622.05 1260.19 2.6-.21-.07.64-.15.01 19.12 25.09-389.91 3.89 366.46-29.27 3.63.1-1.68-.25Zm-230.02-6.37-170.76-4.88 4.19-49.77 390.51 60.08-223.94-5.43Z" style="fill:#4f3027" transform="rotate(-8.451 -1056.675 10095.68) scale(1.16236)"/><path d="m1235.38 1290-14.12-40.32 170.77 4.14 221.88 6.34-245.36 19.87-128.43 9.93-4.74.04Zm271.53-68.74-281.28-22.56 15.49-45.95 164.31 20.14 231.21 28.48-.66 1.3.4.12-.04.16-.35-.11-7.04 28.2-.49-.04.04-.29-121.59-9.45Z" style="fill:#3a1307" transform="rotate(-8.451 -1056.675 10095.68) scale(1.16236)"/><path d="m1626.07 1248.4-1.53 11.17-389.68-59.46 272.05 21.15 121.55 9.74-.09.69-.25-.02-2.05 16.73Z" style="fill:#3d2d28" transform="rotate(-8.451 -1056.675 10095.68) scale(1.16236)"/><path d="m1645.11 1286.62.19.15-.7.26 8.8 6 8.13 6.28-389.35 21.56-36.47-30.57 4.41-.34 404.07-3.39.24.31.68-.26Zm-403.99-133.87-.39-.05 28.05-18.21 378.45 45.67-10.68 21.05-231.12-28.32-164.27-20.24-.04.1Z" style="fill:#231510" transform="rotate(-8.451 -1056.675 10095.68) scale(1.16236)"/><path d="m1646.1 1183.49 121.6 49.89-130.75-26.56 9.15-23.33Z" style="fill:none;stroke:#000;stroke-width:3.98px;stroke-linecap:round;stroke-miterlimit:1.5" transform="rotate(-2.77 -5889.489 28348.324) scale(1.16236)"/><path d="m1756.93 1244.33-112.5 42.55-20-26.25 132.5-16.3Zm-120.94-41.49 126.62 39.47-133.89-10.36 7.27-29.11Z" style="fill:none;stroke:#000;stroke-width:3.98px;stroke-linecap:round;stroke-miterlimit:1.5" transform="rotate(-8.451 -1056.675 10095.68) scale(1.16236)"/><path d="m1764.49 1242.64-139.93 18.14 3.56-29.11 136.37 10.97Z" style="fill:none;stroke:#000;stroke-width:3.98px;stroke-linecap:round;stroke-miterlimit:1.5" transform="rotate(-8.451 -1056.675 10095.68) scale(1.16236)"/><path d="m1763.44 1243.3-101.77 55.36-17.07-11.63 118.84-43.73Z" style="fill:#b9a098;stroke:#000;stroke-width:3.98px;stroke-linecap:round;stroke-miterlimit:1.5" transform="rotate(-8.451 -1056.675 10095.68) scale(1.16236)"/><path d="m1636.55 1201.21-395.82-48.51 28.05-18.21 378.45 45.67-10.68 21.05Z" style="fill:none;stroke:#000;stroke-width:3.98px;stroke-linecap:round;stroke-miterlimit:1.5" transform="rotate(-8.451 -1056.675 10095.68) scale(1.16236)"/><path d="m1629.02 1231.05-403.39-32.35 15.53-46.05 395.59 48.74-7.73 29.66Z" style="fill:none;stroke:#000;stroke-width:3.98px;stroke-linecap:round;stroke-miterlimit:1.5" transform="rotate(-8.451 -1056.675 10095.68) scale(1.16236)"/><path d="m1628.5 1230.71-3.96 28.86-389.68-59.46 393.64 30.6Z" style="fill:none;stroke:#000;stroke-width:3.98px;stroke-linecap:round;stroke-miterlimit:1.5" transform="rotate(-8.451 -1056.675 10095.68) scale(1.16236)"/><path d="m1224.94 1199.22 400.76 60.37-404.99-11.34 4.23-49.03Z" style="fill:none;stroke:#000;stroke-width:3.96px;stroke-linecap:round;stroke-miterlimit:1.5" transform="matrix(1.14256 -.16976 .17339 1.16696 -1488.909 -67.778)"/><path d="m1623.07 1259.42-254.52 20.61-133.06 10.29-14.23-40.64 401.81 9.74Zm1.62.55 18.95 25.75-390 3.89 371.05-29.64Z" style="fill:none;stroke:#000;stroke-width:3.98px;stroke-linecap:round;stroke-miterlimit:1.5" transform="rotate(-8.451 -1056.675 10095.68) scale(1.16236)"/><path d="m1661.53 1299.31-389.35 21.56-36.82-30.87 409.67-3.44 16.5 12.75Z" style="fill:none;stroke:#000;stroke-width:3.98px;stroke-linecap:round;stroke-miterlimit:1.5" transform="rotate(-8.451 -1056.675 10095.68) scale(1.16236)"/><path d="m1648.74 1257.64 108.19-13.31-111.82 42.29-.08-.06-.84.01-.64-.85h.09l-18.42-25.03 23.52-3.05Zm-24.09 2.34 1.42-11.58 2.3-16.71.41.04-.06.22 75.52 5.85 60.25 4.84-115.75 15-23.62 2.91-.43-.58-.04.01Z" style="fill:#b9a098" transform="matrix(-1.14987 -.16993 -.16993 1.14987 2994.306 -47.363)"/><path d="m1636.34 1202.95 126.27 39.36-58.37-4.51-75.46-6.07.17-.69.07.01 7.32-28.1Zm.3-1.58 10.75-21.01 116.07 61.67-127.08-39.24.37-1.4-.11-.02Z" style="fill:#b9a098" transform="matrix(-1.14987 -.16993 -.16993 1.14987 2994.306 -47.363)"/><path d="m1622.05 1260.19 2.6-.21-.07.64-.15.01 19.12 25.09-389.91 3.89 366.46-29.27 3.63.1-1.68-.25Zm-230.02-6.37-170.76-4.88 4.19-49.77 390.51 60.08-223.94-5.43Z" style="fill:#4f3027" transform="matrix(-1.14987 -.16993 -.16993 1.14987 2994.306 -47.363)"/><path d="m1235.38 1290-14.12-40.32 170.77 4.14 221.88 6.34-245.36 19.87-128.43 9.93-4.74.04Zm271.53-68.74-281.28-22.56 15.49-45.95 164.31 20.14 231.21 28.48-.66 1.3.4.12-.04.16-.35-.11-7.04 28.2-.49-.04.04-.29-121.59-9.45Z" style="fill:#3a1307" transform="matrix(-1.14987 -.16993 -.16993 1.14987 2994.306 -47.363)"/><path d="m1626.07 1248.4-1.53 11.17-389.68-59.46 272.05 21.15 121.55 9.74-.09.69-.25-.02-2.05 16.73Z" style="fill:#3d2d28" transform="matrix(-1.14987 -.16993 -.16993 1.14987 2994.306 -47.363)"/><path d="m1645.11 1286.62.19.15-.7.26 8.8 6 8.13 6.28-389.35 21.56-36.47-30.57 4.41-.34 404.07-3.39.24.31.68-.26Zm-403.99-133.87-.39-.05 28.05-18.21 378.45 45.67-10.68 21.05-231.12-28.32-164.27-20.24-.04.1Z" style="fill:#231510" transform="matrix(-1.14987 -.16993 -.16993 1.14987 2994.306 -47.363)"/><path d="m1646.1 1183.49 121.6 49.89-130.75-26.56 9.15-23.33Z" style="fill:none;stroke:#000;stroke-width:3.98px;stroke-linecap:round;stroke-miterlimit:1.5" transform="scale(-1.16236 1.16236) rotate(-2.726 -5814.477 51896.161)"/><path d="m1756.93 1244.33-112.5 42.55-20-26.25 132.5-16.3Zm-120.94-41.49 126.62 39.47-133.89-10.36 7.27-29.11Z" style="fill:none;stroke:#000;stroke-width:3.98px;stroke-linecap:round;stroke-miterlimit:1.5" transform="matrix(-1.14987 -.16993 -.16993 1.14987 2994.306 -47.363)"/><path d="m1764.49 1242.64-139.93 18.14 3.56-29.11 136.37 10.97Z" style="fill:none;stroke:#000;stroke-width:3.98px;stroke-linecap:round;stroke-miterlimit:1.5" transform="matrix(-1.14987 -.16993 -.16993 1.14987 2994.306 -47.363)"/><path d="m1763.44 1243.3-101.77 55.36-17.07-11.63 118.84-43.73Z" style="fill:#b9a098;stroke:#000;stroke-width:3.98px;stroke-linecap:round;stroke-miterlimit:1.5" transform="matrix(-1.14987 -.16993 -.16993 1.14987 2994.306 -47.363)"/><path d="m1636.55 1201.21-395.82-48.51 28.05-18.21 378.45 45.67-10.68 21.05Z" style="fill:none;stroke:#000;stroke-width:3.98px;stroke-linecap:round;stroke-miterlimit:1.5" transform="matrix(-1.14987 -.16993 -.16993 1.14987 2994.306 -47.363)"/><path d="m1629.02 1231.05-403.39-32.35 15.53-46.05 395.59 48.74-7.73 29.66Z" style="fill:none;stroke:#000;stroke-width:3.98px;stroke-linecap:round;stroke-miterlimit:1.5" transform="matrix(-1.14987 -.16993 -.16993 1.14987 2994.306 -47.363)"/><path d="m1628.5 1230.71-3.96 28.86-389.68-59.46 393.64 30.6Z" style="fill:none;stroke:#000;stroke-width:3.98px;stroke-linecap:round;stroke-miterlimit:1.5" transform="matrix(-1.14987 -.16993 -.16993 1.14987 2994.306 -47.363)"/><path d="m1224.94 1199.22 400.76 60.37-404.99-11.34 4.23-49.03Z" style="fill:none;stroke:#000;stroke-width:3.96px;stroke-linecap:round;stroke-miterlimit:1.5" transform="matrix(-1.1427 -.16887 -.17247 1.1671 2987.973 -69.466)"/><path d="m1623.07 1259.42-254.52 20.61-133.06 10.29-14.23-40.64 401.81 9.74Zm1.62.55 18.95 25.75-390 3.89 371.05-29.64Z" style="fill:none;stroke:#000;stroke-width:3.98px;stroke-linecap:round;stroke-miterlimit:1.5" transform="matrix(-1.14987 -.16993 -.16993 1.14987 2994.306 -47.363)"/><path d="m1661.53 1299.31-389.35 21.56-36.82-30.87 409.67-3.44 16.5 12.75Z" style="fill:none;stroke:#000;stroke-width:3.98px;stroke-linecap:round;stroke-miterlimit:1.5" transform="matrix(-1.14987 -.16993 -.16993 1.14987 2994.306 -47.363)"/></svg>