<svg xmlns="http://www.w3.org/2000/svg" xml:space="preserve" style="fill-rule:evenodd;clip-rule:evenodd;stroke-linejoin:round;stroke-miterlimit:2" viewBox="0 0 1200 300"><path d="M.302.009c.181 0 .235-.036.235-.158 0-.096-.044-.136-.192-.169C.226-.345.191-.358.191-.38c0-.04.025-.052.108-.052.079 0 .103.013.106.059h.12C.524-.498.473-.535.3-.535c-.177 0-.23.035-.23.154 0 .092.047.127.204.156.108.02.14.037.14.077 0 .043-.026.055-.112.054C.214-.095.187-.113.186-.172H.063c-.004.14.051.181.239.181Z" style="fill:#b74420;fill-rule:nonzero" transform="translate(401.327 175.415) scale(141.667)"/><path d="M.365.011C.402.011.46.006.524-.002v-.105a.882.882 0 0 1-.125.012c-.077 0-.086-.018-.086-.076v-.248h.195v-.103H.313v-.155l-.116.049v.106H.088l-.024.103h.129v.252c0 .119.025.178.172.178Z" style="fill:#b74420;fill-rule:nonzero" transform="translate(486.327 175.415) scale(141.667)"/><path d="M.132 0h.12v-.257c0-.063.055-.138.096-.144a.889.889 0 0 1 .151-.004v-.12a4.822 4.822 0 0 0-.098-.002c-.086 0-.086 0-.153.112H.237l.005-.107h-.11V0Z" style="fill:#b74420;fill-rule:nonzero" transform="translate(571.327 175.415) scale(141.667)"/><path d="M.242.009c.089 0 .125-.019.16-.082H.41V0h.122v-.522H.41v.27c0 .121-.03.157-.133.157-.069 0-.089-.022-.089-.095v-.332H.066v.33c0 .155.04.201.176.201Z" style="fill:#b74420;fill-rule:nonzero" transform="translate(656.327 175.415) scale(141.667)"/><path d="M.318.009c.167 0 .217-.041.221-.178h-.12c-.012.056-.034.073-.096.073-.104 0-.135-.037-.135-.163 0-.132.031-.171.134-.171.064 0 .086.019.096.084h.121C.536-.492.485-.535.316-.535c-.193 0-.25.063-.25.275 0 .208.058.269.252.269Z" style="fill:#b74420;fill-rule:nonzero" transform="translate(741.327 175.415) scale(141.667)"/><path d="M.365.011C.402.011.46.006.524-.002v-.105a.882.882 0 0 1-.125.012c-.077 0-.086-.018-.086-.076v-.248h.195v-.103H.313v-.155l-.116.049v.106H.088l-.024.103h.129v.252c0 .119.025.178.172.178Z" style="fill:#b74420;fill-rule:nonzero" transform="translate(826.33 175.415) scale(141.667)"/><path d="M.067 0h.474v-.104H.37v-.624H.077v.104H.25v.52H.067V0Z" style="fill:#b74420;fill-rule:nonzero" transform="translate(911.33 175.415) scale(141.667)"/><path d="M.3.009c.191 0 .248-.062.248-.271C.548-.473.491-.535.3-.535s-.248.062-.248.273c0 .209.057.271.248.271ZM.174-.262c0-.131.029-.17.126-.17s.126.039.126.17c0 .129-.029.167-.126.167S.174-.133.174-.262Z" style="fill:#b74420;fill-rule:nonzero" transform="translate(996.33 175.415) scale(141.667)"/><path d="M.302.22C.484.22.538.173.538.015v-.537H.421v.062H.413C.387-.516.357-.533.281-.533c-.177 0-.23.062-.23.272 0 .204.055.264.215.264.091 0 .119-.017.145-.074h.008L.418.005C.417.094.391.12.303.12.215.12.196.103.193.044H.07C.073.18.126.22.302.22ZM.173-.261c0-.13.028-.169.123-.169.094 0 .122.039.122.169C.418-.137.39-.1.296-.1.201-.1.173-.137.173-.261Z" style="fill:#b74420;fill-rule:nonzero" transform="translate(1081.33 175.415) scale(141.667)"/><path d="m1390.56 297.95 38.39 37.656-54.58 87.541 14.41-111.905 1.78-13.292ZM2238.42 335.796l37.56-37.931 17.1 126.094-20.07-31.722-34.59-56.441Z" style="fill:#601a17;stroke:#000;stroke-width:3.71px" transform="translate(-302.06 -55.311) scale(.26937)"/><path d="m1416.7 290.712 47.53-11.869-34.62 56.027-38.02-37.793 25.11-6.365ZM2203.81 279.319l71.95 18.106-37.54 38.05-34.41-56.156Z" style="fill:#3f1917;stroke:#000;stroke-width:3.71px" transform="translate(-302.06 -55.311) scale(.26937)"/><path d="m1528.39 560.273-10.33-55.854 85.36 19.352 3.15 41.538.33 5.834.12.04.01.144-.33-.116-.01.365-78.3-11.303ZM2060.24 571.21l2.5-46.94 1.32-.304-.03.125 31.52-7.367 53.12-12.215-9.41 55.408-78.57 11.333v-.198l-.45.158Z" style="fill:#1c0d0c;stroke:#000;stroke-width:3.71px" transform="translate(-302.06 -55.311) scale(.26937)"/><path d="m1539.19 958.115 66.73-198.83 4.93 7.277 115.41 172.743-108.01 48.602-103.56 46.393-.69-.36 25.19-75.825ZM2153.09 1034.03 1940 937.991l121.51-177.852 91.83 273.761-.25.13Z" style="fill:#3c2c27;stroke:#000;stroke-width:3.71px" transform="translate(-302.06 -55.311) scale(.26937)"/><path d="m1513.43 1034.85-175.39-92.926 267.11-182.438-65.96 198.629-25.76 76.735ZM2060.86 758.08l-.07-.211 268.8 183.835-175.99 92.356-92.64-275.687.09-.139-.19-.154Z" style="fill:#432218;stroke:#000;stroke-width:3.71px" transform="translate(-302.06 -55.311) scale(.26937)"/><path d="m2370.83 707.008-40.59 234.476-268.87-183.761 309.46-50.715ZM1605.64 758.868l-268.66 182.719-41.58-236.673.12.021-.05.135.18-.113 1.3.226-.71.446 161.53 27.438 148.02 25.665-.16.125.01.011Z" style="fill:#703936;stroke:#000;stroke-width:3.71px" transform="translate(-302.06 -55.311) scale(.26937)"/><path d="m1974.59 690.107 1.03-.62 85.24 68.593.1.293-121.19 179.904-55.78-33.561-47.02-28.717-.01-.147.47.216-.87-24.004-1.75-76.681 141.67-84.743-1.89-.533ZM1605.92 759.285l-.28-.417.19-.129-.04-.007 84.71-68.954 77.77 46.292 63.39 38.464-2.18 97.724-.17 3.681-3.79 2.343v-.117l-6.64 4.223-91.39 56.485-116.64-172.311-4.9-7.341-.03.064Z" style="fill:#4d4847;stroke:#000;stroke-width:3.71px" transform="translate(-302.06 -55.311) scale(.26937)"/><path d="m2370.87 705.181.75.468-310.97 52.158.24-186.354 78.77-10.998 135.89 84.967 73.04 45.791 22.29 13.996-.01-.028ZM1296.95 705.183l231.56-144.094 78.18 10.817-.11 38.625-.71 147.692-148.1-25.156-160.82-27.884Z" style="fill:#a0706e;stroke:#000;stroke-width:3.71px" transform="translate(-302.06 -55.311) scale(.26937)"/><path d="m1974.59 690.107-140.21 84.615.02.904-.47.285-.11-.067-.06-1.561-.06 1.488-2.04-1.237.02-.728-63.41-37.736-76.07-46.163 140.83-38.993.71.251v-.375l45.52 12.392 95.33 26.925Z" style="fill:#211e1d;stroke:#000;stroke-width:3.71px" transform="translate(-302.06 -55.311) scale(.26937)"/><path d="m2059.72 571.392.52-.182-.01.106.46-.066-.2 186.033-84.78-67.852-141.97-38.641v-.295l225.96-78.713.02-.39Z" style="fill:#912924" transform="translate(-302.06 -55.311) scale(.26937)"/><path d="m2059.72 571.392.52-.182-.01.106.46-.066-.2 186.033-84.78-67.852-96.45-26.249-44.82-12.661-.7.196v-.222l225.96-78.713.02-.39Z" style="fill:#5a120f" transform="translate(-302.06 -55.311) scale(.26937)"/><path d="m2059.72 571.392.52-.182-.01.106.46-.066-.2 186.033-84.78-67.852-96.45-26.249-44.82-12.661-.7.196v-.222l225.96-78.713.02-.39Z" style="fill:#472726" transform="translate(-302.06 -55.311) scale(.26937)"/><path d="m2059.72 571.392.52-.182-.01.106.46-.066-.2 186.033-84.78-67.852-141.97-38.641v-.295l225.96-78.713.02-.39Z" style="fill:none;stroke:#000;stroke-width:3.71px" transform="translate(-302.06 -55.311) scale(.26937)"/><path d="m1831.43 650.35-141.31 39.275-83.99 68.659.45-147.753.18-38.616-.07-.009v-.33l.36.051-.02-.3 58.28 20.419 166.12 58.604Z" style="fill:#912924" transform="translate(-302.06 -55.311) scale(.26937)"/><path d="M1606.69 571.906v-.33l.36.051-.02-.3 58.28 20.419 166.12 58.604-141.31 39.275-83.99 68.659.45-147.753.18-38.616-.07-.009Z" style="fill:#5a120f" transform="translate(-302.06 -55.311) scale(.26937)"/><path d="M1606.69 571.906v-.33l.36.051-.02-.3 58.28 20.419 166.12 58.604-141.31 39.275-83.99 68.659.45-147.753.18-38.616-.07-.009Z" style="fill:#472726" transform="translate(-302.06 -55.311) scale(.26937)"/><path d="m1831.43 650.35-141.31 39.275-83.99 68.659.45-147.753.18-38.616-.07-.009v-.33l.36.051-.02-.3 58.28 20.419 166.12 58.604Z" style="fill:none;stroke:#000;stroke-width:3.71px" transform="translate(-302.06 -55.311) scale(.26937)"/><path d="m1833.88 571.67 279.82-270.848-51.67 223.941-2.31 46.629-225.84 78.73V571.67Z" style="fill:#a8614a;stroke:#000;stroke-width:3.71px" transform="translate(-302.06 -55.311) scale(.26937)"/><path d="M1833.74 650.79v.375l-2.31-.815.63-.177-166.75-58.427-58.29-20.563-.45-5.874-2.29-40.255-47.53-208.003-4-17.572 48.73 47.42 231.84 225.948-.36 77.597-.22.076.22.059v.187l.3-.105.48.129Z" style="fill:#814542" transform="translate(-302.06 -55.311) scale(.26937)"/><path d="m1833.03 650.914-1.6-.564.63-.177-166.75-58.427-58.29-20.563-.45-5.874-2.29-40.255-47.53-208.003-4-17.572 48.73 47.42 231.84 225.948-.36 77.597-.22.076.22.059v.187l.3-.105.34.093-.57.16Z" style="fill:#a8614a" transform="translate(-302.06 -55.311) scale(.26937)"/><path d="M1833.74 650.79v.375l-2.31-.815.63-.177-166.75-58.427-58.29-20.563-.45-5.874-2.29-40.255-47.53-208.003-4-17.572 48.73 47.42 231.84 225.948-.36 77.597-.22.076.22.059v.187l.3-.105.48.129Z" style="fill:none;stroke:#000;stroke-width:3.71px" transform="translate(-302.06 -55.311) scale(.26937)"/><path d="m1833.88 402.061.24-152.275 281 48.337-281.24 273.387V402.061ZM1552.55 299.22l-.41-.403 281.75-48.491-.25 305.053-.02 16.39.01-.012v.159l-.31.302v.308l-231.84-225.627-48.75-47.507-.07-.295-.11.123Z" style="fill:#b74420;stroke:#000;stroke-width:3.71px" transform="translate(-302.06 -55.311) scale(.26937)"/><path d="m2334.06 605.46 36.81 99.721-22.28-13.968-208.26-130.764 9.02-56.158 60.12-2.432 84.5-2.967 40.09 106.568ZM1295.52 704.935l78.12-205.983 144.36 5.452 9.98 55.766-232.33 144.787-.13-.022Z" style="fill:#a8614a;stroke:#000;stroke-width:3.71px" transform="translate(-302.06 -55.311) scale(.26937)"/><path d="m2064.06 523.966 51.86-223.764 57.4 63.256 74.86 83.083 7.9 8.776.01-.006 38.82 43.091-85.44 3.457-60.07 2.109-.05.323-.72.03-53.08 12.403-31.49 7.242ZM1518.16 504.38l-144.89-6.456 179.28-198.704.18.172.02.087-.02-.022 4.02 17.594 46.74 205.477-85.33-18.148Z" style="fill:#923012;stroke:#000;stroke-width:3.71px" transform="translate(-302.06 -55.311) scale(.26937)"/><path d="m1829.96 875.697.69-30.351 3.11-71.063 3.67 101.785-4.02-1.882-3.45 1.511Z" style="fill:#110b0a" transform="translate(-302.06 -55.311) scale(.26937)"/><path d="m1841.54 879.182.27.162 49.76 31.227-15.29 89.909-9.58-2.872-26.09-8.43.93-109.996ZM1775.15 910.421l50.39-30.485.94 109.908-35.11 10.109-16.22-89.532Z" style="fill:#d9c7c6;stroke:#000;stroke-width:3.71px" transform="translate(-302.06 -55.311) scale(.26937)"/><path d="m2062.22 993.813 89.57 40.597-171.91-24.63-147.15 42.1-145.41-42-172.31 24.88 212.56-95.556 47.58-28.783 16.22 89.532 35.11-10.109-.94-109.908 8.6-5.205 7.4 4.451-.93 109.996.14.046-.01.598 25.96 7.786 9.55 3.082.03-.21 15.29-89.909-49.76-31.227 42.18 25.372 55.54 33.924.01-.026 122.68 55.199Z" style="fill:#371917;stroke:#000;stroke-width:3.71px" transform="translate(-302.06 -55.311) scale(.26937)"/><path d="m2186.76 378.275-33.41-37.132 50.18-62.284.28.46-.26-.065 34 56.904.49-.502.2.32-.51.514 26.08 41.204 28.54 46.576-35.94 30.762-69.65-76.757ZM1512.97 338.834l-102.32 115.653-34.31-28.885 88.44-145.311 28.14 33.798 20.05 24.745Z" style="fill:#713735;stroke:#000;stroke-width:3.71px" transform="translate(-302.06 -55.311) scale(.26937)"/><path d="m2113.48 298.112-279.69-48.375M1833.42 650.681V251M1833.88 650.664V250.982" style="fill:none;fill-rule:nonzero;stroke:#000;stroke-width:15.38px;stroke-linecap:round;stroke-miterlimit:1.5" transform="translate(-302.06 -55.311) scale(.26937)"/><path d="m1553.82 298.13 279.69-48.376m-1.2 321.014-278.98-270.354" style="fill:#e61a1a;fill-rule:nonzero;stroke:#000;stroke-width:15.38px;stroke-linecap:round;stroke-miterlimit:1.5" transform="translate(-302.06 -55.311) scale(.26937)"/><path d="m1834.99 570.751 278.98-270.354" style="fill:none;fill-rule:nonzero;stroke:#000;stroke-width:15.38px;stroke-linecap:round;stroke-miterlimit:1.5" transform="translate(-302.06 -55.311) scale(.26937)"/><path d="m1552.39 299.108-179.32 197.626m180.32-195.116 50.7 223.182M2114.91 299.09l179.32 197.627m-180.32-195.116-50.7 223.182m85.28-20.416-83.9 19.415m228.96-24.762-144.34 5.213M1518.82 504.384l83.89 19.415m1.5 1.114 3.02 45.89m-1.72.5-77.41-11.107M2148.96 505.017l-9.65 53.756m-76.22-33.877-3.02 45.889m1.72.5 77.41-11.106" style="fill:#e61a1a;fill-rule:nonzero;stroke:#000;stroke-width:15.38px;stroke-linecap:round;stroke-miterlimit:1.5" transform="translate(-302.06 -55.311) scale(.26937)"/><path d="m2139.4 560.292 230.54 144.151" style="fill:none;fill-rule:nonzero;stroke:#000;stroke-width:15.38px;stroke-linecap:round;stroke-miterlimit:1.5" transform="translate(-302.06 -55.311) scale(.26937)"/><path d="m1373.76 499.037 144.33 5.213m.25.784 9.65 53.756m-.09 1.52-230.54 144.15m76.28-206.379-77.48 205.979" style="fill:#e61a1a;fill-rule:nonzero;stroke:#000;stroke-width:15.38px;stroke-linecap:round;stroke-miterlimit:1.5" transform="translate(-302.06 -55.311) scale(.26937)"/><path d="m2293.66 498.064 77.48 205.979M1608.44 571.508l224.06 78.907M2058.86 571.49l-224.06 78.907M2060.46 571.958V756.46" style="fill:none;fill-rule:nonzero;stroke:#000;stroke-width:15.38px;stroke-linecap:round;stroke-miterlimit:1.5" transform="translate(-302.06 -55.311) scale(.26937)"/><path d="M1606.84 571.976v184.501m-310.06-50.372 308.78 51.681" style="fill:#e61a1a;fill-rule:nonzero;stroke:#000;stroke-width:15.38px;stroke-linecap:round;stroke-miterlimit:1.5" transform="translate(-302.06 -55.311) scale(.26937)"/><path d="m2370.52 706.088-308.78 51.681" style="fill:none;fill-rule:nonzero;stroke:#000;stroke-width:15.38px;stroke-linecap:round;stroke-miterlimit:1.5" transform="translate(-302.06 -55.311) scale(.26937)"/><path d="m1692.16 690.201 140.34 83.355m142.64-83.372-140.67 83.55m-1.1-122.961-142.06 38.108m142.62-38.125 142.06 38.107" style="fill:#e61a1a;fill-rule:nonzero;stroke:#000;stroke-width:15.38px;stroke-linecap:round;stroke-miterlimit:1.5" transform="translate(-302.06 -55.311) scale(.26937)"/><path d="m1606.92 757.401 84.09-68.274M2060.38 757.383l-84.09-68.274M1296.15 705.503l41.05 235.577M2371.15 705.486l-41.05 235.577M2062.45 758.995l266.48 181.752M2329.1 941.927l-177.25 92.753" style="fill:none;fill-rule:nonzero;stroke:#000;stroke-width:15.38px;stroke-linecap:round;stroke-miterlimit:1.5" transform="translate(-302.06 -55.311) scale(.26937)"/><path d="m1604.85 759.013-266.48 181.751m-.17 1.18 177.25 92.756m90.08-272.854-92.39 271.184" style="fill:#e61a1a;fill-rule:nonzero;stroke:#000;stroke-width:15.38px;stroke-linecap:round;stroke-miterlimit:1.5" transform="translate(-302.06 -55.311) scale(.26937)"/><path d="m2061.77 761.829 92.39 271.181M1516.57 1033.66l211.46-95.148M2150.73 1033.64l-211.45-95.145M1606.12 760.19l120.76 177.512M2061.18 760.172l-120.76 177.513M1727.61 938.819l105.48-64.273M1939.69 938.802l-105.83-64.486M1516.39 1034.88l171.25-25.37M2150.91 1034.87l-171.25-25.38M1688.12 1009.51l145.64 42.32M1979.18 1009.49l-145.31 42.23M1825.5 880.814l1.06 109.025M1841.81 880.797l-1.07 109.025M1826.56 989.839l-35.54 10.661M1840.74 989.822l35.54 10.658M1775.21 911.691l15.81 88.809M1892.09 911.674l-15.81 88.806M1832.29 773.808l-2.34 102.117M1834.78 773.93l2.33 101.971M2152.91 340.571l50.23-61.99" style="fill:none;fill-rule:nonzero;stroke:#000;stroke-width:15.38px;stroke-linecap:round;stroke-miterlimit:1.5" transform="translate(-302.06 -55.311) scale(.26937)"/><path d="m1514.39 340.589-50.23-61.991m-.44.832-88.97 145.193m-.12.109 35.23 29.473m53.38-175.289-72.19 18.298m-.43.274-16.93 126.134m17.67-125.356 36.26 36.257M2203.58 279.413l88.97 145.193m.12.108-35.23 29.474m-53.38-175.29 72.19 18.299m.43.273 16.93 126.135m-17.67-125.356-36.26 36.256" style="fill:#e61a1a;fill-rule:nonzero;stroke:#000;stroke-width:15.38px;stroke-linecap:round;stroke-miterlimit:1.5" transform="translate(-302.06 -55.311) scale(.26937)"/><path d="m1190.49 290.501 52.61 94.661-59.69-11.873 7.08-82.788Z" style="fill:none;stroke:#000;stroke-width:16.02px;stroke-linecap:round;stroke-miterlimit:1.5" transform="matrix(-.20541 -.11167 .16004 -.29439 266.205 277.136)"/><path d="m1527.98 560.17-232.51 144.9 78.17-206.118 144.36 5.452 9.98 55.766ZM1464.23 278.843l-34.62 56.027-38.09-37.868 72.71-18.159ZM1607.05 571.627l-78.66-11.354-10.33-55.854 85.36 19.352 3.63 47.856Z" style="fill:none;stroke:#000;stroke-width:17.18px;stroke-linecap:round;stroke-miterlimit:1.5" transform="translate(-302.06 -55.311) scale(.26937)"/><path d="m1603.49 522.528-85.33-18.148-144.89-6.456 179.39-198.827 50.83 223.431ZM1513.25 338.515l-102.6 115.972-34.31-28.885 88.44-145.311 48.47 58.224ZM1605.87 758.223l-309.63-52.594 232.27-144.54 78.25 10.826-.89 186.308Z" style="fill:none;stroke:#000;stroke-width:17.18px;stroke-linecap:round;stroke-miterlimit:1.5" transform="translate(-302.06 -55.311) scale(.26937)"/><path d="m1690.12 689.625-83.99 68.659.57-187.073 225.36 78.962-141.94 39.452Z" style="fill:none;stroke:#000;stroke-width:17.18px;stroke-linecap:round;stroke-miterlimit:1.5" transform="translate(-302.06 -55.311) scale(.26937)"/><path d="m1690.5 689.778 141.18 84.028-2.29 102.084-101.9 62.983-121.86-180.016 84.87-69.079Z" style="fill:none;stroke:#000;stroke-width:17.18px;stroke-linecap:round;stroke-miterlimit:1.5" transform="translate(-302.06 -55.311) scale(.26937)"/><path d="m1295.4 704.914 310.43 53.825-268.85 182.848-41.58-236.673ZM1605.95 759.221l120.42 180.247-212.95 95.402 92.53-275.649Z" style="fill:none;stroke:#000;stroke-width:17.18px;stroke-linecap:round;stroke-miterlimit:1.5" transform="translate(-302.06 -55.311) scale(.26937)"/><path d="m1605.15 759.486-91.49 275.484-175.62-93.046 267.11-182.438ZM1833.76 774.283l-4.45 101.698 4.1-1.795 4.02 1.882-3.67-101.785Z" style="fill:none;stroke:#000;stroke-width:17.18px;stroke-linecap:round;stroke-miterlimit:1.5" transform="translate(-302.06 -55.311) scale(.26937)"/><path d="m1975.62 689.487 85.43 68.747-121.52 180.406-102.56-62.641-2.59-101.277 141.24-85.235ZM1826.48 989.844l-35.11 10.109-16.26-89.742 50.41-32.046.96 111.679Z" style="fill:none;stroke:#000;stroke-width:17.18px;stroke-linecap:round;stroke-miterlimit:1.5" transform="translate(-302.06 -55.311) scale(.26937)"/><path d="m1834.14 1051.62 105.96 24.29 211.69 36.56-171.91-9.38-147.15 16.04-145.41-16.01-172.31 9.49 212.56-36.42 106.57-24.57Z" style="fill:none;stroke:#000;stroke-width:8.65px;stroke-linecap:round;stroke-miterlimit:1.5" transform="matrix(.26937 0 0 .70676 -302.06 -562.93)"/><path d="m1876.25 1000.69-35.64-11.512.93-110.002 50.03 31.395-15.32 90.119ZM1833.58 572.783l.16 78.382-226.84-80.022-2.62-46.089-51.55-225.597 280.85 273.326Z" style="fill:none;stroke:#000;stroke-width:17.18px;stroke-linecap:round;stroke-miterlimit:1.5" transform="translate(-302.06 -55.311) scale(.26937)"/><path d="m2113.7 300.822-51.67 223.941-2.33 47.019-226.74 78.984.36-78.548 280.38-271.396Z" style="fill:none;stroke:#000;stroke-width:17.18px;stroke-linecap:round;stroke-miterlimit:1.5" transform="translate(-302.06 -55.311) scale(.26937)"/><path d="m2060.49 757.283-84.78-67.852-142.97-38.911 227.95-79.468-.2 186.231ZM1833.89 250.326l-.26 322.826-281.49-274.335 281.75-48.491Z" style="fill:none;stroke:#000;stroke-width:17.18px;stroke-linecap:round;stroke-miterlimit:1.5" transform="translate(-302.06 -55.311) scale(.26937)"/><path d="m1834.12 249.786 281 48.337-281.5 273.646.5-321.983ZM2203.55 279.254l72.21 18.171-38.21 38.733-34-56.904ZM2275.98 297.865l17.1 126.094-55.35-87.469 38.25-38.625Z" style="fill:none;stroke:#000;stroke-width:17.18px;stroke-linecap:round;stroke-miterlimit:1.5" transform="translate(-302.06 -55.311) scale(.26937)"/><path d="m2256.08 455.317-102.73-114.174 50.18-62.284 89.01 145.247-36.46 31.211Z" style="fill:none;stroke:#000;stroke-width:17.18px;stroke-linecap:round;stroke-miterlimit:1.5" transform="translate(-302.06 -55.311) scale(.26937)"/><path d="m2146.56 244.87-87.24 1.267 53.6-14.365 184.51 12.719-150.87.379Z" style="fill:none;stroke:#000;stroke-width:1.55px;stroke-linecap:round;stroke-miterlimit:1.5" transform="matrix(.2612 0 0 4.20502 -283.968 -949.14)"/><path d="m2139.26 559.917-79.03 11.399 2.51-47.046 85.93-19.761-9.41 55.408ZM2370.88 705.209l-230.55-144.76 9.07-56.481 145.31-5.102 76.17 206.343Z" style="fill:none;stroke:#000;stroke-width:17.18px;stroke-linecap:round;stroke-miterlimit:1.5" transform="translate(-302.06 -55.311) scale(.26937)"/><path d="m2371.62 705.649-310.97 52.158.24-186.354 79.06-11.038 231.67 145.234ZM2061.51 760.139l91.93 274.051L1940 937.991l121.51-177.852ZM2060.79 757.869l268.8 183.835-175.99 92.356-92.81-276.191ZM2370.83 707.008l-40.59 234.476-268.87-183.761 309.46-50.715ZM1976.48 690.64l-142.04-40.119-142.24 39.386 141.73 86.004 142.55-85.271Z" style="fill:none;stroke:#000;stroke-width:17.18px;stroke-linecap:round;stroke-miterlimit:1.5" transform="translate(-302.06 -55.311) scale(.26937)"/><path d="m1648.74 1257.64 108.19-13.31-111.82 42.29-.08-.06-.84.01-.64-.85h.09l-18.42-25.03 23.52-3.05ZM1624.65 1259.98l1.42-11.58 2.3-16.71.41.04-.06.22 75.52 5.85 60.25 4.84-115.75 15-23.62 2.91-.43-.58-.04.01Z" style="fill:#b9a098" transform="rotate(-8.45 -255.313 2209.757) scale(.26937)"/><path d="m1636.34 1202.95 126.27 39.36-58.37-4.51-75.46-6.07.17-.69.07.01 7.32-28.1ZM1636.64 1201.37l10.75-21.01 116.07 61.67-127.08-39.24.37-1.4-.11-.02Z" style="fill:#b9a098" transform="rotate(-8.45 -255.313 2209.757) scale(.26937)"/><path d="m1622.05 1260.19 2.6-.21-.07.64-.15.01 19.12 25.09-389.91 3.89 366.46-29.27 3.63.1-1.68-.25ZM1392.03 1253.82l-170.76-4.88 4.19-49.77 390.51 60.08-223.94-5.43Z" style="fill:#4f3027" transform="rotate(-8.45 -255.313 2209.757) scale(.26937)"/><path d="m1235.38 1290-14.12-40.32 170.77 4.14 221.88 6.34-245.36 19.87-128.43 9.93-4.74.04ZM1506.91 1221.26l-281.28-22.56 15.49-45.95 164.31 20.14 231.21 28.48-.66 1.3.4.12-.04.16-.35-.11-7.04 28.2-.49-.04.04-.29-121.59-9.45Z" style="fill:#3a1307" transform="rotate(-8.45 -255.313 2209.757) scale(.26937)"/><path d="m1626.07 1248.4-1.53 11.17-389.68-59.46 272.05 21.15 121.55 9.74-.09.69-.25-.02-2.05 16.73Z" style="fill:#3d2d28" transform="rotate(-8.45 -255.313 2209.757) scale(.26937)"/><path d="m1645.11 1286.62.19.15-.7.26 8.8 6 8.13 6.28-389.35 21.56-36.47-30.57 4.41-.34 404.07-3.39.24.31.68-.26ZM1241.12 1152.75l-.39-.05 28.05-18.21 378.45 45.67-10.68 21.05-231.12-28.32-164.27-20.24-.04.1Z" style="fill:#231510" transform="rotate(-8.45 -255.313 2209.757) scale(.26937)"/><path d="m1646.1 1183.49 121.6 49.89-130.75-26.56 9.15-23.33Z" style="fill:none;stroke:#000;stroke-width:17.18px;stroke-linecap:round;stroke-miterlimit:1.5" transform="rotate(-2.766 -1415.932 6175.917) scale(.26937)"/><path d="m1756.93 1244.33-112.5 42.55-20-26.25 132.5-16.3ZM1635.99 1202.84l126.62 39.47-133.89-10.36 7.27-29.11Z" style="fill:none;stroke:#000;stroke-width:17.18px;stroke-linecap:round;stroke-miterlimit:1.5" transform="rotate(-8.45 -255.313 2209.757) scale(.26937)"/><path d="m1764.49 1242.64-139.93 18.14 3.56-29.11 136.37 10.97Z" style="fill:none;stroke:#000;stroke-width:17.18px;stroke-linecap:round;stroke-miterlimit:1.5" transform="rotate(-8.45 -255.313 2209.757) scale(.26937)"/><path d="m1763.44 1243.3-101.77 55.36-17.07-11.63 118.84-43.73Z" style="fill:#b9a098;stroke:#000;stroke-width:17.18px;stroke-linecap:round;stroke-miterlimit:1.5" transform="rotate(-8.45 -255.313 2209.757) scale(.26937)"/><path d="m1636.55 1201.21-395.82-48.51 28.05-18.21 378.45 45.67-10.68 21.05Z" style="fill:none;stroke:#000;stroke-width:17.18px;stroke-linecap:round;stroke-miterlimit:1.5" transform="rotate(-8.45 -255.313 2209.757) scale(.26937)"/><path d="m1629.02 1231.05-403.39-32.35 15.53-46.05 395.59 48.74-7.73 29.66Z" style="fill:none;stroke:#000;stroke-width:17.18px;stroke-linecap:round;stroke-miterlimit:1.5" transform="rotate(-8.45 -255.313 2209.757) scale(.26937)"/><path d="m1628.5 1230.71-3.96 28.86-389.68-59.46 393.64 30.6Z" style="fill:none;stroke:#000;stroke-width:17.18px;stroke-linecap:round;stroke-miterlimit:1.5" transform="rotate(-8.45 -255.313 2209.757) scale(.26937)"/><path d="m1224.94 1199.22 400.76 60.37-404.99-11.34 4.23-49.03Z" style="fill:none;stroke:#000;stroke-width:17.1px;stroke-linecap:round;stroke-miterlimit:1.5" transform="matrix(.26478 -.03934 .04018 .27044 -326.074 -18.66)"/><path d="m1623.07 1259.42-254.52 20.61-133.06 10.29-14.23-40.64 401.81 9.74ZM1624.69 1259.97l18.95 25.75-390 3.89 371.05-29.64Z" style="fill:none;stroke:#000;stroke-width:17.18px;stroke-linecap:round;stroke-miterlimit:1.5" transform="rotate(-8.45 -255.313 2209.757) scale(.26937)"/><path d="m1661.53 1299.31-389.35 21.56-36.82-30.87 409.67-3.44 16.5 12.75Z" style="fill:none;stroke:#000;stroke-width:17.18px;stroke-linecap:round;stroke-miterlimit:1.5" transform="rotate(-8.45 -255.313 2209.757) scale(.26937)"/><path d="m1648.74 1257.64 108.19-13.31-111.82 42.29-.08-.06-.84.01-.64-.85h.09l-18.42-25.03 23.52-3.05ZM1624.65 1259.98l1.42-11.58 2.3-16.71.41.04-.06.22 75.52 5.85 60.25 4.84-115.75 15-23.62 2.91-.43-.58-.04.01Z" style="fill:#b9a098" transform="matrix(-.26648 -.03938 -.03938 .26648 712.888 -13.928)"/><path d="m1636.34 1202.95 126.27 39.36-58.37-4.51-75.46-6.07.17-.69.07.01 7.32-28.1ZM1636.64 1201.37l10.75-21.01 116.07 61.67-127.08-39.24.37-1.4-.11-.02Z" style="fill:#b9a098" transform="matrix(-.26648 -.03938 -.03938 .26648 712.888 -13.928)"/><path d="m1622.05 1260.19 2.6-.21-.07.64-.15.01 19.12 25.09-389.91 3.89 366.46-29.27 3.63.1-1.68-.25ZM1392.03 1253.82l-170.76-4.88 4.19-49.77 390.51 60.08-223.94-5.43Z" style="fill:#4f3027" transform="matrix(-.26648 -.03938 -.03938 .26648 712.888 -13.928)"/><path d="m1235.38 1290-14.12-40.32 170.77 4.14 221.88 6.34-245.36 19.87-128.43 9.93-4.74.04ZM1506.91 1221.26l-281.28-22.56 15.49-45.95 164.31 20.14 231.21 28.48-.66 1.3.4.12-.04.16-.35-.11-7.04 28.2-.49-.04.04-.29-121.59-9.45Z" style="fill:#3a1307" transform="matrix(-.26648 -.03938 -.03938 .26648 712.888 -13.928)"/><path d="m1626.07 1248.4-1.53 11.17-389.68-59.46 272.05 21.15 121.55 9.74-.09.69-.25-.02-2.05 16.73Z" style="fill:#3d2d28" transform="matrix(-.26648 -.03938 -.03938 .26648 712.888 -13.928)"/><path d="m1645.11 1286.62.19.15-.7.26 8.8 6 8.13 6.28-389.35 21.56-36.47-30.57 4.41-.34 404.07-3.39.24.31.68-.26ZM1241.12 1152.75l-.39-.05 28.05-18.21 378.45 45.67-10.68 21.05-231.12-28.32-164.27-20.24-.04.1Z" style="fill:#231510" transform="matrix(-.26648 -.03938 -.03938 .26648 712.888 -13.928)"/><path d="m1646.1 1183.49 121.6 49.89-130.75-26.56 9.15-23.33Z" style="fill:none;stroke:#000;stroke-width:17.18px;stroke-linecap:round;stroke-miterlimit:1.5" transform="matrix(-.26907 -.0128 -.0128 .26907 685.484 -61.616)"/><path d="m1756.93 1244.33-112.5 42.55-20-26.25 132.5-16.3ZM1635.99 1202.84l126.62 39.47-133.89-10.36 7.27-29.11Z" style="fill:none;stroke:#000;stroke-width:17.18px;stroke-linecap:round;stroke-miterlimit:1.5" transform="matrix(-.26648 -.03938 -.03938 .26648 712.888 -13.928)"/><path d="m1764.49 1242.64-139.93 18.14 3.56-29.11 136.37 10.97Z" style="fill:none;stroke:#000;stroke-width:17.18px;stroke-linecap:round;stroke-miterlimit:1.5" transform="matrix(-.26648 -.03938 -.03938 .26648 712.888 -13.928)"/><path d="m1763.44 1243.3-101.77 55.36-17.07-11.63 118.84-43.73Z" style="fill:#b9a098;stroke:#000;stroke-width:17.18px;stroke-linecap:round;stroke-miterlimit:1.5" transform="matrix(-.26648 -.03938 -.03938 .26648 712.888 -13.928)"/><path d="m1636.55 1201.21-395.82-48.51 28.05-18.21 378.45 45.67-10.68 21.05Z" style="fill:none;stroke:#000;stroke-width:17.18px;stroke-linecap:round;stroke-miterlimit:1.5" transform="matrix(-.26648 -.03938 -.03938 .26648 712.888 -13.928)"/><path d="m1629.02 1231.05-403.39-32.35 15.53-46.05 395.59 48.74-7.73 29.66Z" style="fill:none;stroke:#000;stroke-width:17.18px;stroke-linecap:round;stroke-miterlimit:1.5" transform="matrix(-.26648 -.03938 -.03938 .26648 712.888 -13.928)"/><path d="m1628.5 1230.71-3.96 28.86-389.68-59.46 393.64 30.6Z" style="fill:none;stroke:#000;stroke-width:17.18px;stroke-linecap:round;stroke-miterlimit:1.5" transform="matrix(-.26648 -.03938 -.03938 .26648 712.888 -13.928)"/><path d="m1224.94 1199.22 400.76 60.37-404.99-11.34 4.23-49.03Z" style="fill:none;stroke:#000;stroke-width:17.1px;stroke-linecap:round;stroke-miterlimit:1.5" transform="matrix(-.26481 -.03913 -.03997 .27047 711.42 -19.05)"/><path d="m1623.07 1259.42-254.52 20.61-133.06 10.29-14.23-40.64 401.81 9.74ZM1624.69 1259.97l18.95 25.75-390 3.89 371.05-29.64Z" style="fill:none;stroke:#000;stroke-width:17.18px;stroke-linecap:round;stroke-miterlimit:1.5" transform="matrix(-.26648 -.03938 -.03938 .26648 712.888 -13.928)"/><path d="m1661.53 1299.31-389.35 21.56-36.82-30.87 409.67-3.44 16.5 12.75Z" style="fill:none;stroke:#000;stroke-width:17.18px;stroke-linecap:round;stroke-miterlimit:1.5" transform="matrix(-.26648 -.03938 -.03938 .26648 712.888 -13.928)"/></svg>